<?xml version="1.0" encoding="us-ascii" standalone="no"?><svg xmlns="http://www.w3.org/2000/svg" xmlns:xlink="http://www.w3.org/1999/xlink" contentStyleType="text/css" height="1008px" preserveAspectRatio="none" style="width:1625px;height:1008px;background:#FFFFFF;" version="1.1" viewBox="0 0 1625 1008" width="1625px" zoomAndPan="magnify"><defs/><g><!--class GameEngine--><g id="elem_GameEngine"><rect codeLine="2" fill="#F1F1F1" height="200.5433" id="GameEngine" rx="2.5" ry="2.5" style="stroke:#181818;stroke-width:0.5;" width="245" x="348.5" y="7"/><ellipse cx="423.75" cy="23" fill="#ADD1B2" rx="11" ry="11" style="stroke:#181818;stroke-width:1.0;"/><path d="M423.8594,18.5313 Q422.9375,18.5313 422.2031,18.8438 Q421.4844,19.1563 420.9844,19.75 Q420.4844,20.3281 420.2031,21.2031 Q419.9375,22.0781 419.9375,23.1719 Q419.9375,24.6094 420.375,25.6563 Q420.8281,26.7031 421.6719,27.25 Q422.5313,27.7969 423.8438,27.7969 Q424.625,27.7969 425.3125,27.6719 Q426.0156,27.5313 427.0156,27.2188 L427.0156,29.0938 Q426.1563,29.4219 425.3906,29.5469 Q424.6406,29.6719 423.625,29.6719 Q421.7031,29.6719 420.3906,28.875 Q419.0938,28.0625 418.4375,26.5938 Q417.7813,25.1094 417.7813,23.1406 Q417.7813,21.7188 418.1719,20.5469 Q418.5781,19.3594 419.3594,18.4844 Q420.1406,17.6094 421.2813,17.1406 Q422.4219,16.6563 423.8906,16.6563 Q424.8438,16.6563 425.7344,16.8594 Q426.6406,17.0469 427.5781,17.5156 L426.75,19.2969 Q425.9688,18.9219 425.3125,18.7344 Q424.6563,18.5313 423.8594,18.5313 Z " fill="#000000"/><text fill="#000000" font-family="sans-serif" font-size="14" lengthAdjust="spacing" textLength="86" x="444.25" y="28.432">GameEngine</text><line style="stroke:#181818;stroke-width:0.5;" x1="349.5" x2="592.5" y1="39" y2="39"/><rect fill="none" height="6" style="stroke:#C82930;stroke-width:1.0;" width="6" x="356.5" y="51.034"/><text fill="#000000" font-family="sans-serif" font-size="14" lengthAdjust="spacing" textLength="113" x="368.5" y="57.9659">players: IPlayer[]</text><rect fill="none" height="6" style="stroke:#C82930;stroke-width:1.0;" width="6" x="356.5" y="70.1019"/><text fill="#000000" font-family="sans-serif" font-size="14" lengthAdjust="spacing" textLength="170" x="368.5" y="77.0339">gameBoard: IGameBoard</text><rect fill="none" height="6" style="stroke:#C82930;stroke-width:1.0;" width="6" x="356.5" y="89.1698"/><text fill="#000000" font-family="sans-serif" font-size="14" lengthAdjust="spacing" textLength="210" x="368.5" y="96.1018">winConditions: IWinCondition[]</text><rect fill="none" height="6" style="stroke:#C82930;stroke-width:1.0;" width="6" x="356.5" y="108.2377"/><text fill="#000000" font-family="sans-serif" font-size="14" lengthAdjust="spacing" textLength="165" x="368.5" y="115.1697">maxNumberOfTurns: int</text><rect fill="none" height="6" style="stroke:#C82930;stroke-width:1.0;" width="6" x="356.5" y="127.3056"/><text fill="#000000" font-family="sans-serif" font-size="14" lengthAdjust="spacing" textLength="196" x="368.5" y="134.2376">outputViewer: IOutputViewer</text><line style="stroke:#181818;stroke-width:0.5;" x1="349.5" x2="592.5" y1="142.3396" y2="142.3396"/><ellipse cx="359.5" cy="157.3735" fill="#84BE84" rx="3" ry="3" style="stroke:#038048;stroke-width:1.0;"/><text fill="#000000" font-family="sans-serif" font-size="14" lengthAdjust="spacing" textLength="35" x="368.5" y="161.3055">Run()</text><rect fill="#F24D5C" height="6" style="stroke:#C82930;stroke-width:1.0;" width="6" x="356.5" y="173.4415"/><text fill="#000000" font-family="sans-serif" font-size="14" lengthAdjust="spacing" textLength="183" x="368.5" y="180.3734">GetPlayerForTurn() : IPlayer</text><rect fill="#F24D5C" height="6" style="stroke:#C82930;stroke-width:1.0;" width="6" x="356.5" y="192.5094"/><text fill="#000000" font-family="sans-serif" font-size="14" lengthAdjust="spacing" textLength="219" x="368.5" y="199.4414">IsGameInWinningState(int): bool</text></g><!--class IPlayer--><g id="elem_IPlayer"><rect codeLine="14" fill="#F1F1F1" height="105.2038" id="IPlayer" rx="2.5" ry="2.5" style="stroke:#181818;stroke-width:0.5;" width="178" x="155" y="267.54"/><ellipse cx="217.25" cy="283.54" fill="#B4A7E5" rx="11" ry="11" style="stroke:#181818;stroke-width:1.0;"/><path d="M219.3438,290.04 L214.4375,290.04 L214.4375,288.665 L215.8594,288.3525 L215.8594,279.0713 L214.4375,278.7275 L214.4375,277.3681 L219.3438,277.3681 L219.3438,278.7275 L217.9219,279.0713 L217.9219,288.3525 L219.3438,288.665 L219.3438,290.04 Z " fill="#000000"/><text fill="#000000" font-family="sans-serif" font-size="14" font-style="italic" lengthAdjust="spacing" textLength="45" x="237.75" y="288.972">IPlayer</text><line style="stroke:#181818;stroke-width:0.5;" x1="156" x2="332" y1="299.54" y2="299.54"/><ellipse cx="166" cy="314.574" fill="none" rx="3" ry="3" style="stroke:#038048;stroke-width:1.0;"/><text fill="#000000" font-family="sans-serif" font-size="14" lengthAdjust="spacing" textLength="88" x="175" y="318.5059">Name: string</text><ellipse cx="166" cy="333.6419" fill="none" rx="3" ry="3" style="stroke:#038048;stroke-width:1.0;"/><text fill="#000000" font-family="sans-serif" font-size="14" lengthAdjust="spacing" textLength="152" x="175" y="337.5739">TokenType: TokenType</text><line style="stroke:#181818;stroke-width:0.5;" x1="156" x2="332" y1="345.6758" y2="345.6758"/><ellipse cx="166" cy="360.7098" fill="#84BE84" rx="3" ry="3" style="stroke:#038048;stroke-width:1.0;"/><text fill="#000000" font-family="sans-serif" font-size="14" lengthAdjust="spacing" textLength="124" x="175" y="364.6418">GetNextMove(): int</text></g><!--class Player--><g id="elem_Player"><rect codeLine="19" fill="#F1F1F1" height="67.0679" id="Player" rx="2.5" ry="2.5" style="stroke:#181818;stroke-width:0.5;" width="181" x="143.5" y="489.95"/><ellipse cx="209.75" cy="505.95" fill="#A9DCDF" rx="11" ry="11" style="stroke:#181818;stroke-width:1.0;"/><path d="M213.0938,511.2 L211.625,507.45 L207.1875,507.45 L205.75,511.2 L203.625,511.2 L208.5781,498.4813 L210.3281,498.4813 L215.25,511.2 L213.0938,511.2 Z M209.75,502.2469 Q209.7031,502.0906 209.5781,501.7313 Q209.4531,501.3719 209.3438,500.9969 Q209.2344,500.6063 209.4375,500.5438 Q209.5938,500.7313 209.5,501.0906 Q209.4063,501.4344 209.3125,501.7313 Q209.2188,502.0125 209.1406,502.2469 L207.9063,505.5594 L210.9844,505.5594 L209.75,502.2469 Z " fill="#000000"/><text fill="#000000" font-family="sans-serif" font-size="14" font-style="italic" lengthAdjust="spacing" textLength="40" x="230.25" y="511.382">Player</text><line style="stroke:#181818;stroke-width:0.5;" x1="144.5" x2="323.5" y1="521.95" y2="521.95"/><polygon fill="none" points="154.5,531.984,158.5,535.984,154.5,539.984,150.5,535.984" style="stroke:#B38D22;stroke-width:1.0;"/><text fill="#000000" font-family="sans-serif" font-size="14" lengthAdjust="spacing" textLength="155" x="163.5" y="540.9159">numberOfColumns: int</text><line style="stroke:#181818;stroke-width:0.5;" x1="144.5" x2="323.5" y1="549.0179" y2="549.0179"/></g><!--class HumanPlayer--><g id="elem_HumanPlayer"><rect codeLine="22" fill="#F1F1F1" height="67.0679" id="HumanPlayer" rx="2.5" ry="2.5" style="stroke:#181818;stroke-width:0.5;" width="122" x="7" y="712.35"/><ellipse cx="22" cy="728.35" fill="#ADD1B2" rx="11" ry="11" style="stroke:#181818;stroke-width:1.0;"/><path d="M22.1094,723.8813 Q21.1875,723.8813 20.4531,724.1938 Q19.7344,724.5063 19.2344,725.1 Q18.7344,725.6781 18.4531,726.5531 Q18.1875,727.4281 18.1875,728.5219 Q18.1875,729.9594 18.625,731.0063 Q19.0781,732.0531 19.9219,732.6 Q20.7813,733.1469 22.0938,733.1469 Q22.875,733.1469 23.5625,733.0219 Q24.2656,732.8813 25.2656,732.5688 L25.2656,734.4438 Q24.4063,734.7719 23.6406,734.8969 Q22.8906,735.0219 21.875,735.0219 Q19.9531,735.0219 18.6406,734.225 Q17.3438,733.4125 16.6875,731.9438 Q16.0313,730.4594 16.0313,728.4906 Q16.0313,727.0688 16.4219,725.8969 Q16.8281,724.7094 17.6094,723.8344 Q18.3906,722.9594 19.5313,722.4906 Q20.6719,722.0063 22.1406,722.0063 Q23.0938,722.0063 23.9844,722.2094 Q24.8906,722.3969 25.8281,722.8656 L25,724.6469 Q24.2188,724.2719 23.5625,724.0844 Q22.9063,723.8813 22.1094,723.8813 Z " fill="#000000"/><text fill="#000000" font-family="sans-serif" font-size="14" lengthAdjust="spacing" textLength="90" x="36" y="733.782">HumanPlayer</text><line style="stroke:#181818;stroke-width:0.5;" x1="8" x2="128" y1="744.35" y2="744.35"/><rect fill="none" height="6" style="stroke:#C82930;stroke-width:1.0;" width="6" x="15" y="756.384"/><text fill="#000000" font-family="sans-serif" font-size="14" lengthAdjust="spacing" textLength="86" x="27" y="763.3159">input: IInput</text><line style="stroke:#181818;stroke-width:0.5;" x1="8" x2="128" y1="771.4179" y2="771.4179"/></g><!--class ComputerPlayer--><g id="elem_ComputerPlayer"><rect codeLine="25" fill="#F1F1F1" height="48" id="ComputerPlayer" rx="2.5" ry="2.5" style="stroke:#181818;stroke-width:0.5;" width="140" x="164" y="721.89"/><ellipse cx="179" cy="737.89" fill="#ADD1B2" rx="11" ry="11" style="stroke:#181818;stroke-width:1.0;"/><path d="M179.1094,733.4213 Q178.1875,733.4213 177.4531,733.7338 Q176.7344,734.0463 176.2344,734.64 Q175.7344,735.2181 175.4531,736.0931 Q175.1875,736.9681 175.1875,738.0619 Q175.1875,739.4994 175.625,740.5463 Q176.0781,741.5931 176.9219,742.14 Q177.7813,742.6869 179.0938,742.6869 Q179.875,742.6869 180.5625,742.5619 Q181.2656,742.4213 182.2656,742.1088 L182.2656,743.9838 Q181.4063,744.3119 180.6406,744.4369 Q179.8906,744.5619 178.875,744.5619 Q176.9531,744.5619 175.6406,743.765 Q174.3438,742.9525 173.6875,741.4838 Q173.0313,739.9994 173.0313,738.0306 Q173.0313,736.6088 173.4219,735.4369 Q173.8281,734.2494 174.6094,733.3744 Q175.3906,732.4994 176.5313,732.0306 Q177.6719,731.5463 179.1406,731.5463 Q180.0938,731.5463 180.9844,731.7494 Q181.8906,731.9369 182.8281,732.4056 L182,734.1869 Q181.2188,733.8119 180.5625,733.6244 Q179.9063,733.4213 179.1094,733.4213 Z " fill="#000000"/><text fill="#000000" font-family="sans-serif" font-size="14" lengthAdjust="spacing" textLength="108" x="193" y="743.322">ComputerPlayer</text><line style="stroke:#181818;stroke-width:0.5;" x1="165" x2="303" y1="753.89" y2="753.89"/><line style="stroke:#181818;stroke-width:0.5;" x1="165" x2="303" y1="761.89" y2="761.89"/></g><!--class IGameBoard--><g id="elem_IGameBoard"><rect codeLine="28" fill="#F1F1F1" height="143.3396" id="IGameBoard" rx="2.5" ry="2.5" style="stroke:#181818;stroke-width:0.5;" width="256" x="339" y="674.22"/><ellipse cx="423.25" cy="690.22" fill="#B4A7E5" rx="11" ry="11" style="stroke:#181818;stroke-width:1.0;"/><path d="M425.3438,696.72 L420.4375,696.72 L420.4375,695.345 L421.8594,695.0325 L421.8594,685.7513 L420.4375,685.4075 L420.4375,684.0481 L425.3438,684.0481 L425.3438,685.4075 L423.9219,685.7513 L423.9219,695.0325 L425.3438,695.345 L425.3438,696.72 Z " fill="#000000"/><text fill="#000000" font-family="sans-serif" font-size="14" font-style="italic" lengthAdjust="spacing" textLength="79" x="443.75" y="695.652">IGameBoard</text><line style="stroke:#181818;stroke-width:0.5;" x1="340" x2="594" y1="706.22" y2="706.22"/><ellipse cx="350" cy="721.254" fill="none" rx="3" ry="3" style="stroke:#038048;stroke-width:1.0;"/><text fill="#000000" font-family="sans-serif" font-size="14" lengthAdjust="spacing" textLength="124" x="359" y="725.1859">NumerOfRows: int</text><ellipse cx="350" cy="740.3219" fill="none" rx="3" ry="3" style="stroke:#038048;stroke-width:1.0;"/><text fill="#000000" font-family="sans-serif" font-size="14" lengthAdjust="spacing" textLength="157" x="359" y="744.2539">NumberOfColumns: int</text><line style="stroke:#181818;stroke-width:0.5;" x1="340" x2="594" y1="752.3558" y2="752.3558"/><ellipse cx="350" cy="767.3898" fill="#84BE84" rx="3" ry="3" style="stroke:#038048;stroke-width:1.0;"/><text fill="#000000" font-family="sans-serif" font-size="14" lengthAdjust="spacing" textLength="222" x="359" y="771.3218">PlaceToken(TokenType, int) : bool</text><ellipse cx="350" cy="786.4577" fill="#84BE84" rx="3" ry="3" style="stroke:#038048;stroke-width:1.0;"/><text fill="#000000" font-family="sans-serif" font-size="14" lengthAdjust="spacing" textLength="230" x="359" y="790.3897">GetRowOfLastPlayedToken(int): int</text><ellipse cx="350" cy="805.5256" fill="#84BE84" rx="3" ry="3" style="stroke:#038048;stroke-width:1.0;"/><text fill="#000000" font-family="sans-serif" font-size="14" lengthAdjust="spacing" textLength="209" x="359" y="809.4576">GetTokenAt(int, int): TokenType</text></g><!--class GameBoard--><g id="elem_GameBoard"><rect codeLine="36" fill="#F1F1F1" height="124.2717" id="GameBoard" rx="2.5" ry="2.5" style="stroke:#181818;stroke-width:0.5;" width="292" x="321" y="877.56"/><ellipse cx="423.25" cy="893.56" fill="#ADD1B2" rx="11" ry="11" style="stroke:#181818;stroke-width:1.0;"/><path d="M423.3594,889.0913 Q422.4375,889.0913 421.7031,889.4038 Q420.9844,889.7163 420.4844,890.31 Q419.9844,890.8881 419.7031,891.7631 Q419.4375,892.6381 419.4375,893.7319 Q419.4375,895.1694 419.875,896.2163 Q420.3281,897.2631 421.1719,897.81 Q422.0313,898.3569 423.3438,898.3569 Q424.125,898.3569 424.8125,898.2319 Q425.5156,898.0913 426.5156,897.7788 L426.5156,899.6538 Q425.6563,899.9819 424.8906,900.1069 Q424.1406,900.2319 423.125,900.2319 Q421.2031,900.2319 419.8906,899.435 Q418.5938,898.6225 417.9375,897.1538 Q417.2813,895.6694 417.2813,893.7006 Q417.2813,892.2788 417.6719,891.1069 Q418.0781,889.9194 418.8594,889.0444 Q419.6406,888.1694 420.7813,887.7006 Q421.9219,887.2163 423.3906,887.2163 Q424.3438,887.2163 425.2344,887.4194 Q426.1406,887.6069 427.0781,888.0756 L426.25,889.8569 Q425.4688,889.4819 424.8125,889.2944 Q424.1563,889.0913 423.3594,889.0913 Z " fill="#000000"/><text fill="#000000" font-family="sans-serif" font-size="14" lengthAdjust="spacing" textLength="79" x="443.75" y="898.992">GameBoard</text><line style="stroke:#181818;stroke-width:0.5;" x1="322" x2="612" y1="909.56" y2="909.56"/><rect fill="none" height="6" style="stroke:#C82930;stroke-width:1.0;" width="6" x="329" y="921.594"/><text fill="#000000" font-family="sans-serif" font-size="14" lengthAdjust="spacing" textLength="221" x="341" y="928.5259">gameBoardMatrix: TokenType[][]</text><rect fill="none" height="6" style="stroke:#C82930;stroke-width:1.0;" width="6" x="329" y="940.6619"/><text fill="#000000" font-family="sans-serif" font-size="14" lengthAdjust="spacing" textLength="175" x="341" y="947.5939">rowIndexUpperBound: int</text><rect fill="none" height="6" style="stroke:#C82930;stroke-width:1.0;" width="6" x="329" y="959.7298"/><text fill="#000000" font-family="sans-serif" font-size="14" lengthAdjust="spacing" textLength="169" x="341" y="966.6618">colIndexUpperBound: int</text><line style="stroke:#181818;stroke-width:0.5;" x1="322" x2="612" y1="974.7638" y2="974.7638"/><rect fill="#F24D5C" height="6" style="stroke:#C82930;stroke-width:1.0;" width="6" x="329" y="986.7977"/><text fill="#000000" font-family="sans-serif" font-size="14" lengthAdjust="spacing" textLength="266" x="341" y="993.7297">CompensateForZeroBasedIndex(int): int</text></g><!--class IOutputViewer--><g id="elem_IOutputViewer"><rect codeLine="44" fill="#F1F1F1" height="86.1358" id="IOutputViewer" rx="2.5" ry="2.5" style="stroke:#181818;stroke-width:0.5;" width="229" x="440.5" y="277.07"/><ellipse cx="505.25" cy="293.07" fill="#B4A7E5" rx="11" ry="11" style="stroke:#181818;stroke-width:1.0;"/><path d="M507.3438,299.57 L502.4375,299.57 L502.4375,298.195 L503.8594,297.8825 L503.8594,288.6013 L502.4375,288.2575 L502.4375,286.8981 L507.3438,286.8981 L507.3438,288.2575 L505.9219,288.6013 L505.9219,297.8825 L507.3438,298.195 L507.3438,299.57 Z " fill="#000000"/><text fill="#000000" font-family="sans-serif" font-size="14" font-style="italic" lengthAdjust="spacing" textLength="91" x="525.75" y="298.502">IOutputViewer</text><line style="stroke:#181818;stroke-width:0.5;" x1="441.5" x2="668.5" y1="309.07" y2="309.07"/><line style="stroke:#181818;stroke-width:0.5;" x1="441.5" x2="668.5" y1="317.07" y2="317.07"/><ellipse cx="451.5" cy="332.104" fill="#84BE84" rx="3" ry="3" style="stroke:#038048;stroke-width:1.0;"/><text fill="#000000" font-family="sans-serif" font-size="14" lengthAdjust="spacing" textLength="144" x="460.5" y="336.0359">ShowMessage(string)</text><ellipse cx="451.5" cy="351.1719" fill="#84BE84" rx="3" ry="3" style="stroke:#038048;stroke-width:1.0;"/><text fill="#000000" font-family="sans-serif" font-size="14" lengthAdjust="spacing" textLength="203" x="460.5" y="355.1039">PrintGameBoard(IGameBoard)</text></g><!--class OutputViewer--><g id="elem_OutputViewer"><rect codeLine="49" fill="#F1F1F1" height="67.0679" id="OutputViewer" rx="2.5" ry="2.5" style="stroke:#181818;stroke-width:0.5;" width="321" x="510.5" y="489.95"/><ellipse cx="620.25" cy="505.95" fill="#ADD1B2" rx="11" ry="11" style="stroke:#181818;stroke-width:1.0;"/><path d="M620.3594,501.4813 Q619.4375,501.4813 618.7031,501.7938 Q617.9844,502.1063 617.4844,502.7 Q616.9844,503.2781 616.7031,504.1531 Q616.4375,505.0281 616.4375,506.1219 Q616.4375,507.5594 616.875,508.6063 Q617.3281,509.6531 618.1719,510.2 Q619.0313,510.7469 620.3438,510.7469 Q621.125,510.7469 621.8125,510.6219 Q622.5156,510.4813 623.5156,510.1688 L623.5156,512.0438 Q622.6563,512.3719 621.8906,512.4969 Q621.1406,512.6219 620.125,512.6219 Q618.2031,512.6219 616.8906,511.825 Q615.5938,511.0125 614.9375,509.5438 Q614.2813,508.0594 614.2813,506.0906 Q614.2813,504.6688 614.6719,503.4969 Q615.0781,502.3094 615.8594,501.4344 Q616.6406,500.5594 617.7813,500.0906 Q618.9219,499.6063 620.3906,499.6063 Q621.3438,499.6063 622.2344,499.8094 Q623.1406,499.9969 624.0781,500.4656 L623.25,502.2469 Q622.4688,501.8719 621.8125,501.6844 Q621.1563,501.4813 620.3594,501.4813 Z " fill="#000000"/><text fill="#000000" font-family="sans-serif" font-size="14" lengthAdjust="spacing" textLength="93" x="640.75" y="511.382">OutputViewer</text><line style="stroke:#181818;stroke-width:0.5;" x1="511.5" x2="830.5" y1="521.95" y2="521.95"/><line style="stroke:#181818;stroke-width:0.5;" x1="511.5" x2="830.5" y1="529.95" y2="529.95"/><rect fill="#F24D5C" height="6" style="stroke:#C82930;stroke-width:1.0;" width="6" x="518.5" y="541.984"/><text fill="#000000" font-family="sans-serif" font-size="14" lengthAdjust="spacing" textLength="295" x="530.5" y="548.9159">GetStringRepresentation(TokenType): string</text></g><!--class IWinCondition--><g id="elem_IWinCondition"><rect codeLine="54" fill="#F1F1F1" height="67.0679" id="IWinCondition" rx="2.5" ry="2.5" style="stroke:#181818;stroke-width:0.5;" width="155" x="811.5" y="286.61"/><ellipse cx="841.35" cy="302.61" fill="#B4A7E5" rx="11" ry="11" style="stroke:#181818;stroke-width:1.0;"/><path d="M843.4438,309.11 L838.5375,309.11 L838.5375,307.735 L839.9594,307.4225 L839.9594,298.1413 L838.5375,297.7975 L838.5375,296.4381 L843.4438,296.4381 L843.4438,297.7975 L842.0219,298.1413 L842.0219,307.4225 L843.4438,307.735 L843.4438,309.11 Z " fill="#000000"/><text fill="#000000" font-family="sans-serif" font-size="14" font-style="italic" lengthAdjust="spacing" textLength="90" x="858.65" y="308.042">IWinCondition</text><line style="stroke:#181818;stroke-width:0.5;" x1="812.5" x2="965.5" y1="318.61" y2="318.61"/><line style="stroke:#181818;stroke-width:0.5;" x1="812.5" x2="965.5" y1="326.61" y2="326.61"/><ellipse cx="822.5" cy="341.644" fill="#84BE84" rx="3" ry="3" style="stroke:#038048;stroke-width:1.0;"/><text fill="#000000" font-family="sans-serif" font-size="14" lengthAdjust="spacing" textLength="129" x="831.5" y="345.5759">IsFulfilled(int): bool</text></g><!--class WinCondition--><g id="elem_WinCondition"><rect codeLine="58" fill="#F1F1F1" height="181.4754" id="WinCondition" rx="2.5" ry="2.5" style="stroke:#181818;stroke-width:0.5;" width="259" x="866.5" y="432.74"/><ellipse cx="949.25" cy="448.74" fill="#A9DCDF" rx="11" ry="11" style="stroke:#181818;stroke-width:1.0;"/><path d="M952.5938,453.99 L951.125,450.24 L946.6875,450.24 L945.25,453.99 L943.125,453.99 L948.0781,441.2713 L949.8281,441.2713 L954.75,453.99 L952.5938,453.99 Z M949.25,445.0369 Q949.2031,444.8806 949.0781,444.5213 Q948.9531,444.1619 948.8438,443.7869 Q948.7344,443.3963 948.9375,443.3338 Q949.0938,443.5213 949,443.8806 Q948.9063,444.2244 948.8125,444.5213 Q948.7188,444.8025 948.6406,445.0369 L947.4063,448.3494 L950.4844,448.3494 L949.25,445.0369 Z " fill="#000000"/><text fill="#000000" font-family="sans-serif" font-size="14" font-style="italic" lengthAdjust="spacing" textLength="85" x="969.75" y="454.172">WinCondition</text><line style="stroke:#181818;stroke-width:0.5;" x1="867.5" x2="1124.5" y1="464.74" y2="464.74"/><rect fill="none" height="6" style="stroke:#C82930;stroke-width:1.0;" width="6" x="874.5" y="476.774"/><text fill="#000000" font-family="sans-serif" font-size="14" lengthAdjust="spacing" textLength="170" x="886.5" y="483.7059">gameBoard: IGameBoard</text><rect fill="none" height="6" style="stroke:#C82930;stroke-width:1.0;" width="6" x="874.5" y="495.8419"/><text fill="#000000" font-family="sans-serif" font-size="14" lengthAdjust="spacing" textLength="168" x="886.5" y="502.7739">tokensInLineForAWin: int</text><polygon fill="none" points="877.5,512.9098,881.5,516.9098,877.5,520.9098,873.5,516.9098" style="stroke:#B38D22;stroke-width:1.0;"/><text fill="#000000" font-family="sans-serif" font-size="14" lengthAdjust="spacing" textLength="133" x="886.5" y="521.8418">NumberOfRows: int</text><polygon fill="none" points="877.5,531.9777,881.5,535.9777,877.5,539.9777,873.5,535.9777" style="stroke:#B38D22;stroke-width:1.0;"/><text fill="#000000" font-family="sans-serif" font-size="14" lengthAdjust="spacing" textLength="157" x="886.5" y="540.9097">NumberOfColumns: int</text><line style="stroke:#181818;stroke-width:0.5;" x1="867.5" x2="1124.5" y1="549.0117" y2="549.0117"/><polygon fill="#FFFF44" points="877.5,559.0456,881.5,563.0456,877.5,567.0456,873.5,563.0456" style="stroke:#B38D22;stroke-width:1.0;"/><text fill="#000000" font-family="sans-serif" font-size="14" lengthAdjust="spacing" textLength="233" x="886.5" y="567.9776">IsLineBigEnoughForAWin(int): bool</text><polygon fill="#FFFF44" points="877.5,578.1135,881.5,582.1135,877.5,586.1135,873.5,582.1135" style="stroke:#B38D22;stroke-width:1.0;"/><text fill="#000000" font-family="sans-serif" font-size="14" lengthAdjust="spacing" textLength="230" x="886.5" y="587.0455">GetRowOfLastPlayedToken(int): int</text><polygon fill="#FFFF44" points="877.5,597.1815,881.5,601.1815,877.5,605.1815,873.5,601.1815" style="stroke:#B38D22;stroke-width:1.0;"/><text fill="#000000" font-family="sans-serif" font-size="14" lengthAdjust="spacing" textLength="191" x="886.5" y="606.1134">GetToken(int,int): TokenType</text></g><!--class HorizontalWinCondition--><g id="elem_HorizontalWinCondition"><rect codeLine="68" fill="#F1F1F1" height="48" id="HorizontalWinCondition" rx="2.5" ry="2.5" style="stroke:#181818;stroke-width:0.5;" width="192" x="656" y="721.89"/><ellipse cx="671" cy="737.89" fill="#ADD1B2" rx="11" ry="11" style="stroke:#181818;stroke-width:1.0;"/><path d="M671.1094,733.4213 Q670.1875,733.4213 669.4531,733.7338 Q668.7344,734.0463 668.2344,734.64 Q667.7344,735.2181 667.4531,736.0931 Q667.1875,736.9681 667.1875,738.0619 Q667.1875,739.4994 667.625,740.5463 Q668.0781,741.5931 668.9219,742.14 Q669.7813,742.6869 671.0938,742.6869 Q671.875,742.6869 672.5625,742.5619 Q673.2656,742.4213 674.2656,742.1088 L674.2656,743.9838 Q673.4063,744.3119 672.6406,744.4369 Q671.8906,744.5619 670.875,744.5619 Q668.9531,744.5619 667.6406,743.765 Q666.3438,742.9525 665.6875,741.4838 Q665.0313,739.9994 665.0313,738.0306 Q665.0313,736.6088 665.4219,735.4369 Q665.8281,734.2494 666.6094,733.3744 Q667.3906,732.4994 668.5313,732.0306 Q669.6719,731.5463 671.1406,731.5463 Q672.0938,731.5463 672.9844,731.7494 Q673.8906,731.9369 674.8281,732.4056 L674,734.1869 Q673.2188,733.8119 672.5625,733.6244 Q671.9063,733.4213 671.1094,733.4213 Z " fill="#000000"/><text fill="#000000" font-family="sans-serif" font-size="14" lengthAdjust="spacing" textLength="160" x="685" y="743.322">HorizontalWinCondition</text><line style="stroke:#181818;stroke-width:0.5;" x1="657" x2="847" y1="753.89" y2="753.89"/><line style="stroke:#181818;stroke-width:0.5;" x1="657" x2="847" y1="761.89" y2="761.89"/></g><!--class VerticalWinCondition--><g id="elem_VerticalWinCondition"><rect codeLine="69" fill="#F1F1F1" height="48" id="VerticalWinCondition" rx="2.5" ry="2.5" style="stroke:#181818;stroke-width:0.5;" width="173" x="883.5" y="721.89"/><ellipse cx="898.5" cy="737.89" fill="#ADD1B2" rx="11" ry="11" style="stroke:#181818;stroke-width:1.0;"/><path d="M898.6094,733.4213 Q897.6875,733.4213 896.9531,733.7338 Q896.2344,734.0463 895.7344,734.64 Q895.2344,735.2181 894.9531,736.0931 Q894.6875,736.9681 894.6875,738.0619 Q894.6875,739.4994 895.125,740.5463 Q895.5781,741.5931 896.4219,742.14 Q897.2813,742.6869 898.5938,742.6869 Q899.375,742.6869 900.0625,742.5619 Q900.7656,742.4213 901.7656,742.1088 L901.7656,743.9838 Q900.9063,744.3119 900.1406,744.4369 Q899.3906,744.5619 898.375,744.5619 Q896.4531,744.5619 895.1406,743.765 Q893.8438,742.9525 893.1875,741.4838 Q892.5313,739.9994 892.5313,738.0306 Q892.5313,736.6088 892.9219,735.4369 Q893.3281,734.2494 894.1094,733.3744 Q894.8906,732.4994 896.0313,732.0306 Q897.1719,731.5463 898.6406,731.5463 Q899.5938,731.5463 900.4844,731.7494 Q901.3906,731.9369 902.3281,732.4056 L901.5,734.1869 Q900.7188,733.8119 900.0625,733.6244 Q899.4063,733.4213 898.6094,733.4213 Z " fill="#000000"/><text fill="#000000" font-family="sans-serif" font-size="14" lengthAdjust="spacing" textLength="141" x="912.5" y="743.322">VerticalWinCondition</text><line style="stroke:#181818;stroke-width:0.5;" x1="884.5" x2="1055.5" y1="753.89" y2="753.89"/><line style="stroke:#181818;stroke-width:0.5;" x1="884.5" x2="1055.5" y1="761.89" y2="761.89"/></g><!--class UpwardDiagonalWinCondition--><g id="elem_UpwardDiagonalWinCondition"><rect codeLine="70" fill="#F1F1F1" height="48" id="UpwardDiagonalWinCondition" rx="2.5" ry="2.5" style="stroke:#181818;stroke-width:0.5;" width="236" x="1092" y="721.89"/><ellipse cx="1107" cy="737.89" fill="#ADD1B2" rx="11" ry="11" style="stroke:#181818;stroke-width:1.0;"/><path d="M1107.1094,733.4213 Q1106.1875,733.4213 1105.4531,733.7338 Q1104.7344,734.0463 1104.2344,734.64 Q1103.7344,735.2181 1103.4531,736.0931 Q1103.1875,736.9681 1103.1875,738.0619 Q1103.1875,739.4994 1103.625,740.5463 Q1104.0781,741.5931 1104.9219,742.14 Q1105.7813,742.6869 1107.0938,742.6869 Q1107.875,742.6869 1108.5625,742.5619 Q1109.2656,742.4213 1110.2656,742.1088 L1110.2656,743.9838 Q1109.4063,744.3119 1108.6406,744.4369 Q1107.8906,744.5619 1106.875,744.5619 Q1104.9531,744.5619 1103.6406,743.765 Q1102.3438,742.9525 1101.6875,741.4838 Q1101.0313,739.9994 1101.0313,738.0306 Q1101.0313,736.6088 1101.4219,735.4369 Q1101.8281,734.2494 1102.6094,733.3744 Q1103.3906,732.4994 1104.5313,732.0306 Q1105.6719,731.5463 1107.1406,731.5463 Q1108.0938,731.5463 1108.9844,731.7494 Q1109.8906,731.9369 1110.8281,732.4056 L1110,734.1869 Q1109.2188,733.8119 1108.5625,733.6244 Q1107.9063,733.4213 1107.1094,733.4213 Z " fill="#000000"/><text fill="#000000" font-family="sans-serif" font-size="14" lengthAdjust="spacing" textLength="204" x="1121" y="743.322">UpwardDiagonalWinCondition</text><line style="stroke:#181818;stroke-width:0.5;" x1="1093" x2="1327" y1="753.89" y2="753.89"/><line style="stroke:#181818;stroke-width:0.5;" x1="1093" x2="1327" y1="761.89" y2="761.89"/></g><!--class DownwardDiagonalWinCondition--><g id="elem_DownwardDiagonalWinCondition"><rect codeLine="71" fill="#F1F1F1" height="48" id="DownwardDiagonalWinCondition" rx="2.5" ry="2.5" style="stroke:#181818;stroke-width:0.5;" width="255" x="1363.5" y="721.89"/><ellipse cx="1378.5" cy="737.89" fill="#ADD1B2" rx="11" ry="11" style="stroke:#181818;stroke-width:1.0;"/><path d="M1378.6094,733.4213 Q1377.6875,733.4213 1376.9531,733.7338 Q1376.2344,734.0463 1375.7344,734.64 Q1375.2344,735.2181 1374.9531,736.0931 Q1374.6875,736.9681 1374.6875,738.0619 Q1374.6875,739.4994 1375.125,740.5463 Q1375.5781,741.5931 1376.4219,742.14 Q1377.2813,742.6869 1378.5938,742.6869 Q1379.375,742.6869 1380.0625,742.5619 Q1380.7656,742.4213 1381.7656,742.1088 L1381.7656,743.9838 Q1380.9063,744.3119 1380.1406,744.4369 Q1379.3906,744.5619 1378.375,744.5619 Q1376.4531,744.5619 1375.1406,743.765 Q1373.8438,742.9525 1373.1875,741.4838 Q1372.5313,739.9994 1372.5313,738.0306 Q1372.5313,736.6088 1372.9219,735.4369 Q1373.3281,734.2494 1374.1094,733.3744 Q1374.8906,732.4994 1376.0313,732.0306 Q1377.1719,731.5463 1378.6406,731.5463 Q1379.5938,731.5463 1380.4844,731.7494 Q1381.3906,731.9369 1382.3281,732.4056 L1381.5,734.1869 Q1380.7188,733.8119 1380.0625,733.6244 Q1379.4063,733.4213 1378.6094,733.4213 Z " fill="#000000"/><text fill="#000000" font-family="sans-serif" font-size="14" lengthAdjust="spacing" textLength="223" x="1392.5" y="743.322">DownwardDiagonalWinCondition</text><line style="stroke:#181818;stroke-width:0.5;" x1="1364.5" x2="1617.5" y1="753.89" y2="753.89"/><line style="stroke:#181818;stroke-width:0.5;" x1="1364.5" x2="1617.5" y1="761.89" y2="761.89"/></g><!--reverse link GameEngine to IPlayer--><g id="link_GameEngine_IPlayer"><path codeLine="75" d="M355.0173,216.0063 C332.9773,236.4763 319.42,249.08 300.08,267.05 " fill="none" id="GameEngine-backto-IPlayer" style="stroke:#181818;stroke-width:1.0;"/><polygon fill="#181818" points="363.81,207.84,356.6916,208.9923,355.0173,216.0063,362.1358,214.8541,363.81,207.84" style="stroke:#181818;stroke-width:1.0;"/><text fill="#000000" font-family="sans-serif" font-size="13" lengthAdjust="spacing" textLength="7" x="349.0271" y="229.4307">1</text><text fill="#000000" font-family="sans-serif" font-size="13" lengthAdjust="spacing" textLength="7" x="300.1454" y="255.718">*</text></g><!--reverse link GameEngine to IWinCondition--><g id="link_GameEngine_IWinCondition"><path codeLine="76" d="M604.5834,175.6558 C679.8534,213.6358 762.47,255.31 823.78,286.24 " fill="none" id="GameEngine-backto-IWinCondition" style="stroke:#181818;stroke-width:1.0;"/><polygon fill="#181818" points="593.87,170.25,597.4248,176.524,604.5834,175.6558,601.0286,169.3818,593.87,170.25" style="stroke:#181818;stroke-width:1.0;"/><text fill="#000000" font-family="sans-serif" font-size="13" lengthAdjust="spacing" textLength="7" x="601.5707" y="170.4883">1</text><text fill="#000000" font-family="sans-serif" font-size="13" lengthAdjust="spacing" textLength="7" x="803.2507" y="274.8582">*</text></g><!--reverse link GameEngine to IOutputViewer--><g id="link_GameEngine_IOutputViewer"><path codeLine="77" d="M515.1032,218.9871 C524.7532,243.1971 530.11,256.67 538.04,276.58 " fill="none" id="GameEngine-backto-IOutputViewer" style="stroke:#181818;stroke-width:1.0;"/><polygon fill="#181818" points="510.66,207.84,509.1659,214.8946,515.1032,218.9871,516.5973,211.9325,510.66,207.84" style="stroke:#181818;stroke-width:1.0;"/><text fill="#000000" font-family="sans-serif" font-size="13" lengthAdjust="spacing" textLength="7" x="506.2025" y="229.4307">1</text><text fill="#000000" font-family="sans-serif" font-size="13" lengthAdjust="spacing" textLength="7" x="527.7792" y="265.2365">1</text></g><!--reverse link GameEngine to IGameBoard--><g id="link_GameEngine_IGameBoard"><path codeLine="79" d="M432.8845,219.4984 C427.4345,239.0284 425.88,247.97 423,267.54 C401.85,411.01 429.88,580.33 449.93,673.83 " fill="none" id="GameEngine-backto-IGameBoard" style="stroke:#181818;stroke-width:1.0;"/><polygon fill="#181818" points="436.11,207.94,430.6445,212.644,432.8845,219.4984,438.3501,214.7943,436.11,207.94" style="stroke:#181818;stroke-width:1.0;"/><text fill="#000000" font-family="sans-serif" font-size="13" lengthAdjust="spacing" textLength="7" x="426.4107" y="229.5377">1</text><text fill="#000000" font-family="sans-serif" font-size="13" lengthAdjust="spacing" textLength="7" x="440.8087" y="662.4557">1</text></g><!--reverse link IGameBoard to GameBoard--><g id="link_IGameBoard_GameBoard"><path codeLine="80" d="M467,836.04 C467,855.44 467,858.3 467,877.12 " fill="none" id="IGameBoard-backto-GameBoard" style="stroke:#181818;stroke-width:1.0;stroke-dasharray:7.0,7.0;"/><polygon fill="none" points="467,818.04,461,836.04,473,836.04,467,818.04" style="stroke:#181818;stroke-width:1.0;"/></g><!--reverse link IWinCondition to WinCondition--><g id="link_IWinCondition_WinCondition"><path codeLine="82" d="M914.8786,369.8341 C926.2486,391.2241 933.24,404.38 948.09,432.34 " fill="none" id="IWinCondition-backto-WinCondition" style="stroke:#181818;stroke-width:1.0;stroke-dasharray:7.0,7.0;"/><polygon fill="none" points="906.43,353.94,909.5806,372.6503,920.1766,367.0179,906.43,353.94" style="stroke:#181818;stroke-width:1.0;"/></g><!--reverse link WinCondition to HorizontalWinCondition--><g id="link_WinCondition_HorizontalWinCondition"><path codeLine="83" d="M883.0425,626.5156 C839.8225,665.5556 806.07,696.04 777.8,721.58 " fill="none" id="WinCondition-backto-HorizontalWinCondition" style="stroke:#181818;stroke-width:1.0;"/><polygon fill="none" points="896.4,614.45,879.0207,622.0631,887.0644,630.9681,896.4,614.45" style="stroke:#181818;stroke-width:1.0;"/></g><!--reverse link WinCondition to VerticalWinCondition--><g id="link_WinCondition_VerticalWinCondition"><path codeLine="84" d="M983.2792,632.3258 C978.6692,671.3658 975.76,696.04 972.75,721.58 " fill="none" id="WinCondition-backto-VerticalWinCondition" style="stroke:#181818;stroke-width:1.0;"/><polygon fill="none" points="985.39,614.45,977.3206,631.6222,989.2378,633.0294,985.39,614.45" style="stroke:#181818;stroke-width:1.0;"/></g><!--reverse link WinCondition to UpwardDiagonalWinCondition--><g id="link_WinCondition_UpwardDiagonalWinCondition"><path codeLine="85" d="M1095.8897,627.3634 C1133.7997,666.4034 1162.57,696.04 1187.37,721.58 " fill="none" id="WinCondition-backto-UpwardDiagonalWinCondition" style="stroke:#181818;stroke-width:1.0;"/><polygon fill="none" points="1083.35,614.45,1091.5852,631.5433,1100.1941,623.1836,1083.35,614.45" style="stroke:#181818;stroke-width:1.0;"/></g><!--reverse link WinCondition to DownwardDiagonalWinCondition--><g id="link_WinCondition_DownwardDiagonalWinCondition"><path codeLine="86" d="M1142.4905,585.2424 C1208.7105,613.1124 1273.72,641.17 1346,674.22 C1379.24,689.42 1416.27,707.48 1444.59,721.55 " fill="none" id="WinCondition-backto-DownwardDiagonalWinCondition" style="stroke:#181818;stroke-width:1.0;"/><polygon fill="none" points="1125.9,578.26,1140.163,590.7726,1144.818,579.7123,1125.9,578.26" style="stroke:#181818;stroke-width:1.0;"/></g><!--link WinCondition to IGameBoard--><g id="link_WinCondition_IGameBoard"><path codeLine="88" d="M866.35,606.14 C860.55,608.99 854.75,611.7 849,614.22 C759.68,653.31 730.09,642.21 638,674.22 C624.04,679.07 609.58,684.46 595.24,690.04 " fill="none" id="WinCondition-IGameBoard" style="stroke:#181818;stroke-width:1.0;"/></g><!--reverse link IOutputViewer to OutputViewer--><g id="link_IOutputViewer_OutputViewer"><path codeLine="90" d="M588.3067,378.9461 C609.9667,416.5361 632.22,455.18 652.07,489.62 " fill="none" id="IOutputViewer-backto-OutputViewer" style="stroke:#181818;stroke-width:1.0;stroke-dasharray:7.0,7.0;"/><polygon fill="none" points="579.32,363.35,583.108,381.9417,593.5054,375.9505,579.32,363.35" style="stroke:#181818;stroke-width:1.0;"/></g><!--link IOutputViewer to IGameBoard--><g id="link_IOutputViewer_IGameBoard"><path codeLine="91" d="M525.88,363.48 C513.56,383.58 500.38,408.46 493,432.74 C468.64,512.87 464.18,609.55 464.49,673.88 " fill="none" id="IOutputViewer-IGameBoard" style="stroke:#181818;stroke-width:1.0;"/></g><!--reverse link IPlayer to Player--><g id="link_IPlayer_Player"><path codeLine="93" d="M240.5314,390.9681 C238.7114,427.7881 237.2,458.12 235.63,489.72 " fill="none" id="IPlayer-backto-Player" style="stroke:#181818;stroke-width:1.0;stroke-dasharray:7.0,7.0;"/><polygon fill="none" points="241.42,372.99,234.5387,390.6718,246.524,391.2643,241.42,372.99" style="stroke:#181818;stroke-width:1.0;"/></g><!--reverse link Player to HumanPlayer--><g id="link_Player_HumanPlayer"><path codeLine="94" d="M198.3197,571.8572 C166.9297,613.5272 124.09,670.42 92.75,712.03 " fill="none" id="Player-backto-HumanPlayer" style="stroke:#181818;stroke-width:1.0;"/><polygon fill="none" points="209.15,557.48,193.5273,568.2471,203.1121,575.4673,209.15,557.48" style="stroke:#181818;stroke-width:1.0;"/></g><!--reverse link Player to ComputerPlayer--><g id="link_Player_ComputerPlayer"><path codeLine="95" d="M234,575.48 C234,620.51 234,682.11 234,721.49 " fill="none" id="Player-backto-ComputerPlayer" style="stroke:#181818;stroke-width:1.0;"/><polygon fill="none" points="234,557.48,228,575.48,240,575.48,234,557.48" style="stroke:#181818;stroke-width:1.0;"/></g><!--SRC=[ZLHDRvmm4BtpAz3keP1q8_KQzPBD9rAogJOVbHhbu8LPOXLiP9koQPl_th4DncmWAXVCp9jXvitpf0MHChma9Popd388_mGXFekg8AyWv76OV3EdfsThpn6vv4HawBdipjRLK7RAMKOLvKm7VlU-k_2Ix5PrkG5nkxslXOPHfgoBrwggrIE51WH6ttgV1d2uhbaKM-mbA5lM1HSwJnI7hbABIAIkBc5O1ACilrD4GOJ_Ye_33UT5y1O4dq8R80EqWzYI5BeSBGk7Aynn74ebC8MrtFEVmEvVApIxe_LWJIlOgHl-2wBOzlKMa0q6arI5Wxnprd9moekwx5Xu2r8pZAkw96o0Nr26N627YNuxu2alyHD4spSsf7lUc8buBRankQxgKlzypHkF_yFLM4t6W_bJCDr6hkVFsgrPDsns163As-qraNOwcOsnhBji23Fs4wKzDezF9aucTQBqw-wrTqDm8ZilwEcv4vZWJS8os3rK5OWbhrdcIIpbnRHJimbCeavGL3z0y2MHa1cyruBHZTMcpx6lrexcknVUt82K98V8IYXk-SIpSjr5_O3YllcHX5hrToRF6Ye14XYA6kzMFvJOQTMKwLz0lrZVtXMRo8kwsDAYW6plcZW9ZuHzj0wKhaecx1gt2Z9wWk4zs_DERKCHpYT5E4-aJhIa-JdZTVxIPlHhDR3_4-6y4w6HuAG2hxYWlpdIN0oejCv748gceww7ga4QpYZ9EHi5dF66JK9mSciep6Xb47YhUVPb5Xui5k7iOEQMtPHxa74CXE_XZfr4zNFrLidNlqT7_GqDWg6eZ7TGmfuRSq-G-nuuIlHxs0UalmT_F8017j69t-ZWPff61pGE_Vl1xLetOUq4dKbpqg_-WNrlq_y3]--></g></svg>