<?xml version="1.0" encoding="us-ascii" standalone="no"?><svg xmlns="http://www.w3.org/2000/svg" xmlns:xlink="http://www.w3.org/1999/xlink" contentStyleType="text/css" height="1066px" preserveAspectRatio="none" style="width:1618px;height:1066px;background:#FFFFFF;" version="1.1" viewBox="0 0 1618 1066" width="1618px" zoomAndPan="magnify"><defs/><g><!--class GameState--><g id="elem_GameState"><rect codeLine="2" fill="#F1F1F1" height="124.2717" id="GameState" rx="2.5" ry="2.5" style="stroke:#181818;stroke-width:0.5;" width="112" x="7" y="305.68"/><ellipse cx="25.15" cy="321.68" fill="#EB937F" rx="11" ry="11" style="stroke:#181818;stroke-width:1.0;"/><path d="M28.6188,328.18 L21.3063,328.18 L21.3063,315.5081 L28.6188,315.5081 L28.6188,317.3831 L23.3531,317.3831 L23.3531,320.6487 L28.3063,320.6487 L28.3063,322.5081 L23.3531,322.5081 L23.3531,326.305 L28.6188,326.305 L28.6188,328.18 Z " fill="#000000"/><text fill="#000000" font-family="sans-serif" font-size="14" lengthAdjust="spacing" textLength="73" x="39.85" y="327.112">GameState</text><line style="stroke:#181818;stroke-width:0.5;" x1="8" x2="118" y1="337.68" y2="337.68"/><text fill="#000000" font-family="sans-serif" font-size="14" lengthAdjust="spacing" textLength="40" x="13" y="356.6459">None,</text><text fill="#000000" font-family="sans-serif" font-size="14" lengthAdjust="spacing" textLength="77" x="13" y="375.7139">InProgress,</text><text fill="#000000" font-family="sans-serif" font-size="14" lengthAdjust="spacing" textLength="100" x="13" y="394.7818">PlayerHasWon,</text><text fill="#000000" font-family="sans-serif" font-size="14" lengthAdjust="spacing" textLength="35" x="13" y="413.8497">Draw</text><line style="stroke:#181818;stroke-width:0.5;" x1="8" x2="118" y1="421.9517" y2="421.9517"/></g><!--class GameEngine--><g id="elem_GameEngine"><rect codeLine="9" fill="#F1F1F1" height="238.6792" id="GameEngine" rx="2.5" ry="2.5" style="stroke:#181818;stroke-width:0.5;" width="313" x="228.5" y="7"/><ellipse cx="337.75" cy="23" fill="#ADD1B2" rx="11" ry="11" style="stroke:#181818;stroke-width:1.0;"/><path d="M337.8594,18.5313 Q336.9375,18.5313 336.2031,18.8438 Q335.4844,19.1563 334.9844,19.75 Q334.4844,20.3281 334.2031,21.2031 Q333.9375,22.0781 333.9375,23.1719 Q333.9375,24.6094 334.375,25.6563 Q334.8281,26.7031 335.6719,27.25 Q336.5313,27.7969 337.8438,27.7969 Q338.625,27.7969 339.3125,27.6719 Q340.0156,27.5313 341.0156,27.2188 L341.0156,29.0938 Q340.1563,29.4219 339.3906,29.5469 Q338.6406,29.6719 337.625,29.6719 Q335.7031,29.6719 334.3906,28.875 Q333.0938,28.0625 332.4375,26.5938 Q331.7813,25.1094 331.7813,23.1406 Q331.7813,21.7188 332.1719,20.5469 Q332.5781,19.3594 333.3594,18.4844 Q334.1406,17.6094 335.2813,17.1406 Q336.4219,16.6563 337.8906,16.6563 Q338.8438,16.6563 339.7344,16.8594 Q340.6406,17.0469 341.5781,17.5156 L340.75,19.2969 Q339.9688,18.9219 339.3125,18.7344 Q338.6563,18.5313 337.8594,18.5313 Z " fill="#000000"/><text fill="#000000" font-family="sans-serif" font-size="14" lengthAdjust="spacing" textLength="86" x="358.25" y="28.432">GameEngine</text><line style="stroke:#181818;stroke-width:0.5;" x1="229.5" x2="540.5" y1="39" y2="39"/><rect fill="none" height="6" style="stroke:#C82930;stroke-width:1.0;" width="6" x="236.5" y="51.034"/><text fill="#000000" font-family="sans-serif" font-size="14" lengthAdjust="spacing" textLength="113" x="248.5" y="57.9659">players: IPlayer[]</text><rect fill="none" height="6" style="stroke:#C82930;stroke-width:1.0;" width="6" x="236.5" y="70.1019"/><text fill="#000000" font-family="sans-serif" font-size="14" lengthAdjust="spacing" textLength="170" x="248.5" y="77.0339">gameBoard: IGameBoard</text><rect fill="none" height="6" style="stroke:#C82930;stroke-width:1.0;" width="6" x="236.5" y="89.1698"/><text fill="#000000" font-family="sans-serif" font-size="14" lengthAdjust="spacing" textLength="210" x="248.5" y="96.1018">winConditions: IWinCondition[]</text><rect fill="none" height="6" style="stroke:#C82930;stroke-width:1.0;" width="6" x="236.5" y="108.2377"/><text fill="#000000" font-family="sans-serif" font-size="14" lengthAdjust="spacing" textLength="165" x="248.5" y="115.1697">maxNumberOfTurns: int</text><rect fill="none" height="6" style="stroke:#C82930;stroke-width:1.0;" width="6" x="236.5" y="127.3056"/><text fill="#000000" font-family="sans-serif" font-size="14" lengthAdjust="spacing" textLength="196" x="248.5" y="134.2376">outputViewer: IOutputViewer</text><line style="stroke:#181818;stroke-width:0.5;" x1="229.5" x2="540.5" y1="142.3396" y2="142.3396"/><ellipse cx="239.5" cy="157.3735" fill="#84BE84" rx="3" ry="3" style="stroke:#038048;stroke-width:1.0;"/><text fill="#000000" font-family="sans-serif" font-size="14" lengthAdjust="spacing" textLength="35" x="248.5" y="161.3055">Run()</text><rect fill="#F24D5C" height="6" style="stroke:#C82930;stroke-width:1.0;" width="6" x="236.5" y="173.4415"/><text fill="#000000" font-family="sans-serif" font-size="14" lengthAdjust="spacing" textLength="183" x="248.5" y="180.3734">GetPlayerForTurn() : IPlayer</text><rect fill="#F24D5C" height="6" style="stroke:#C82930;stroke-width:1.0;" width="6" x="236.5" y="192.5094"/><text fill="#000000" font-family="sans-serif" font-size="14" lengthAdjust="spacing" textLength="159" x="248.5" y="199.4414">HasPlayerWon(int): bool</text><rect fill="#F24D5C" height="6" style="stroke:#C82930;stroke-width:1.0;" width="6" x="236.5" y="211.5773"/><text fill="#000000" font-family="sans-serif" font-size="14" lengthAdjust="spacing" textLength="151" x="248.5" y="218.5093">IsColumnFull(int): bool</text><rect fill="#F24D5C" height="6" style="stroke:#C82930;stroke-width:1.0;" width="6" x="236.5" y="230.6452"/><text fill="#000000" font-family="sans-serif" font-size="14" lengthAdjust="spacing" textLength="287" x="248.5" y="237.5772">GetUpdatedGameState(int, int): GameState</text></g><!--class IPlayer--><g id="elem_IPlayer"><rect codeLine="23" fill="#F1F1F1" height="105.2038" id="IPlayer" rx="2.5" ry="2.5" style="stroke:#181818;stroke-width:0.5;" width="178" x="154" y="315.22"/><ellipse cx="216.25" cy="331.22" fill="#B4A7E5" rx="11" ry="11" style="stroke:#181818;stroke-width:1.0;"/><path d="M218.3438,337.72 L213.4375,337.72 L213.4375,336.345 L214.8594,336.0325 L214.8594,326.7512 L213.4375,326.4075 L213.4375,325.0481 L218.3438,325.0481 L218.3438,326.4075 L216.9219,326.7512 L216.9219,336.0325 L218.3438,336.345 L218.3438,337.72 Z " fill="#000000"/><text fill="#000000" font-family="sans-serif" font-size="14" font-style="italic" lengthAdjust="spacing" textLength="45" x="236.75" y="336.652">IPlayer</text><line style="stroke:#181818;stroke-width:0.5;" x1="155" x2="331" y1="347.22" y2="347.22"/><ellipse cx="165" cy="362.254" fill="none" rx="3" ry="3" style="stroke:#038048;stroke-width:1.0;"/><text fill="#000000" font-family="sans-serif" font-size="14" lengthAdjust="spacing" textLength="88" x="174" y="366.1859">Name: string</text><ellipse cx="165" cy="381.3219" fill="none" rx="3" ry="3" style="stroke:#038048;stroke-width:1.0;"/><text fill="#000000" font-family="sans-serif" font-size="14" lengthAdjust="spacing" textLength="152" x="174" y="385.2539">TokenType: TokenType</text><line style="stroke:#181818;stroke-width:0.5;" x1="155" x2="331" y1="393.3558" y2="393.3558"/><ellipse cx="165" cy="408.3898" fill="#84BE84" rx="3" ry="3" style="stroke:#038048;stroke-width:1.0;"/><text fill="#000000" font-family="sans-serif" font-size="14" lengthAdjust="spacing" textLength="142" x="174" y="412.3218">GetNextMove(int): int</text></g><!--class HumanPlayer--><g id="elem_HumanPlayer"><rect codeLine="28" fill="#F1F1F1" height="48" id="HumanPlayer" rx="2.5" ry="2.5" style="stroke:#181818;stroke-width:0.5;" width="122" x="25" y="556.69"/><ellipse cx="40" cy="572.69" fill="#ADD1B2" rx="11" ry="11" style="stroke:#181818;stroke-width:1.0;"/><path d="M40.1094,568.2212 Q39.1875,568.2212 38.4531,568.5337 Q37.7344,568.8462 37.2344,569.44 Q36.7344,570.0181 36.4531,570.8931 Q36.1875,571.7681 36.1875,572.8619 Q36.1875,574.2994 36.625,575.3462 Q37.0781,576.3931 37.9219,576.94 Q38.7813,577.4869 40.0938,577.4869 Q40.875,577.4869 41.5625,577.3619 Q42.2656,577.2212 43.2656,576.9087 L43.2656,578.7837 Q42.4063,579.1119 41.6406,579.2369 Q40.8906,579.3619 39.875,579.3619 Q37.9531,579.3619 36.6406,578.565 Q35.3438,577.7525 34.6875,576.2837 Q34.0313,574.7994 34.0313,572.8306 Q34.0313,571.4087 34.4219,570.2369 Q34.8281,569.0494 35.6094,568.1744 Q36.3906,567.2994 37.5313,566.8306 Q38.6719,566.3462 40.1406,566.3462 Q41.0938,566.3462 41.9844,566.5494 Q42.8906,566.7369 43.8281,567.2056 L43,568.9869 Q42.2188,568.6119 41.5625,568.4244 Q40.9063,568.2212 40.1094,568.2212 Z " fill="#000000"/><text fill="#000000" font-family="sans-serif" font-size="14" lengthAdjust="spacing" textLength="90" x="54" y="578.122">HumanPlayer</text><line style="stroke:#181818;stroke-width:0.5;" x1="26" x2="146" y1="588.69" y2="588.69"/><line style="stroke:#181818;stroke-width:0.5;" x1="26" x2="146" y1="596.69" y2="596.69"/></g><!--class ComputerPlayer--><g id="elem_ComputerPlayer"><rect codeLine="29" fill="#F1F1F1" height="48" id="ComputerPlayer" rx="2.5" ry="2.5" style="stroke:#181818;stroke-width:0.5;" width="140" x="182" y="556.69"/><ellipse cx="197" cy="572.69" fill="#ADD1B2" rx="11" ry="11" style="stroke:#181818;stroke-width:1.0;"/><path d="M197.1094,568.2212 Q196.1875,568.2212 195.4531,568.5337 Q194.7344,568.8462 194.2344,569.44 Q193.7344,570.0181 193.4531,570.8931 Q193.1875,571.7681 193.1875,572.8619 Q193.1875,574.2994 193.625,575.3462 Q194.0781,576.3931 194.9219,576.94 Q195.7813,577.4869 197.0938,577.4869 Q197.875,577.4869 198.5625,577.3619 Q199.2656,577.2212 200.2656,576.9087 L200.2656,578.7837 Q199.4063,579.1119 198.6406,579.2369 Q197.8906,579.3619 196.875,579.3619 Q194.9531,579.3619 193.6406,578.565 Q192.3438,577.7525 191.6875,576.2837 Q191.0313,574.7994 191.0313,572.8306 Q191.0313,571.4087 191.4219,570.2369 Q191.8281,569.0494 192.6094,568.1744 Q193.3906,567.2994 194.5313,566.8306 Q195.6719,566.3462 197.1406,566.3462 Q198.0938,566.3462 198.9844,566.5494 Q199.8906,566.7369 200.8281,567.2056 L200,568.9869 Q199.2188,568.6119 198.5625,568.4244 Q197.9063,568.2212 197.1094,568.2212 Z " fill="#000000"/><text fill="#000000" font-family="sans-serif" font-size="14" lengthAdjust="spacing" textLength="108" x="211" y="578.122">ComputerPlayer</text><line style="stroke:#181818;stroke-width:0.5;" x1="183" x2="321" y1="588.69" y2="588.69"/><line style="stroke:#181818;stroke-width:0.5;" x1="183" x2="321" y1="596.69" y2="596.69"/></g><!--class IGameBoard--><g id="elem_IGameBoard"><rect codeLine="32" fill="#F1F1F1" height="143.3396" id="IGameBoard" rx="2.5" ry="2.5" style="stroke:#181818;stroke-width:0.5;" width="256" x="328" y="731.43"/><ellipse cx="412.25" cy="747.43" fill="#B4A7E5" rx="11" ry="11" style="stroke:#181818;stroke-width:1.0;"/><path d="M414.3438,753.93 L409.4375,753.93 L409.4375,752.555 L410.8594,752.2425 L410.8594,742.9613 L409.4375,742.6175 L409.4375,741.2581 L414.3438,741.2581 L414.3438,742.6175 L412.9219,742.9613 L412.9219,752.2425 L414.3438,752.555 L414.3438,753.93 Z " fill="#000000"/><text fill="#000000" font-family="sans-serif" font-size="14" font-style="italic" lengthAdjust="spacing" textLength="79" x="432.75" y="752.862">IGameBoard</text><line style="stroke:#181818;stroke-width:0.5;" x1="329" x2="583" y1="763.43" y2="763.43"/><ellipse cx="339" cy="778.464" fill="none" rx="3" ry="3" style="stroke:#038048;stroke-width:1.0;"/><text fill="#000000" font-family="sans-serif" font-size="14" lengthAdjust="spacing" textLength="124" x="348" y="782.3959">NumerOfRows: int</text><ellipse cx="339" cy="797.5319" fill="none" rx="3" ry="3" style="stroke:#038048;stroke-width:1.0;"/><text fill="#000000" font-family="sans-serif" font-size="14" lengthAdjust="spacing" textLength="157" x="348" y="801.4639">NumberOfColumns: int</text><line style="stroke:#181818;stroke-width:0.5;" x1="329" x2="583" y1="809.5658" y2="809.5658"/><ellipse cx="339" cy="824.5998" fill="#84BE84" rx="3" ry="3" style="stroke:#038048;stroke-width:1.0;"/><text fill="#000000" font-family="sans-serif" font-size="14" lengthAdjust="spacing" textLength="181" x="348" y="828.5318">PlaceToken(TokenType, int)</text><ellipse cx="339" cy="843.6677" fill="#84BE84" rx="3" ry="3" style="stroke:#038048;stroke-width:1.0;"/><text fill="#000000" font-family="sans-serif" font-size="14" lengthAdjust="spacing" textLength="230" x="348" y="847.5997">GetRowOfLastPlayedToken(int): int</text><ellipse cx="339" cy="862.7356" fill="#84BE84" rx="3" ry="3" style="stroke:#038048;stroke-width:1.0;"/><text fill="#000000" font-family="sans-serif" font-size="14" lengthAdjust="spacing" textLength="209" x="348" y="866.6676">GetTokenAt(int, int): TokenType</text></g><!--class GameBoard--><g id="elem_GameBoard"><rect codeLine="40" fill="#F1F1F1" height="124.2717" id="GameBoard" rx="2.5" ry="2.5" style="stroke:#181818;stroke-width:0.5;" width="292" x="310" y="934.77"/><ellipse cx="412.25" cy="950.77" fill="#ADD1B2" rx="11" ry="11" style="stroke:#181818;stroke-width:1.0;"/><path d="M412.3594,946.3013 Q411.4375,946.3013 410.7031,946.6138 Q409.9844,946.9263 409.4844,947.52 Q408.9844,948.0981 408.7031,948.9731 Q408.4375,949.8481 408.4375,950.9419 Q408.4375,952.3794 408.875,953.4263 Q409.3281,954.4731 410.1719,955.02 Q411.0313,955.5669 412.3438,955.5669 Q413.125,955.5669 413.8125,955.4419 Q414.5156,955.3013 415.5156,954.9888 L415.5156,956.8638 Q414.6563,957.1919 413.8906,957.3169 Q413.1406,957.4419 412.125,957.4419 Q410.2031,957.4419 408.8906,956.645 Q407.5938,955.8325 406.9375,954.3638 Q406.2813,952.8794 406.2813,950.9106 Q406.2813,949.4888 406.6719,948.3169 Q407.0781,947.1294 407.8594,946.2544 Q408.6406,945.3794 409.7813,944.9106 Q410.9219,944.4263 412.3906,944.4263 Q413.3438,944.4263 414.2344,944.6294 Q415.1406,944.8169 416.0781,945.2856 L415.25,947.0669 Q414.4688,946.6919 413.8125,946.5044 Q413.1563,946.3013 412.3594,946.3013 Z " fill="#000000"/><text fill="#000000" font-family="sans-serif" font-size="14" lengthAdjust="spacing" textLength="79" x="432.75" y="956.202">GameBoard</text><line style="stroke:#181818;stroke-width:0.5;" x1="311" x2="601" y1="966.77" y2="966.77"/><rect fill="none" height="6" style="stroke:#C82930;stroke-width:1.0;" width="6" x="318" y="978.804"/><text fill="#000000" font-family="sans-serif" font-size="14" lengthAdjust="spacing" textLength="221" x="330" y="985.7359">gameBoardMatrix: TokenType[][]</text><rect fill="none" height="6" style="stroke:#C82930;stroke-width:1.0;" width="6" x="318" y="997.8719"/><text fill="#000000" font-family="sans-serif" font-size="14" lengthAdjust="spacing" textLength="175" x="330" y="1004.8039">rowIndexUpperBound: int</text><rect fill="none" height="6" style="stroke:#C82930;stroke-width:1.0;" width="6" x="318" y="1016.9398"/><text fill="#000000" font-family="sans-serif" font-size="14" lengthAdjust="spacing" textLength="169" x="330" y="1023.8718">colIndexUpperBound: int</text><line style="stroke:#181818;stroke-width:0.5;" x1="311" x2="601" y1="1031.9738" y2="1031.9738"/><rect fill="#F24D5C" height="6" style="stroke:#C82930;stroke-width:1.0;" width="6" x="318" y="1044.0077"/><text fill="#000000" font-family="sans-serif" font-size="14" lengthAdjust="spacing" textLength="266" x="330" y="1050.9397">CompensateForZeroBasedIndex(int): int</text></g><!--class IOutputViewer--><g id="elem_IOutputViewer"><rect codeLine="48" fill="#F1F1F1" height="86.1358" id="IOutputViewer" rx="2.5" ry="2.5" style="stroke:#181818;stroke-width:0.5;" width="229" x="438.5" y="324.75"/><ellipse cx="503.25" cy="340.75" fill="#B4A7E5" rx="11" ry="11" style="stroke:#181818;stroke-width:1.0;"/><path d="M505.3438,347.25 L500.4375,347.25 L500.4375,345.875 L501.8594,345.5625 L501.8594,336.2813 L500.4375,335.9375 L500.4375,334.5781 L505.3438,334.5781 L505.3438,335.9375 L503.9219,336.2813 L503.9219,345.5625 L505.3438,345.875 L505.3438,347.25 Z " fill="#000000"/><text fill="#000000" font-family="sans-serif" font-size="14" font-style="italic" lengthAdjust="spacing" textLength="91" x="523.75" y="346.182">IOutputViewer</text><line style="stroke:#181818;stroke-width:0.5;" x1="439.5" x2="666.5" y1="356.75" y2="356.75"/><line style="stroke:#181818;stroke-width:0.5;" x1="439.5" x2="666.5" y1="364.75" y2="364.75"/><ellipse cx="449.5" cy="379.784" fill="#84BE84" rx="3" ry="3" style="stroke:#038048;stroke-width:1.0;"/><text fill="#000000" font-family="sans-serif" font-size="14" lengthAdjust="spacing" textLength="144" x="458.5" y="383.7159">ShowMessage(string)</text><ellipse cx="449.5" cy="398.8519" fill="#84BE84" rx="3" ry="3" style="stroke:#038048;stroke-width:1.0;"/><text fill="#000000" font-family="sans-serif" font-size="14" lengthAdjust="spacing" textLength="203" x="458.5" y="402.7839">PrintGameBoard(IGameBoard)</text></g><!--class OutputViewer--><g id="elem_OutputViewer"><rect codeLine="53" fill="#F1F1F1" height="67.0679" id="OutputViewer" rx="2.5" ry="2.5" style="stroke:#181818;stroke-width:0.5;" width="321" x="508.5" y="547.16"/><ellipse cx="618.25" cy="563.16" fill="#ADD1B2" rx="11" ry="11" style="stroke:#181818;stroke-width:1.0;"/><path d="M618.3594,558.6913 Q617.4375,558.6913 616.7031,559.0038 Q615.9844,559.3163 615.4844,559.91 Q614.9844,560.4881 614.7031,561.3631 Q614.4375,562.2381 614.4375,563.3319 Q614.4375,564.7694 614.875,565.8163 Q615.3281,566.8631 616.1719,567.41 Q617.0313,567.9569 618.3438,567.9569 Q619.125,567.9569 619.8125,567.8319 Q620.5156,567.6913 621.5156,567.3788 L621.5156,569.2538 Q620.6563,569.5819 619.8906,569.7069 Q619.1406,569.8319 618.125,569.8319 Q616.2031,569.8319 614.8906,569.035 Q613.5938,568.2225 612.9375,566.7538 Q612.2813,565.2694 612.2813,563.3006 Q612.2813,561.8788 612.6719,560.7069 Q613.0781,559.5194 613.8594,558.6444 Q614.6406,557.7694 615.7813,557.3006 Q616.9219,556.8163 618.3906,556.8163 Q619.3438,556.8163 620.2344,557.0194 Q621.1406,557.2069 622.0781,557.6756 L621.25,559.4569 Q620.4688,559.0819 619.8125,558.8944 Q619.1563,558.6913 618.3594,558.6913 Z " fill="#000000"/><text fill="#000000" font-family="sans-serif" font-size="14" lengthAdjust="spacing" textLength="93" x="638.75" y="568.592">OutputViewer</text><line style="stroke:#181818;stroke-width:0.5;" x1="509.5" x2="828.5" y1="579.16" y2="579.16"/><line style="stroke:#181818;stroke-width:0.5;" x1="509.5" x2="828.5" y1="587.16" y2="587.16"/><rect fill="#F24D5C" height="6" style="stroke:#C82930;stroke-width:1.0;" width="6" x="516.5" y="599.194"/><text fill="#000000" font-family="sans-serif" font-size="14" lengthAdjust="spacing" textLength="295" x="528.5" y="606.1259">GetStringRepresentation(TokenType): string</text></g><!--class IWinCondition--><g id="elem_IWinCondition"><rect codeLine="58" fill="#F1F1F1" height="67.0679" id="IWinCondition" rx="2.5" ry="2.5" style="stroke:#181818;stroke-width:0.5;" width="155" x="809.5" y="334.28"/><ellipse cx="839.35" cy="350.28" fill="#B4A7E5" rx="11" ry="11" style="stroke:#181818;stroke-width:1.0;"/><path d="M841.4438,356.78 L836.5375,356.78 L836.5375,355.405 L837.9594,355.0925 L837.9594,345.8113 L836.5375,345.4675 L836.5375,344.1081 L841.4438,344.1081 L841.4438,345.4675 L840.0219,345.8113 L840.0219,355.0925 L841.4438,355.405 L841.4438,356.78 Z " fill="#000000"/><text fill="#000000" font-family="sans-serif" font-size="14" font-style="italic" lengthAdjust="spacing" textLength="90" x="856.65" y="355.712">IWinCondition</text><line style="stroke:#181818;stroke-width:0.5;" x1="810.5" x2="963.5" y1="366.28" y2="366.28"/><line style="stroke:#181818;stroke-width:0.5;" x1="810.5" x2="963.5" y1="374.28" y2="374.28"/><ellipse cx="820.5" cy="389.314" fill="#84BE84" rx="3" ry="3" style="stroke:#038048;stroke-width:1.0;"/><text fill="#000000" font-family="sans-serif" font-size="14" lengthAdjust="spacing" textLength="129" x="829.5" y="393.2459">IsFulfilled(int): bool</text></g><!--class WinCondition--><g id="elem_WinCondition"><rect codeLine="62" fill="#F1F1F1" height="181.4754" id="WinCondition" rx="2.5" ry="2.5" style="stroke:#181818;stroke-width:0.5;" width="259" x="864.5" y="489.95"/><ellipse cx="947.25" cy="505.95" fill="#A9DCDF" rx="11" ry="11" style="stroke:#181818;stroke-width:1.0;"/><path d="M950.5938,511.2 L949.125,507.45 L944.6875,507.45 L943.25,511.2 L941.125,511.2 L946.0781,498.4812 L947.8281,498.4812 L952.75,511.2 L950.5938,511.2 Z M947.25,502.2469 Q947.2031,502.0906 947.0781,501.7312 Q946.9531,501.3719 946.8438,500.9969 Q946.7344,500.6062 946.9375,500.5437 Q947.0938,500.7312 947,501.0906 Q946.9063,501.4344 946.8125,501.7312 Q946.7188,502.0125 946.6406,502.2469 L945.4063,505.5594 L948.4844,505.5594 L947.25,502.2469 Z " fill="#000000"/><text fill="#000000" font-family="sans-serif" font-size="14" font-style="italic" lengthAdjust="spacing" textLength="85" x="967.75" y="511.382">WinCondition</text><line style="stroke:#181818;stroke-width:0.5;" x1="865.5" x2="1122.5" y1="521.95" y2="521.95"/><rect fill="none" height="6" style="stroke:#C82930;stroke-width:1.0;" width="6" x="872.5" y="533.984"/><text fill="#000000" font-family="sans-serif" font-size="14" lengthAdjust="spacing" textLength="170" x="884.5" y="540.9159">gameBoard: IGameBoard</text><rect fill="none" height="6" style="stroke:#C82930;stroke-width:1.0;" width="6" x="872.5" y="553.0519"/><text fill="#000000" font-family="sans-serif" font-size="14" lengthAdjust="spacing" textLength="168" x="884.5" y="559.9839">tokensInLineForAWin: int</text><polygon fill="none" points="875.5,570.1198,879.5,574.1198,875.5,578.1198,871.5,574.1198" style="stroke:#B38D22;stroke-width:1.0;"/><text fill="#000000" font-family="sans-serif" font-size="14" lengthAdjust="spacing" textLength="133" x="884.5" y="579.0518">NumberOfRows: int</text><polygon fill="none" points="875.5,589.1877,879.5,593.1877,875.5,597.1877,871.5,593.1877" style="stroke:#B38D22;stroke-width:1.0;"/><text fill="#000000" font-family="sans-serif" font-size="14" lengthAdjust="spacing" textLength="157" x="884.5" y="598.1197">NumberOfColumns: int</text><line style="stroke:#181818;stroke-width:0.5;" x1="865.5" x2="1122.5" y1="606.2217" y2="606.2217"/><polygon fill="#FFFF44" points="875.5,616.2556,879.5,620.2556,875.5,624.2556,871.5,620.2556" style="stroke:#B38D22;stroke-width:1.0;"/><text fill="#000000" font-family="sans-serif" font-size="14" lengthAdjust="spacing" textLength="233" x="884.5" y="625.1876">IsLineBigEnoughForAWin(int): bool</text><polygon fill="#FFFF44" points="875.5,635.3235,879.5,639.3235,875.5,643.3235,871.5,639.3235" style="stroke:#B38D22;stroke-width:1.0;"/><text fill="#000000" font-family="sans-serif" font-size="14" lengthAdjust="spacing" textLength="230" x="884.5" y="644.2555">GetRowOfLastPlayedToken(int): int</text><polygon fill="#FFFF44" points="875.5,654.3915,879.5,658.3915,875.5,662.3915,871.5,658.3915" style="stroke:#B38D22;stroke-width:1.0;"/><text fill="#000000" font-family="sans-serif" font-size="14" lengthAdjust="spacing" textLength="191" x="884.5" y="663.3234">GetToken(int,int): TokenType</text></g><!--class HorizontalWinCondition--><g id="elem_HorizontalWinCondition"><rect codeLine="72" fill="#F1F1F1" height="48" id="HorizontalWinCondition" rx="2.5" ry="2.5" style="stroke:#181818;stroke-width:0.5;" width="192" x="649" y="779.1"/><ellipse cx="664" cy="795.1" fill="#ADD1B2" rx="11" ry="11" style="stroke:#181818;stroke-width:1.0;"/><path d="M664.1094,790.6312 Q663.1875,790.6312 662.4531,790.9437 Q661.7344,791.2562 661.2344,791.85 Q660.7344,792.4281 660.4531,793.3031 Q660.1875,794.1781 660.1875,795.2719 Q660.1875,796.7094 660.625,797.7562 Q661.0781,798.8031 661.9219,799.35 Q662.7813,799.8969 664.0938,799.8969 Q664.875,799.8969 665.5625,799.7719 Q666.2656,799.6312 667.2656,799.3187 L667.2656,801.1937 Q666.4063,801.5219 665.6406,801.6469 Q664.8906,801.7719 663.875,801.7719 Q661.9531,801.7719 660.6406,800.975 Q659.3438,800.1625 658.6875,798.6937 Q658.0313,797.2094 658.0313,795.2406 Q658.0313,793.8187 658.4219,792.6469 Q658.8281,791.4594 659.6094,790.5844 Q660.3906,789.7094 661.5313,789.2406 Q662.6719,788.7562 664.1406,788.7562 Q665.0938,788.7562 665.9844,788.9594 Q666.8906,789.1469 667.8281,789.6156 L667,791.3969 Q666.2188,791.0219 665.5625,790.8344 Q664.9063,790.6312 664.1094,790.6312 Z " fill="#000000"/><text fill="#000000" font-family="sans-serif" font-size="14" lengthAdjust="spacing" textLength="160" x="678" y="800.532">HorizontalWinCondition</text><line style="stroke:#181818;stroke-width:0.5;" x1="650" x2="840" y1="811.1" y2="811.1"/><line style="stroke:#181818;stroke-width:0.5;" x1="650" x2="840" y1="819.1" y2="819.1"/></g><!--class VerticalWinCondition--><g id="elem_VerticalWinCondition"><rect codeLine="73" fill="#F1F1F1" height="48" id="VerticalWinCondition" rx="2.5" ry="2.5" style="stroke:#181818;stroke-width:0.5;" width="173" x="876.5" y="779.1"/><ellipse cx="891.5" cy="795.1" fill="#ADD1B2" rx="11" ry="11" style="stroke:#181818;stroke-width:1.0;"/><path d="M891.6094,790.6312 Q890.6875,790.6312 889.9531,790.9437 Q889.2344,791.2562 888.7344,791.85 Q888.2344,792.4281 887.9531,793.3031 Q887.6875,794.1781 887.6875,795.2719 Q887.6875,796.7094 888.125,797.7562 Q888.5781,798.8031 889.4219,799.35 Q890.2813,799.8969 891.5938,799.8969 Q892.375,799.8969 893.0625,799.7719 Q893.7656,799.6312 894.7656,799.3187 L894.7656,801.1937 Q893.9063,801.5219 893.1406,801.6469 Q892.3906,801.7719 891.375,801.7719 Q889.4531,801.7719 888.1406,800.975 Q886.8438,800.1625 886.1875,798.6937 Q885.5313,797.2094 885.5313,795.2406 Q885.5313,793.8187 885.9219,792.6469 Q886.3281,791.4594 887.1094,790.5844 Q887.8906,789.7094 889.0313,789.2406 Q890.1719,788.7562 891.6406,788.7562 Q892.5938,788.7562 893.4844,788.9594 Q894.3906,789.1469 895.3281,789.6156 L894.5,791.3969 Q893.7188,791.0219 893.0625,790.8344 Q892.4063,790.6312 891.6094,790.6312 Z " fill="#000000"/><text fill="#000000" font-family="sans-serif" font-size="14" lengthAdjust="spacing" textLength="141" x="905.5" y="800.532">VerticalWinCondition</text><line style="stroke:#181818;stroke-width:0.5;" x1="877.5" x2="1048.5" y1="811.1" y2="811.1"/><line style="stroke:#181818;stroke-width:0.5;" x1="877.5" x2="1048.5" y1="819.1" y2="819.1"/></g><!--class UpwardDiagonalWinCondition--><g id="elem_UpwardDiagonalWinCondition"><rect codeLine="74" fill="#F1F1F1" height="48" id="UpwardDiagonalWinCondition" rx="2.5" ry="2.5" style="stroke:#181818;stroke-width:0.5;" width="236" x="1085" y="779.1"/><ellipse cx="1100" cy="795.1" fill="#ADD1B2" rx="11" ry="11" style="stroke:#181818;stroke-width:1.0;"/><path d="M1100.1094,790.6312 Q1099.1875,790.6312 1098.4531,790.9437 Q1097.7344,791.2562 1097.2344,791.85 Q1096.7344,792.4281 1096.4531,793.3031 Q1096.1875,794.1781 1096.1875,795.2719 Q1096.1875,796.7094 1096.625,797.7562 Q1097.0781,798.8031 1097.9219,799.35 Q1098.7813,799.8969 1100.0938,799.8969 Q1100.875,799.8969 1101.5625,799.7719 Q1102.2656,799.6312 1103.2656,799.3187 L1103.2656,801.1937 Q1102.4063,801.5219 1101.6406,801.6469 Q1100.8906,801.7719 1099.875,801.7719 Q1097.9531,801.7719 1096.6406,800.975 Q1095.3438,800.1625 1094.6875,798.6937 Q1094.0313,797.2094 1094.0313,795.2406 Q1094.0313,793.8187 1094.4219,792.6469 Q1094.8281,791.4594 1095.6094,790.5844 Q1096.3906,789.7094 1097.5313,789.2406 Q1098.6719,788.7562 1100.1406,788.7562 Q1101.0938,788.7562 1101.9844,788.9594 Q1102.8906,789.1469 1103.8281,789.6156 L1103,791.3969 Q1102.2188,791.0219 1101.5625,790.8344 Q1100.9063,790.6312 1100.1094,790.6312 Z " fill="#000000"/><text fill="#000000" font-family="sans-serif" font-size="14" lengthAdjust="spacing" textLength="204" x="1114" y="800.532">UpwardDiagonalWinCondition</text><line style="stroke:#181818;stroke-width:0.5;" x1="1086" x2="1320" y1="811.1" y2="811.1"/><line style="stroke:#181818;stroke-width:0.5;" x1="1086" x2="1320" y1="819.1" y2="819.1"/></g><!--class DownwardDiagonalWinCondition--><g id="elem_DownwardDiagonalWinCondition"><rect codeLine="75" fill="#F1F1F1" height="48" id="DownwardDiagonalWinCondition" rx="2.5" ry="2.5" style="stroke:#181818;stroke-width:0.5;" width="255" x="1356.5" y="779.1"/><ellipse cx="1371.5" cy="795.1" fill="#ADD1B2" rx="11" ry="11" style="stroke:#181818;stroke-width:1.0;"/><path d="M1371.6094,790.6312 Q1370.6875,790.6312 1369.9531,790.9437 Q1369.2344,791.2562 1368.7344,791.85 Q1368.2344,792.4281 1367.9531,793.3031 Q1367.6875,794.1781 1367.6875,795.2719 Q1367.6875,796.7094 1368.125,797.7562 Q1368.5781,798.8031 1369.4219,799.35 Q1370.2813,799.8969 1371.5938,799.8969 Q1372.375,799.8969 1373.0625,799.7719 Q1373.7656,799.6312 1374.7656,799.3187 L1374.7656,801.1937 Q1373.9063,801.5219 1373.1406,801.6469 Q1372.3906,801.7719 1371.375,801.7719 Q1369.4531,801.7719 1368.1406,800.975 Q1366.8438,800.1625 1366.1875,798.6937 Q1365.5313,797.2094 1365.5313,795.2406 Q1365.5313,793.8187 1365.9219,792.6469 Q1366.3281,791.4594 1367.1094,790.5844 Q1367.8906,789.7094 1369.0313,789.2406 Q1370.1719,788.7562 1371.6406,788.7562 Q1372.5938,788.7562 1373.4844,788.9594 Q1374.3906,789.1469 1375.3281,789.6156 L1374.5,791.3969 Q1373.7188,791.0219 1373.0625,790.8344 Q1372.4063,790.6312 1371.6094,790.6312 Z " fill="#000000"/><text fill="#000000" font-family="sans-serif" font-size="14" lengthAdjust="spacing" textLength="223" x="1385.5" y="800.532">DownwardDiagonalWinCondition</text><line style="stroke:#181818;stroke-width:0.5;" x1="1357.5" x2="1610.5" y1="811.1" y2="811.1"/><line style="stroke:#181818;stroke-width:0.5;" x1="1357.5" x2="1610.5" y1="819.1" y2="819.1"/></g><!--link GameEngine to GameState--><g id="link_GameEngine_GameState"><path codeLine="79" d="M228.05,237.79 C197.58,259.91 166.08,283.25 137,305.68 C131.19,310.16 125.2,314.9 119.25,319.69 " fill="none" id="GameEngine-GameState" style="stroke:#181818;stroke-width:1.0;"/></g><!--reverse link GameEngine to IPlayer--><g id="link_GameEngine_IPlayer"><path codeLine="80" d="M308.5019,256.3532 C294.1419,280.5832 285.86,294.54 273.78,314.92 " fill="none" id="GameEngine-backto-IPlayer" style="stroke:#181818;stroke-width:1.0;"/><polygon fill="#181818" points="314.62,246.03,308.1199,249.1522,308.5019,256.3532,315.002,253.231,314.62,246.03" style="stroke:#181818;stroke-width:1.0;"/><text fill="#000000" font-family="sans-serif" font-size="13" lengthAdjust="spacing" textLength="7" x="303.1179" y="267.7601">1</text><text fill="#000000" font-family="sans-serif" font-size="13" lengthAdjust="spacing" textLength="7" x="270.6163" y="303.232">*</text></g><!--reverse link GameEngine to IWinCondition--><g id="link_GameEngine_IWinCondition"><path codeLine="81" d="M552.6007,207.2969 C645.2307,251.4869 747.07,300.06 817.93,333.87 " fill="none" id="GameEngine-backto-IWinCondition" style="stroke:#181818;stroke-width:1.0;"/><polygon fill="#181818" points="541.77,202.13,545.463,208.3237,552.6007,207.2969,548.9076,201.1032,541.77,202.13" style="stroke:#181818;stroke-width:1.0;"/><text fill="#000000" font-family="sans-serif" font-size="13" lengthAdjust="spacing" textLength="7" x="549.5331" y="202.3035">1</text><text fill="#000000" font-family="sans-serif" font-size="13" lengthAdjust="spacing" textLength="7" x="796.6428" y="322.4804">*</text></g><!--reverse link GameEngine to IOutputViewer--><g id="link_GameEngine_IOutputViewer"><path codeLine="82" d="M475.1516,255.8537 C494.8716,283.9637 507.76,302.32 523.24,324.39 " fill="none" id="GameEngine-backto-IOutputViewer" style="stroke:#181818;stroke-width:1.0;"/><polygon fill="#181818" points="468.26,246.03,468.4312,253.2391,475.1516,255.8537,474.9804,248.6446,468.26,246.03" style="stroke:#181818;stroke-width:1.0;"/><text fill="#000000" font-family="sans-serif" font-size="13" lengthAdjust="spacing" textLength="7" x="466.1204" y="267.7601">1</text><text fill="#000000" font-family="sans-serif" font-size="13" lengthAdjust="spacing" textLength="7" x="510.9392" y="313.0673">1</text></g><!--reverse link GameEngine to IGameBoard--><g id="link_GameEngine_IGameBoard"><path codeLine="84" d="M398.7455,257.9641 C413.5255,398.4541 436.41,615.89 448.54,731.2 " fill="none" id="GameEngine-backto-IGameBoard" style="stroke:#181818;stroke-width:1.0;"/><polygon fill="#181818" points="397.49,246.03,394.1397,252.4156,398.7455,257.9641,402.0958,251.5786,397.49,246.03" style="stroke:#181818;stroke-width:1.0;"/><text fill="#000000" font-family="sans-serif" font-size="13" lengthAdjust="spacing" textLength="7" x="391.0378" y="267.7601">1</text><text fill="#000000" font-family="sans-serif" font-size="13" lengthAdjust="spacing" textLength="7" x="440.4098" y="719.8422">1</text></g><!--reverse link IGameBoard to GameBoard--><g id="link_IGameBoard_GameBoard"><path codeLine="85" d="M456,893.25 C456,912.65 456,915.51 456,934.33 " fill="none" id="IGameBoard-backto-GameBoard" style="stroke:#181818;stroke-width:1.0;stroke-dasharray:7.0,7.0;"/><polygon fill="none" points="456,875.25,450,893.25,462,893.25,456,875.25" style="stroke:#181818;stroke-width:1.0;"/></g><!--reverse link IWinCondition to WinCondition--><g id="link_IWinCondition_WinCondition"><path codeLine="87" d="M911.8648,417.8219 C923.8548,441.4519 932.48,458.44 948.31,489.65 " fill="none" id="IWinCondition-backto-WinCondition" style="stroke:#181818;stroke-width:1.0;stroke-dasharray:7.0,7.0;"/><polygon fill="none" points="903.72,401.77,906.5142,420.5368,917.2154,415.1069,903.72,401.77" style="stroke:#181818;stroke-width:1.0;"/></g><!--reverse link WinCondition to HorizontalWinCondition--><g id="link_WinCondition_HorizontalWinCondition"><path codeLine="88" d="M878.8824,683.5912 C834.7824,722.6312 800.18,753.25 771.33,778.79 " fill="none" id="WinCondition-backto-HorizontalWinCondition" style="stroke:#181818;stroke-width:1.0;"/><polygon fill="none" points="892.36,671.66,874.9053,679.0987,882.8594,688.0837,892.36,671.66" style="stroke:#181818;stroke-width:1.0;"/></g><!--reverse link WinCondition to VerticalWinCondition--><g id="link_WinCondition_VerticalWinCondition"><path codeLine="89" d="M978.8434,689.4846 C973.3534,728.5246 969.87,753.25 966.28,778.79 " fill="none" id="WinCondition-backto-VerticalWinCondition" style="stroke:#181818;stroke-width:1.0;"/><polygon fill="none" points="981.35,671.66,972.9019,688.6491,984.785,690.3201,981.35,671.66" style="stroke:#181818;stroke-width:1.0;"/></g><!--reverse link WinCondition to UpwardDiagonalWinCondition--><g id="link_WinCondition_UpwardDiagonalWinCondition"><path codeLine="90" d="M1091.6955,684.7213 C1128.7155,723.7613 1156.68,753.25 1180.9,778.79 " fill="none" id="WinCondition-backto-UpwardDiagonalWinCondition" style="stroke:#181818;stroke-width:1.0;"/><polygon fill="none" points="1079.31,671.66,1087.3417,688.8499,1096.0493,680.5928,1079.31,671.66" style="stroke:#181818;stroke-width:1.0;"/></g><!--reverse link WinCondition to DownwardDiagonalWinCondition--><g id="link_WinCondition_DownwardDiagonalWinCondition"><path codeLine="91" d="M1140.1683,643.4319 C1205.1283,671.2319 1268.27,698.86 1339,731.43 C1372.07,746.65 1408.94,764.64 1437.23,778.66 " fill="none" id="WinCondition-backto-DownwardDiagonalWinCondition" style="stroke:#181818;stroke-width:1.0;"/><polygon fill="none" points="1123.62,636.35,1137.8077,648.948,1142.5289,637.9158,1123.62,636.35" style="stroke:#181818;stroke-width:1.0;"/></g><!--link WinCondition to IGameBoard--><g id="link_WinCondition_IGameBoard"><path codeLine="93" d="M864.37,663.4 C858.56,666.23 852.76,668.93 847,671.43 C755.6,711.1 725.34,699.39 631,731.43 C615.8,736.59 600,742.37 584.4,748.33 " fill="none" id="WinCondition-IGameBoard" style="stroke:#181818;stroke-width:1.0;"/></g><!--reverse link IOutputViewer to OutputViewer--><g id="link_IOutputViewer_OutputViewer"><path codeLine="95" d="M585.0071,427.0105 C606.9771,466.9405 630.74,510.14 650.84,546.68 " fill="none" id="IOutputViewer-backto-OutputViewer" style="stroke:#181818;stroke-width:1.0;stroke-dasharray:7.0,7.0;"/><polygon fill="none" points="576.33,411.24,579.7503,429.9028,590.2639,424.1181,576.33,411.24" style="stroke:#181818;stroke-width:1.0;"/></g><!--link IOutputViewer to IGameBoard--><g id="link_IOutputViewer_IGameBoard"><path codeLine="96" d="M526.49,411.23 C513.66,433.78 499.27,462.47 491,489.95 C466.8,570.37 459.05,666.99 456.71,731.22 " fill="none" id="IOutputViewer-IGameBoard" style="stroke:#181818;stroke-width:1.0;"/></g><!--reverse link IPlayer to HumanPlayer--><g id="link_IPlayer_HumanPlayer"><path codeLine="98" d="M193.6408,435.1079 C161.4108,478.3979 127.71,523.67 103.48,556.22 " fill="none" id="IPlayer-backto-HumanPlayer" style="stroke:#181818;stroke-width:1.0;stroke-dasharray:7.0,7.0;"/><polygon fill="none" points="204.39,420.67,188.8281,431.5249,198.4534,438.691,204.39,420.67" style="stroke:#181818;stroke-width:1.0;"/></g><!--reverse link IPlayer to ComputerPlayer--><g id="link_IPlayer_ComputerPlayer"><path codeLine="99" d="M245.9785,438.6536 C247.8285,481.9436 249.61,523.67 251,556.22 " fill="none" id="IPlayer-backto-ComputerPlayer" style="stroke:#181818;stroke-width:1.0;stroke-dasharray:7.0,7.0;"/><polygon fill="none" points="245.21,420.67,239.984,438.9098,251.9731,438.3974,245.21,420.67" style="stroke:#181818;stroke-width:1.0;"/></g><!--SRC=[ZLN9Rjim4BthAmJxK3k90_GQz1B7MGJ42vmDQ903ROqLeH978AdAQPD_xuZKGjgMqLmYpRmP3Tzx70FFK_-MfV2Wc0B_h-VJtmmvdEcdW2y4HWAaDE-BX7s0k6Fo1Rc9J0Ghl2_FMoTCIjtfcaSnhrkDCbqXB_p0rBw-cNX4o34o4LBcjdusgIBcLyZ3MCN8oy8NwxqkJzbsbgSh4FFDOovAMCoLIM6kibmznr20eEgvzQe1fykS3uO6UmlAZ7M3ekmp6FhDf0P1PpMlTE81VMDuuQyG4vCCv1KcUSflyYJPIrBlfomaLiE6tn9pvXjW4opP-rOnAprAWjYmDTHZL4IUpWX_uKibOXwPo2F-0lxuaL6uUJGP-lGCjcgAlw4QgsJdgnBfBayPhyve8bUO4aSWgY2DKqwtqf9O0pKwDJFbQQd04WjBWDDQ6CEDdQ7-Qz2p3fg93H_DtDHhlhbdqkWI6d1xXXgcuvVA9hJbmB6ZFN3hkYaZ8hTMqUjRRIs1HS13s3vb6OWnvZoqpBN6f3jPqWXSagPafvyWSCmaX1hlo43y6bVQvDe-hVbzUCTYIfUFHJ0mobT4BUXPDQSRjCeCsyCVQ5Xwya7tMK96jneu6P1kLQl6iB6O7jE-UlQmThmUDf1q3JPnaa1etmNgmrRKawsLVw3is29GvLGouFUqJuZHIoflsUxNDdFTr-zqNp-GPQDn75rppAFtgkFklUt_dmdxjGcr1JiTU8SY_eD4S-9GQPBF85IyFfXwoWgYOHAp2Fb1m0GBtWaXvPQGQ6cbvrbBUJIozeuLxttl-IUKx9tqclNNbNQ-T0X4_zsjsubgzRPsou_Fy_FsvdgUQpQTTKROILFl3jBtWGS5s8ST4MCVV5mO1q_em3weSsFrGHqQtVnkSVLheSli3UyaTXRzFm00]--></g></svg>