<?xml version="1.0" encoding="us-ascii" standalone="no"?><svg xmlns="http://www.w3.org/2000/svg" xmlns:xlink="http://www.w3.org/1999/xlink" contentStyleType="text/css" height="868px" preserveAspectRatio="none" style="width:635px;height:868px;background:#FFFFFF;" version="1.1" viewBox="0 0 635 868" width="635px" zoomAndPan="magnify"><defs/><g><!--class GameEngine--><g id="elem_GameEngine"><rect codeLine="2" fill="#F1F1F1" height="124.2717" id="GameEngine" rx="2.5" ry="2.5" style="stroke:#181818;stroke-width:0.5;" width="209" x="240.5" y="7"/><ellipse cx="297.75" cy="23" fill="#ADD1B2" rx="11" ry="11" style="stroke:#181818;stroke-width:1.0;"/><path d="M297.8594,18.5313 Q296.9375,18.5313 296.2031,18.8438 Q295.4844,19.1563 294.9844,19.75 Q294.4844,20.3281 294.2031,21.2031 Q293.9375,22.0781 293.9375,23.1719 Q293.9375,24.6094 294.375,25.6563 Q294.8281,26.7031 295.6719,27.25 Q296.5313,27.7969 297.8438,27.7969 Q298.625,27.7969 299.3125,27.6719 Q300.0156,27.5313 301.0156,27.2188 L301.0156,29.0938 Q300.1563,29.4219 299.3906,29.5469 Q298.6406,29.6719 297.625,29.6719 Q295.7031,29.6719 294.3906,28.875 Q293.0938,28.0625 292.4375,26.5938 Q291.7813,25.1094 291.7813,23.1406 Q291.7813,21.7188 292.1719,20.5469 Q292.5781,19.3594 293.3594,18.4844 Q294.1406,17.6094 295.2813,17.1406 Q296.4219,16.6563 297.8906,16.6563 Q298.8438,16.6563 299.7344,16.8594 Q300.6406,17.0469 301.5781,17.5156 L300.75,19.2969 Q299.9688,18.9219 299.3125,18.7344 Q298.6563,18.5313 297.8594,18.5313 Z " fill="#000000"/><text fill="#000000" font-family="sans-serif" font-size="14" lengthAdjust="spacing" textLength="86" x="318.25" y="28.432">GameEngine</text><line style="stroke:#181818;stroke-width:0.5;" x1="241.5" x2="448.5" y1="39" y2="39"/><rect fill="none" height="6" style="stroke:#C82930;stroke-width:1.0;" width="6" x="248.5" y="51.034"/><text fill="#000000" font-family="sans-serif" font-size="14" lengthAdjust="spacing" textLength="113" x="260.5" y="57.9659">players: IPlayer[]</text><rect fill="none" height="6" style="stroke:#C82930;stroke-width:1.0;" width="6" x="248.5" y="70.1019"/><text fill="#000000" font-family="sans-serif" font-size="14" lengthAdjust="spacing" textLength="170" x="260.5" y="77.0339">gameBoard: IGameBoard</text><line style="stroke:#181818;stroke-width:0.5;" x1="241.5" x2="448.5" y1="85.1358" y2="85.1358"/><ellipse cx="251.5" cy="100.1698" fill="#84BE84" rx="3" ry="3" style="stroke:#038048;stroke-width:1.0;"/><text fill="#000000" font-family="sans-serif" font-size="14" lengthAdjust="spacing" textLength="35" x="260.5" y="104.1018">Run()</text><rect fill="#F24D5C" height="6" style="stroke:#C82930;stroke-width:1.0;" width="6" x="248.5" y="116.2377"/><text fill="#000000" font-family="sans-serif" font-size="14" lengthAdjust="spacing" textLength="183" x="260.5" y="123.1697">GetPlayerForTurn() : IPlayer</text></g><!--class IPlayer--><g id="elem_IPlayer"><rect codeLine="9" fill="#F1F1F1" height="105.2038" id="IPlayer" rx="2.5" ry="2.5" style="stroke:#181818;stroke-width:0.5;" width="150" x="164" y="191.27"/><ellipse cx="212.25" cy="207.27" fill="#B4A7E5" rx="11" ry="11" style="stroke:#181818;stroke-width:1.0;"/><path d="M214.3438,213.77 L209.4375,213.77 L209.4375,212.395 L210.8594,212.0825 L210.8594,202.8013 L209.4375,202.4575 L209.4375,201.0981 L214.3438,201.0981 L214.3438,202.4575 L212.9219,202.8013 L212.9219,212.0825 L214.3438,212.395 L214.3438,213.77 Z " fill="#000000"/><text fill="#000000" font-family="sans-serif" font-size="14" font-style="italic" lengthAdjust="spacing" textLength="45" x="232.75" y="212.702">IPlayer</text><line style="stroke:#181818;stroke-width:0.5;" x1="165" x2="313" y1="223.27" y2="223.27"/><ellipse cx="175" cy="238.304" fill="none" rx="3" ry="3" style="stroke:#038048;stroke-width:1.0;"/><text fill="#000000" font-family="sans-serif" font-size="14" lengthAdjust="spacing" textLength="88" x="184" y="242.2359">Name: string</text><ellipse cx="175" cy="257.3719" fill="none" rx="3" ry="3" style="stroke:#038048;stroke-width:1.0;"/><text fill="#000000" font-family="sans-serif" font-size="14" lengthAdjust="spacing" textLength="82" x="184" y="261.3039">Number: int</text><line style="stroke:#181818;stroke-width:0.5;" x1="165" x2="313" y1="269.4058" y2="269.4058"/><ellipse cx="175" cy="284.4398" fill="#84BE84" rx="3" ry="3" style="stroke:#038048;stroke-width:1.0;"/><text fill="#000000" font-family="sans-serif" font-size="14" lengthAdjust="spacing" textLength="124" x="184" y="288.3718">GetNextMove(): int</text></g><!--class Player--><g id="elem_Player"><rect codeLine="14" fill="#F1F1F1" height="67.0679" id="Player" rx="2.5" ry="2.5" style="stroke:#181818;stroke-width:0.5;" width="181" x="119.5" y="404.14"/><ellipse cx="185.25" cy="420.14" fill="#ADD1B2" rx="11" ry="11" style="stroke:#181818;stroke-width:1.0;"/><path d="M185.3594,415.6713 Q184.4375,415.6713 183.7031,415.9838 Q182.9844,416.2963 182.4844,416.89 Q181.9844,417.4681 181.7031,418.3431 Q181.4375,419.2181 181.4375,420.3119 Q181.4375,421.7494 181.875,422.7963 Q182.3281,423.8431 183.1719,424.39 Q184.0313,424.9369 185.3438,424.9369 Q186.125,424.9369 186.8125,424.8119 Q187.5156,424.6713 188.5156,424.3588 L188.5156,426.2338 Q187.6563,426.5619 186.8906,426.6869 Q186.1406,426.8119 185.125,426.8119 Q183.2031,426.8119 181.8906,426.015 Q180.5938,425.2025 179.9375,423.7338 Q179.2813,422.2494 179.2813,420.2806 Q179.2813,418.8588 179.6719,417.6869 Q180.0781,416.4994 180.8594,415.6244 Q181.6406,414.7494 182.7813,414.2806 Q183.9219,413.7963 185.3906,413.7963 Q186.3438,413.7963 187.2344,413.9994 Q188.1406,414.1869 189.0781,414.6556 L188.25,416.4369 Q187.4688,416.0619 186.8125,415.8744 Q186.1563,415.6713 185.3594,415.6713 Z " fill="#000000"/><text fill="#000000" font-family="sans-serif" font-size="14" lengthAdjust="spacing" textLength="41" x="205.75" y="425.572">Player</text><line style="stroke:#181818;stroke-width:0.5;" x1="120.5" x2="299.5" y1="436.14" y2="436.14"/><polygon fill="none" points="130.5,446.174,134.5,450.174,130.5,454.174,126.5,450.174" style="stroke:#B38D22;stroke-width:1.0;"/><text fill="#000000" font-family="sans-serif" font-size="14" lengthAdjust="spacing" textLength="155" x="139.5" y="455.1059">numberOfColumns: int</text><line style="stroke:#181818;stroke-width:0.5;" x1="120.5" x2="299.5" y1="463.2079" y2="463.2079"/></g><!--class HumanPlayer--><g id="elem_HumanPlayer"><rect codeLine="17" fill="#F1F1F1" height="67.0679" id="HumanPlayer" rx="2.5" ry="2.5" style="stroke:#181818;stroke-width:0.5;" width="122" x="7" y="578.88"/><ellipse cx="22" cy="594.88" fill="#ADD1B2" rx="11" ry="11" style="stroke:#181818;stroke-width:1.0;"/><path d="M22.1094,590.4113 Q21.1875,590.4113 20.4531,590.7238 Q19.7344,591.0363 19.2344,591.63 Q18.7344,592.2081 18.4531,593.0831 Q18.1875,593.9581 18.1875,595.0519 Q18.1875,596.4894 18.625,597.5363 Q19.0781,598.5831 19.9219,599.13 Q20.7813,599.6769 22.0938,599.6769 Q22.875,599.6769 23.5625,599.5519 Q24.2656,599.4113 25.2656,599.0988 L25.2656,600.9738 Q24.4063,601.3019 23.6406,601.4269 Q22.8906,601.5519 21.875,601.5519 Q19.9531,601.5519 18.6406,600.755 Q17.3438,599.9425 16.6875,598.4738 Q16.0313,596.9894 16.0313,595.0206 Q16.0313,593.5988 16.4219,592.4269 Q16.8281,591.2394 17.6094,590.3644 Q18.3906,589.4894 19.5313,589.0206 Q20.6719,588.5363 22.1406,588.5363 Q23.0938,588.5363 23.9844,588.7394 Q24.8906,588.9269 25.8281,589.3956 L25,591.1769 Q24.2188,590.8019 23.5625,590.6144 Q22.9063,590.4113 22.1094,590.4113 Z " fill="#000000"/><text fill="#000000" font-family="sans-serif" font-size="14" lengthAdjust="spacing" textLength="90" x="36" y="600.312">HumanPlayer</text><line style="stroke:#181818;stroke-width:0.5;" x1="8" x2="128" y1="610.88" y2="610.88"/><rect fill="none" height="6" style="stroke:#C82930;stroke-width:1.0;" width="6" x="15" y="622.914"/><text fill="#000000" font-family="sans-serif" font-size="14" lengthAdjust="spacing" textLength="86" x="27" y="629.8459">input: IInput</text><line style="stroke:#181818;stroke-width:0.5;" x1="8" x2="128" y1="637.9479" y2="637.9479"/></g><!--class ComputerPlayer--><g id="elem_ComputerPlayer"><rect codeLine="20" fill="#F1F1F1" height="48" id="ComputerPlayer" rx="2.5" ry="2.5" style="stroke:#181818;stroke-width:0.5;" width="140" x="164" y="588.42"/><ellipse cx="179" cy="604.42" fill="#ADD1B2" rx="11" ry="11" style="stroke:#181818;stroke-width:1.0;"/><path d="M179.1094,599.9513 Q178.1875,599.9513 177.4531,600.2638 Q176.7344,600.5763 176.2344,601.17 Q175.7344,601.7481 175.4531,602.6231 Q175.1875,603.4981 175.1875,604.5919 Q175.1875,606.0294 175.625,607.0763 Q176.0781,608.1231 176.9219,608.67 Q177.7813,609.2169 179.0938,609.2169 Q179.875,609.2169 180.5625,609.0919 Q181.2656,608.9513 182.2656,608.6388 L182.2656,610.5138 Q181.4063,610.8419 180.6406,610.9669 Q179.8906,611.0919 178.875,611.0919 Q176.9531,611.0919 175.6406,610.295 Q174.3438,609.4825 173.6875,608.0138 Q173.0313,606.5294 173.0313,604.5606 Q173.0313,603.1388 173.4219,601.9669 Q173.8281,600.7794 174.6094,599.9044 Q175.3906,599.0294 176.5313,598.5606 Q177.6719,598.0763 179.1406,598.0763 Q180.0938,598.0763 180.9844,598.2794 Q181.8906,598.4669 182.8281,598.9356 L182,600.7169 Q181.2188,600.3419 180.5625,600.1544 Q179.9063,599.9513 179.1094,599.9513 Z " fill="#000000"/><text fill="#000000" font-family="sans-serif" font-size="14" lengthAdjust="spacing" textLength="108" x="193" y="609.852">ComputerPlayer</text><line style="stroke:#181818;stroke-width:0.5;" x1="165" x2="303" y1="620.42" y2="620.42"/><line style="stroke:#181818;stroke-width:0.5;" x1="165" x2="303" y1="628.42" y2="628.42"/></g><!--class IInput--><g id="elem_IInput"><rect codeLine="21" fill="#F1F1F1" height="48" id="IInput" rx="2.5" ry="2.5" style="stroke:#181818;stroke-width:0.5;" width="71" x="32.5" y="705.95"/><ellipse cx="47.5" cy="721.95" fill="#B4A7E5" rx="11" ry="11" style="stroke:#181818;stroke-width:1.0;"/><path d="M49.5938,728.45 L44.6875,728.45 L44.6875,727.075 L46.1094,726.7625 L46.1094,717.4813 L44.6875,717.1375 L44.6875,715.7781 L49.5938,715.7781 L49.5938,717.1375 L48.1719,717.4813 L48.1719,726.7625 L49.5938,727.075 L49.5938,728.45 Z " fill="#000000"/><text fill="#000000" font-family="sans-serif" font-size="14" font-style="italic" lengthAdjust="spacing" textLength="39" x="61.5" y="727.382">IInput</text><line style="stroke:#181818;stroke-width:0.5;" x1="33.5" x2="102.5" y1="737.95" y2="737.95"/><line style="stroke:#181818;stroke-width:0.5;" x1="33.5" x2="102.5" y1="745.95" y2="745.95"/></g><!--class ConsoleInput--><g id="elem_ConsoleInput"><rect codeLine="22" fill="#F1F1F1" height="48" id="ConsoleInput" rx="2.5" ry="2.5" style="stroke:#181818;stroke-width:0.5;" width="122" x="7" y="813.95"/><ellipse cx="22" cy="829.95" fill="#ADD1B2" rx="11" ry="11" style="stroke:#181818;stroke-width:1.0;"/><path d="M22.1094,825.4813 Q21.1875,825.4813 20.4531,825.7938 Q19.7344,826.1063 19.2344,826.7 Q18.7344,827.2781 18.4531,828.1531 Q18.1875,829.0281 18.1875,830.1219 Q18.1875,831.5594 18.625,832.6063 Q19.0781,833.6531 19.9219,834.2 Q20.7813,834.7469 22.0938,834.7469 Q22.875,834.7469 23.5625,834.6219 Q24.2656,834.4813 25.2656,834.1688 L25.2656,836.0438 Q24.4063,836.3719 23.6406,836.4969 Q22.8906,836.6219 21.875,836.6219 Q19.9531,836.6219 18.6406,835.825 Q17.3438,835.0125 16.6875,833.5438 Q16.0313,832.0594 16.0313,830.0906 Q16.0313,828.6688 16.4219,827.4969 Q16.8281,826.3094 17.6094,825.4344 Q18.3906,824.5594 19.5313,824.0906 Q20.6719,823.6063 22.1406,823.6063 Q23.0938,823.6063 23.9844,823.8094 Q24.8906,823.9969 25.8281,824.4656 L25,826.2469 Q24.2188,825.8719 23.5625,825.6844 Q22.9063,825.4813 22.1094,825.4813 Z " fill="#000000"/><text fill="#000000" font-family="sans-serif" font-size="14" lengthAdjust="spacing" textLength="90" x="36" y="835.382">ConsoleInput</text><line style="stroke:#181818;stroke-width:0.5;" x1="8" x2="128" y1="845.95" y2="845.95"/><line style="stroke:#181818;stroke-width:0.5;" x1="8" x2="128" y1="853.95" y2="853.95"/></g><!--class IGameBoard--><g id="elem_IGameBoard"><rect codeLine="24" fill="#F1F1F1" height="105.2038" id="IGameBoard" rx="2.5" ry="2.5" style="stroke:#181818;stroke-width:0.5;" width="206" x="364" y="191.27"/><ellipse cx="423.25" cy="207.27" fill="#B4A7E5" rx="11" ry="11" style="stroke:#181818;stroke-width:1.0;"/><path d="M425.3438,213.77 L420.4375,213.77 L420.4375,212.395 L421.8594,212.0825 L421.8594,202.8013 L420.4375,202.4575 L420.4375,201.0981 L425.3438,201.0981 L425.3438,202.4575 L423.9219,202.8013 L423.9219,212.0825 L425.3438,212.395 L425.3438,213.77 Z " fill="#000000"/><text fill="#000000" font-family="sans-serif" font-size="14" font-style="italic" lengthAdjust="spacing" textLength="79" x="443.75" y="212.702">IGameBoard</text><line style="stroke:#181818;stroke-width:0.5;" x1="365" x2="569" y1="223.27" y2="223.27"/><line style="stroke:#181818;stroke-width:0.5;" x1="365" x2="569" y1="231.27" y2="231.27"/><ellipse cx="375" cy="246.304" fill="#84BE84" rx="3" ry="3" style="stroke:#038048;stroke-width:1.0;"/><text fill="#000000" font-family="sans-serif" font-size="14" lengthAdjust="spacing" textLength="168" x="384" y="250.2359">PlaceToken(int, int) : bool</text><ellipse cx="375" cy="265.3719" fill="#84BE84" rx="3" ry="3" style="stroke:#038048;stroke-width:1.0;"/><text fill="#000000" font-family="sans-serif" font-size="14" lengthAdjust="spacing" textLength="180" x="384" y="269.3039">IsInWinningState(int): bool</text><ellipse cx="375" cy="284.4398" fill="#84BE84" rx="3" ry="3" style="stroke:#038048;stroke-width:1.0;"/><text fill="#000000" font-family="sans-serif" font-size="14" lengthAdjust="spacing" textLength="123" x="384" y="288.3718">ShowGameBoard()</text></g><!--class GameBoard--><g id="elem_GameBoard"><rect codeLine="30" fill="#F1F1F1" height="162.4075" id="GameBoard" rx="2.5" ry="2.5" style="stroke:#181818;stroke-width:0.5;" width="292" x="336" y="356.47"/><ellipse cx="438.25" cy="372.47" fill="#ADD1B2" rx="11" ry="11" style="stroke:#181818;stroke-width:1.0;"/><path d="M438.3594,368.0013 Q437.4375,368.0013 436.7031,368.3138 Q435.9844,368.6263 435.4844,369.22 Q434.9844,369.7981 434.7031,370.6731 Q434.4375,371.5481 434.4375,372.6419 Q434.4375,374.0794 434.875,375.1263 Q435.3281,376.1731 436.1719,376.72 Q437.0313,377.2669 438.3438,377.2669 Q439.125,377.2669 439.8125,377.1419 Q440.5156,377.0013 441.5156,376.6888 L441.5156,378.5638 Q440.6563,378.8919 439.8906,379.0169 Q439.1406,379.1419 438.125,379.1419 Q436.2031,379.1419 434.8906,378.345 Q433.5938,377.5325 432.9375,376.0638 Q432.2813,374.5794 432.2813,372.6106 Q432.2813,371.1888 432.6719,370.0169 Q433.0781,368.8294 433.8594,367.9544 Q434.6406,367.0794 435.7813,366.6106 Q436.9219,366.1263 438.3906,366.1263 Q439.3438,366.1263 440.2344,366.3294 Q441.1406,366.5169 442.0781,366.9856 L441.25,368.7669 Q440.4688,368.3919 439.8125,368.2044 Q439.1563,368.0013 438.3594,368.0013 Z " fill="#000000"/><text fill="#000000" font-family="sans-serif" font-size="14" lengthAdjust="spacing" textLength="79" x="458.75" y="377.902">GameBoard</text><line style="stroke:#181818;stroke-width:0.5;" x1="337" x2="627" y1="388.47" y2="388.47"/><rect fill="none" height="6" style="stroke:#C82930;stroke-width:1.0;" width="6" x="344" y="400.504"/><text fill="#000000" font-family="sans-serif" font-size="14" lengthAdjust="spacing" textLength="167" x="356" y="407.4359">gameBoardMatrix: int[][]</text><rect fill="none" height="6" style="stroke:#C82930;stroke-width:1.0;" width="6" x="344" y="419.5719"/><text fill="#000000" font-family="sans-serif" font-size="14" lengthAdjust="spacing" textLength="260" x="356" y="426.5039">gameBoardViewer: IGameBoardViewer</text><rect fill="none" height="6" style="stroke:#C82930;stroke-width:1.0;" width="6" x="344" y="438.6398"/><text fill="#000000" font-family="sans-serif" font-size="14" lengthAdjust="spacing" textLength="175" x="356" y="445.5718">rowIndexUpperBound: int</text><rect fill="none" height="6" style="stroke:#C82930;stroke-width:1.0;" width="6" x="344" y="457.7077"/><text fill="#000000" font-family="sans-serif" font-size="14" lengthAdjust="spacing" textLength="169" x="356" y="464.6397">colIndexUpperBound: int</text><rect fill="none" height="6" style="stroke:#C82930;stroke-width:1.0;" width="6" x="344" y="476.7756"/><text fill="#000000" font-family="sans-serif" font-size="14" lengthAdjust="spacing" textLength="168" x="356" y="483.7076">tokensInLineForAWin: int</text><line style="stroke:#181818;stroke-width:0.5;" x1="337" x2="627" y1="491.8096" y2="491.8096"/><rect fill="#F24D5C" height="6" style="stroke:#C82930;stroke-width:1.0;" width="6" x="344" y="503.8435"/><text fill="#000000" font-family="sans-serif" font-size="14" lengthAdjust="spacing" textLength="266" x="356" y="510.7755">CompensateForZeroBasedIndex(int): int</text></g><!--class IGameBoardViewer--><g id="elem_IGameBoardViewer"><rect codeLine="39" fill="#F1F1F1" height="67.0679" id="IGameBoardViewer" rx="2.5" ry="2.5" style="stroke:#181818;stroke-width:0.5;" width="239" x="362.5" y="578.88"/><ellipse cx="417.25" cy="594.88" fill="#B4A7E5" rx="11" ry="11" style="stroke:#181818;stroke-width:1.0;"/><path d="M419.3438,601.38 L414.4375,601.38 L414.4375,600.005 L415.8594,599.6925 L415.8594,590.4113 L414.4375,590.0675 L414.4375,588.7081 L419.3438,588.7081 L419.3438,590.0675 L417.9219,590.4113 L417.9219,599.6925 L419.3438,600.005 L419.3438,601.38 Z " fill="#000000"/><text fill="#000000" font-family="sans-serif" font-size="14" font-style="italic" lengthAdjust="spacing" textLength="121" x="437.75" y="600.312">IGameBoardViewer</text><line style="stroke:#181818;stroke-width:0.5;" x1="363.5" x2="600.5" y1="610.88" y2="610.88"/><line style="stroke:#181818;stroke-width:0.5;" x1="363.5" x2="600.5" y1="618.88" y2="618.88"/><ellipse cx="373.5" cy="633.914" fill="#84BE84" rx="3" ry="3" style="stroke:#038048;stroke-width:1.0;"/><text fill="#000000" font-family="sans-serif" font-size="14" lengthAdjust="spacing" textLength="213" x="382.5" y="637.8459">ShowGameBoard(int[][], int, int)</text></g><!--class GameBoardViewer--><g id="elem_GameBoardViewer"><rect codeLine="43" fill="#F1F1F1" height="48" id="GameBoardViewer" rx="2.5" ry="2.5" style="stroke:#181818;stroke-width:0.5;" width="156" x="404" y="705.95"/><ellipse cx="419" cy="721.95" fill="#ADD1B2" rx="11" ry="11" style="stroke:#181818;stroke-width:1.0;"/><path d="M419.1094,717.4813 Q418.1875,717.4813 417.4531,717.7938 Q416.7344,718.1063 416.2344,718.7 Q415.7344,719.2781 415.4531,720.1531 Q415.1875,721.0281 415.1875,722.1219 Q415.1875,723.5594 415.625,724.6063 Q416.0781,725.6531 416.9219,726.2 Q417.7813,726.7469 419.0938,726.7469 Q419.875,726.7469 420.5625,726.6219 Q421.2656,726.4813 422.2656,726.1688 L422.2656,728.0438 Q421.4063,728.3719 420.6406,728.4969 Q419.8906,728.6219 418.875,728.6219 Q416.9531,728.6219 415.6406,727.825 Q414.3438,727.0125 413.6875,725.5438 Q413.0313,724.0594 413.0313,722.0906 Q413.0313,720.6688 413.4219,719.4969 Q413.8281,718.3094 414.6094,717.4344 Q415.3906,716.5594 416.5313,716.0906 Q417.6719,715.6063 419.1406,715.6063 Q420.0938,715.6063 420.9844,715.8094 Q421.8906,715.9969 422.8281,716.4656 L422,718.2469 Q421.2188,717.8719 420.5625,717.6844 Q419.9063,717.4813 419.1094,717.4813 Z " fill="#000000"/><text fill="#000000" font-family="sans-serif" font-size="14" lengthAdjust="spacing" textLength="124" x="433" y="727.382">GameBoardViewer</text><line style="stroke:#181818;stroke-width:0.5;" x1="405" x2="559" y1="737.95" y2="737.95"/><line style="stroke:#181818;stroke-width:0.5;" x1="405" x2="559" y1="745.95" y2="745.95"/></g><!--reverse link GameEngine to IPlayer--><g id="link_GameEngine_IPlayer"><path codeLine="46" d="M301.0555,141.7489 C289.1555,161.1489 282.4,172.15 270.94,190.83 " fill="none" id="GameEngine-backto-IPlayer" style="stroke:#181818;stroke-width:1.0;"/><polygon fill="#181818" points="307.33,131.52,300.7831,134.543,301.0555,141.7489,307.6024,138.726,307.33,131.52" style="stroke:#181818;stroke-width:1.0;"/><text fill="#000000" font-family="sans-serif" font-size="13" lengthAdjust="spacing" textLength="7" x="295.827" y="153.2086">1</text><text fill="#000000" font-family="sans-serif" font-size="13" lengthAdjust="spacing" textLength="34" x="238.9476" y="179.5048">many</text></g><!--reverse link IPlayer to Player--><g id="link_IPlayer_Player"><path codeLine="48" d="M228.4589,314.5777 C223.3089,348.6377 219.42,374.35 214.98,403.74 " fill="none" id="IPlayer-backto-Player" style="stroke:#181818;stroke-width:1.0;stroke-dasharray:7.0,7.0;"/><polygon fill="none" points="231.15,296.78,222.5264,313.6807,234.3915,315.4747,231.15,296.78" style="stroke:#181818;stroke-width:1.0;"/></g><!--reverse link Player to HumanPlayer--><g id="link_Player_HumanPlayer"><path codeLine="50" d="M171.5273,485.483 C146.2573,516.213 120.18,547.94 94.94,578.64 " fill="none" id="Player-backto-HumanPlayer" style="stroke:#181818;stroke-width:1.0;"/><polygon fill="none" points="182.96,471.58,166.8929,481.6721,176.1616,489.2939,182.96,471.58" style="stroke:#181818;stroke-width:1.0;"/></g><!--reverse link Player to ComputerPlayer--><g id="link_Player_ComputerPlayer"><path codeLine="51" d="M217.0459,489.4089 C221.7759,523.4689 226.58,558 230.75,588.05 " fill="none" id="Player-backto-ComputerPlayer" style="stroke:#181818;stroke-width:1.0;"/><polygon fill="none" points="214.57,471.58,211.103,490.2342,222.9889,488.5836,214.57,471.58" style="stroke:#181818;stroke-width:1.0;"/></g><!--reverse link HumanPlayer to IInput--><g id="link_HumanPlayer_IInput"><path codeLine="53" d="M68,658.21 C68,677.16 68,688.54 68,705.61 " fill="none" id="HumanPlayer-backto-IInput" style="stroke:#181818;stroke-width:1.0;"/><polygon fill="#181818" points="68,646.21,64,652.21,68,658.21,72,652.21,68,646.21" style="stroke:#181818;stroke-width:1.0;"/></g><!--reverse link IInput to ConsoleInput--><g id="link_IInput_ConsoleInput"><path codeLine="54" d="M68,772.21 C68,789.89 68,796.08 68,813.74 " fill="none" id="IInput-backto-ConsoleInput" style="stroke:#181818;stroke-width:1.0;stroke-dasharray:7.0,7.0;"/><polygon fill="none" points="68,754.21,62,772.21,74,772.21,68,754.21" style="stroke:#181818;stroke-width:1.0;"/></g><!--reverse link GameEngine to IGameBoard--><g id="link_GameEngine_IGameBoard"><path codeLine="56" d="M395.2788,141.3246 C408.9688,160.7246 417.05,172.15 430.24,190.83 " fill="none" id="GameEngine-backto-IGameBoard" style="stroke:#181818;stroke-width:1.0;"/><polygon fill="#181818" points="388.36,131.52,388.5512,138.7286,395.2788,141.3246,395.0876,134.116,388.36,131.52" style="stroke:#181818;stroke-width:1.0;"/><text fill="#000000" font-family="sans-serif" font-size="13" lengthAdjust="spacing" textLength="7" x="385.7197" y="153.2086">1</text><text fill="#000000" font-family="sans-serif" font-size="13" lengthAdjust="spacing" textLength="7" x="417.8301" y="179.5048">1</text></g><!--reverse link IGameBoard to GameBoard--><g id="link_IGameBoard_GameBoard"><path codeLine="57" d="M472.4623,314.7253 C473.8923,333.0253 474.14,336.12 475.71,356.23 " fill="none" id="IGameBoard-backto-GameBoard" style="stroke:#181818;stroke-width:1.0;stroke-dasharray:7.0,7.0;"/><polygon fill="none" points="471.06,296.78,466.4805,315.1927,478.444,314.2579,471.06,296.78" style="stroke:#181818;stroke-width:1.0;"/></g><!--reverse link GameBoard to IGameBoardViewer--><g id="link_GameBoard_IGameBoardViewer"><path codeLine="59" d="M482,531.23 C482,552.16 482,561.56 482,578.46 " fill="none" id="GameBoard-backto-IGameBoardViewer" style="stroke:#181818;stroke-width:1.0;"/><polygon fill="#181818" points="482,519.23,478,525.23,482,531.23,486,525.23,482,519.23" style="stroke:#181818;stroke-width:1.0;"/><text fill="#000000" font-family="sans-serif" font-size="13" lengthAdjust="spacing" textLength="7" x="474.6992" y="540.8966">1</text><text fill="#000000" font-family="sans-serif" font-size="13" lengthAdjust="spacing" textLength="7" x="474.3109" y="567.0684">1</text></g><!--reverse link IGameBoardViewer to GameBoardViewer--><g id="link_IGameBoardViewer_GameBoardViewer"><path codeLine="60" d="M482,664.21 C482,683.16 482,688.54 482,705.61 " fill="none" id="IGameBoardViewer-backto-GameBoardViewer" style="stroke:#181818;stroke-width:1.0;stroke-dasharray:7.0,7.0;"/><polygon fill="none" points="482,646.21,476,664.21,488,664.21,482,646.21" style="stroke:#181818;stroke-width:1.0;"/></g><!--SRC=[TLDHJuCm47xlhsZmPNEonDV55xVe977JkAc9onuwk4qYjAI0swB-Tu-sbEAGby9ttrtllli84vRdTCfIkE6xc0Fz8XGVFqlO4MG-ei6ZUbkjDRv3vbWm6M5aMh-hqE2fvBs-PasXq6ctGYvBYJYrbSWF8J4lG6vP23LehXtCiUI8veMC-SuWPRe1EQAOeW6iFOT3CHEVqEjh_8U4QenMhJEkCX-s4v6KAS_RrBioPRp5zsEUbGMs6LId9Kv4YfyWJVDEvvfNitWk4j2GIx8QrHDYdH2MuWDu3saNLLELE1iX4aq8ye2_nfoZ0ek25L3H-YvXyIxsjYmgZdg6TelkNSsoPWmLFIW5LkkJLRx4iAyaRfhLYAP9iGzu18VdB0Cv5YMFccNueKZ-3nRLb3ZDFVeAZN2DKpdHIbWCuuGOUmCfnYo7I5Kp8-jzTQgf6wmrRIjYXbJIQdqx9B85CEIutxlqwBdlKm_TSVIiPKbjqwlluP3MeCKmmV5J2_zZ7-Bwhhh8k4WVkdpRIrtDuUdyV8x7L7uJ8KsaEzVi-KJNTXt3-WK0]--></g></svg>