<?xml version="1.0" encoding="us-ascii" standalone="no"?><svg xmlns="http://www.w3.org/2000/svg" xmlns:xlink="http://www.w3.org/1999/xlink" contentStyleType="text/css" height="1027px" preserveAspectRatio="none" style="width:1599px;height:1027px;background:#FFFFFF;" version="1.1" viewBox="0 0 1599 1027" width="1599px" zoomAndPan="magnify"><defs/><g><!--class GameEngine--><g id="elem_GameEngine"><rect codeLine="2" fill="#F1F1F1" height="219.6113" id="GameEngine" rx="2.5" ry="2.5" style="stroke:#181818;stroke-width:0.5;" width="236" x="332" y="7"/><ellipse cx="402.75" cy="23" fill="#ADD1B2" rx="11" ry="11" style="stroke:#181818;stroke-width:1.0;"/><path d="M402.8594,18.5313 Q401.9375,18.5313 401.2031,18.8438 Q400.4844,19.1563 399.9844,19.75 Q399.4844,20.3281 399.2031,21.2031 Q398.9375,22.0781 398.9375,23.1719 Q398.9375,24.6094 399.375,25.6563 Q399.8281,26.7031 400.6719,27.25 Q401.5313,27.7969 402.8438,27.7969 Q403.625,27.7969 404.3125,27.6719 Q405.0156,27.5313 406.0156,27.2188 L406.0156,29.0938 Q405.1563,29.4219 404.3906,29.5469 Q403.6406,29.6719 402.625,29.6719 Q400.7031,29.6719 399.3906,28.875 Q398.0938,28.0625 397.4375,26.5938 Q396.7813,25.1094 396.7813,23.1406 Q396.7813,21.7188 397.1719,20.5469 Q397.5781,19.3594 398.3594,18.4844 Q399.1406,17.6094 400.2813,17.1406 Q401.4219,16.6563 402.8906,16.6563 Q403.8438,16.6563 404.7344,16.8594 Q405.6406,17.0469 406.5781,17.5156 L405.75,19.2969 Q404.9688,18.9219 404.3125,18.7344 Q403.6563,18.5313 402.8594,18.5313 Z " fill="#000000"/><text fill="#000000" font-family="sans-serif" font-size="14" lengthAdjust="spacing" textLength="86" x="423.25" y="28.432">GameEngine</text><line style="stroke:#181818;stroke-width:0.5;" x1="333" x2="567" y1="39" y2="39"/><rect fill="none" height="6" style="stroke:#C82930;stroke-width:1.0;" width="6" x="340" y="51.034"/><text fill="#000000" font-family="sans-serif" font-size="14" lengthAdjust="spacing" textLength="113" x="352" y="57.9659">players: IPlayer[]</text><rect fill="none" height="6" style="stroke:#C82930;stroke-width:1.0;" width="6" x="340" y="70.1019"/><text fill="#000000" font-family="sans-serif" font-size="14" lengthAdjust="spacing" textLength="170" x="352" y="77.0339">gameBoard: IGameBoard</text><rect fill="none" height="6" style="stroke:#C82930;stroke-width:1.0;" width="6" x="340" y="89.1698"/><text fill="#000000" font-family="sans-serif" font-size="14" lengthAdjust="spacing" textLength="210" x="352" y="96.1018">winConditions: IWinCondition[]</text><rect fill="none" height="6" style="stroke:#C82930;stroke-width:1.0;" width="6" x="340" y="108.2377"/><text fill="#000000" font-family="sans-serif" font-size="14" lengthAdjust="spacing" textLength="165" x="352" y="115.1697">maxNumberOfTurns: int</text><rect fill="none" height="6" style="stroke:#C82930;stroke-width:1.0;" width="6" x="340" y="127.3056"/><text fill="#000000" font-family="sans-serif" font-size="14" lengthAdjust="spacing" textLength="196" x="352" y="134.2376">outputViewer: IOutputViewer</text><line style="stroke:#181818;stroke-width:0.5;" x1="333" x2="567" y1="142.3396" y2="142.3396"/><ellipse cx="343" cy="157.3735" fill="#84BE84" rx="3" ry="3" style="stroke:#038048;stroke-width:1.0;"/><text fill="#000000" font-family="sans-serif" font-size="14" lengthAdjust="spacing" textLength="35" x="352" y="161.3055">Run()</text><rect fill="#F24D5C" height="6" style="stroke:#C82930;stroke-width:1.0;" width="6" x="340" y="173.4415"/><text fill="#000000" font-family="sans-serif" font-size="14" lengthAdjust="spacing" textLength="183" x="352" y="180.3734">GetPlayerForTurn() : IPlayer</text><rect fill="#F24D5C" height="6" style="stroke:#C82930;stroke-width:1.0;" width="6" x="340" y="192.5094"/><text fill="#000000" font-family="sans-serif" font-size="14" lengthAdjust="spacing" textLength="159" x="352" y="199.4414">HasPlayerWon(int): bool</text><rect fill="#F24D5C" height="6" style="stroke:#C82930;stroke-width:1.0;" width="6" x="340" y="211.5773"/><text fill="#000000" font-family="sans-serif" font-size="14" lengthAdjust="spacing" textLength="151" x="352" y="218.5093">IsColumnFull(int): bool</text></g><!--class IPlayer--><g id="elem_IPlayer"><rect codeLine="15" fill="#F1F1F1" height="105.2038" id="IPlayer" rx="2.5" ry="2.5" style="stroke:#181818;stroke-width:0.5;" width="178" x="135" y="286.61"/><ellipse cx="197.25" cy="302.61" fill="#B4A7E5" rx="11" ry="11" style="stroke:#181818;stroke-width:1.0;"/><path d="M199.3438,309.11 L194.4375,309.11 L194.4375,307.735 L195.8594,307.4225 L195.8594,298.1413 L194.4375,297.7975 L194.4375,296.4381 L199.3438,296.4381 L199.3438,297.7975 L197.9219,298.1413 L197.9219,307.4225 L199.3438,307.735 L199.3438,309.11 Z " fill="#000000"/><text fill="#000000" font-family="sans-serif" font-size="14" font-style="italic" lengthAdjust="spacing" textLength="45" x="217.75" y="308.042">IPlayer</text><line style="stroke:#181818;stroke-width:0.5;" x1="136" x2="312" y1="318.61" y2="318.61"/><ellipse cx="146" cy="333.644" fill="none" rx="3" ry="3" style="stroke:#038048;stroke-width:1.0;"/><text fill="#000000" font-family="sans-serif" font-size="14" lengthAdjust="spacing" textLength="88" x="155" y="337.5759">Name: string</text><ellipse cx="146" cy="352.7119" fill="none" rx="3" ry="3" style="stroke:#038048;stroke-width:1.0;"/><text fill="#000000" font-family="sans-serif" font-size="14" lengthAdjust="spacing" textLength="152" x="155" y="356.6439">TokenType: TokenType</text><line style="stroke:#181818;stroke-width:0.5;" x1="136" x2="312" y1="364.7458" y2="364.7458"/><ellipse cx="146" cy="379.7798" fill="#84BE84" rx="3" ry="3" style="stroke:#038048;stroke-width:1.0;"/><text fill="#000000" font-family="sans-serif" font-size="14" lengthAdjust="spacing" textLength="142" x="155" y="383.7118">GetNextMove(int): int</text></g><!--class HumanPlayer--><g id="elem_HumanPlayer"><rect codeLine="20" fill="#F1F1F1" height="48" id="HumanPlayer" rx="2.5" ry="2.5" style="stroke:#181818;stroke-width:0.5;" width="122" x="7" y="518.55"/><ellipse cx="22" cy="534.55" fill="#ADD1B2" rx="11" ry="11" style="stroke:#181818;stroke-width:1.0;"/><path d="M22.1094,530.0813 Q21.1875,530.0813 20.4531,530.3938 Q19.7344,530.7063 19.2344,531.3 Q18.7344,531.8781 18.4531,532.7531 Q18.1875,533.6281 18.1875,534.7219 Q18.1875,536.1594 18.625,537.2063 Q19.0781,538.2531 19.9219,538.8 Q20.7813,539.3469 22.0938,539.3469 Q22.875,539.3469 23.5625,539.2219 Q24.2656,539.0813 25.2656,538.7688 L25.2656,540.6438 Q24.4063,540.9719 23.6406,541.0969 Q22.8906,541.2219 21.875,541.2219 Q19.9531,541.2219 18.6406,540.425 Q17.3438,539.6125 16.6875,538.1438 Q16.0313,536.6594 16.0313,534.6906 Q16.0313,533.2688 16.4219,532.0969 Q16.8281,530.9094 17.6094,530.0344 Q18.3906,529.1594 19.5313,528.6906 Q20.6719,528.2063 22.1406,528.2063 Q23.0938,528.2063 23.9844,528.4094 Q24.8906,528.5969 25.8281,529.0656 L25,530.8469 Q24.2188,530.4719 23.5625,530.2844 Q22.9063,530.0813 22.1094,530.0813 Z " fill="#000000"/><text fill="#000000" font-family="sans-serif" font-size="14" lengthAdjust="spacing" textLength="90" x="36" y="539.982">HumanPlayer</text><line style="stroke:#181818;stroke-width:0.5;" x1="8" x2="128" y1="550.55" y2="550.55"/><line style="stroke:#181818;stroke-width:0.5;" x1="8" x2="128" y1="558.55" y2="558.55"/></g><!--class ComputerPlayer--><g id="elem_ComputerPlayer"><rect codeLine="21" fill="#F1F1F1" height="48" id="ComputerPlayer" rx="2.5" ry="2.5" style="stroke:#181818;stroke-width:0.5;" width="140" x="164" y="518.55"/><ellipse cx="179" cy="534.55" fill="#ADD1B2" rx="11" ry="11" style="stroke:#181818;stroke-width:1.0;"/><path d="M179.1094,530.0813 Q178.1875,530.0813 177.4531,530.3938 Q176.7344,530.7063 176.2344,531.3 Q175.7344,531.8781 175.4531,532.7531 Q175.1875,533.6281 175.1875,534.7219 Q175.1875,536.1594 175.625,537.2063 Q176.0781,538.2531 176.9219,538.8 Q177.7813,539.3469 179.0938,539.3469 Q179.875,539.3469 180.5625,539.2219 Q181.2656,539.0813 182.2656,538.7688 L182.2656,540.6438 Q181.4063,540.9719 180.6406,541.0969 Q179.8906,541.2219 178.875,541.2219 Q176.9531,541.2219 175.6406,540.425 Q174.3438,539.6125 173.6875,538.1438 Q173.0313,536.6594 173.0313,534.6906 Q173.0313,533.2688 173.4219,532.0969 Q173.8281,530.9094 174.6094,530.0344 Q175.3906,529.1594 176.5313,528.6906 Q177.6719,528.2063 179.1406,528.2063 Q180.0938,528.2063 180.9844,528.4094 Q181.8906,528.5969 182.8281,529.0656 L182,530.8469 Q181.2188,530.4719 180.5625,530.2844 Q179.9063,530.0813 179.1094,530.0813 Z " fill="#000000"/><text fill="#000000" font-family="sans-serif" font-size="14" lengthAdjust="spacing" textLength="108" x="193" y="539.982">ComputerPlayer</text><line style="stroke:#181818;stroke-width:0.5;" x1="165" x2="303" y1="550.55" y2="550.55"/><line style="stroke:#181818;stroke-width:0.5;" x1="165" x2="303" y1="558.55" y2="558.55"/></g><!--class IGameBoard--><g id="elem_IGameBoard"><rect codeLine="24" fill="#F1F1F1" height="143.3396" id="IGameBoard" rx="2.5" ry="2.5" style="stroke:#181818;stroke-width:0.5;" width="256" x="309" y="693.29"/><ellipse cx="393.25" cy="709.29" fill="#B4A7E5" rx="11" ry="11" style="stroke:#181818;stroke-width:1.0;"/><path d="M395.3438,715.79 L390.4375,715.79 L390.4375,714.415 L391.8594,714.1025 L391.8594,704.8213 L390.4375,704.4775 L390.4375,703.1181 L395.3438,703.1181 L395.3438,704.4775 L393.9219,704.8213 L393.9219,714.1025 L395.3438,714.415 L395.3438,715.79 Z " fill="#000000"/><text fill="#000000" font-family="sans-serif" font-size="14" font-style="italic" lengthAdjust="spacing" textLength="79" x="413.75" y="714.722">IGameBoard</text><line style="stroke:#181818;stroke-width:0.5;" x1="310" x2="564" y1="725.29" y2="725.29"/><ellipse cx="320" cy="740.324" fill="none" rx="3" ry="3" style="stroke:#038048;stroke-width:1.0;"/><text fill="#000000" font-family="sans-serif" font-size="14" lengthAdjust="spacing" textLength="124" x="329" y="744.2559">NumerOfRows: int</text><ellipse cx="320" cy="759.3919" fill="none" rx="3" ry="3" style="stroke:#038048;stroke-width:1.0;"/><text fill="#000000" font-family="sans-serif" font-size="14" lengthAdjust="spacing" textLength="157" x="329" y="763.3239">NumberOfColumns: int</text><line style="stroke:#181818;stroke-width:0.5;" x1="310" x2="564" y1="771.4258" y2="771.4258"/><ellipse cx="320" cy="786.4598" fill="#84BE84" rx="3" ry="3" style="stroke:#038048;stroke-width:1.0;"/><text fill="#000000" font-family="sans-serif" font-size="14" lengthAdjust="spacing" textLength="181" x="329" y="790.3918">PlaceToken(TokenType, int)</text><ellipse cx="320" cy="805.5277" fill="#84BE84" rx="3" ry="3" style="stroke:#038048;stroke-width:1.0;"/><text fill="#000000" font-family="sans-serif" font-size="14" lengthAdjust="spacing" textLength="230" x="329" y="809.4597">GetRowOfLastPlayedToken(int): int</text><ellipse cx="320" cy="824.5956" fill="#84BE84" rx="3" ry="3" style="stroke:#038048;stroke-width:1.0;"/><text fill="#000000" font-family="sans-serif" font-size="14" lengthAdjust="spacing" textLength="209" x="329" y="828.5276">GetTokenAt(int, int): TokenType</text></g><!--class GameBoard--><g id="elem_GameBoard"><rect codeLine="32" fill="#F1F1F1" height="124.2717" id="GameBoard" rx="2.5" ry="2.5" style="stroke:#181818;stroke-width:0.5;" width="292" x="291" y="896.63"/><ellipse cx="393.25" cy="912.63" fill="#ADD1B2" rx="11" ry="11" style="stroke:#181818;stroke-width:1.0;"/><path d="M393.3594,908.1613 Q392.4375,908.1613 391.7031,908.4738 Q390.9844,908.7863 390.4844,909.38 Q389.9844,909.9581 389.7031,910.8331 Q389.4375,911.7081 389.4375,912.8019 Q389.4375,914.2394 389.875,915.2863 Q390.3281,916.3331 391.1719,916.88 Q392.0313,917.4269 393.3438,917.4269 Q394.125,917.4269 394.8125,917.3019 Q395.5156,917.1613 396.5156,916.8488 L396.5156,918.7238 Q395.6563,919.0519 394.8906,919.1769 Q394.1406,919.3019 393.125,919.3019 Q391.2031,919.3019 389.8906,918.505 Q388.5938,917.6925 387.9375,916.2238 Q387.2813,914.7394 387.2813,912.7706 Q387.2813,911.3488 387.6719,910.1769 Q388.0781,908.9894 388.8594,908.1144 Q389.6406,907.2394 390.7813,906.7706 Q391.9219,906.2863 393.3906,906.2863 Q394.3438,906.2863 395.2344,906.4894 Q396.1406,906.6769 397.0781,907.1456 L396.25,908.9269 Q395.4688,908.5519 394.8125,908.3644 Q394.1563,908.1613 393.3594,908.1613 Z " fill="#000000"/><text fill="#000000" font-family="sans-serif" font-size="14" lengthAdjust="spacing" textLength="79" x="413.75" y="918.062">GameBoard</text><line style="stroke:#181818;stroke-width:0.5;" x1="292" x2="582" y1="928.63" y2="928.63"/><rect fill="none" height="6" style="stroke:#C82930;stroke-width:1.0;" width="6" x="299" y="940.664"/><text fill="#000000" font-family="sans-serif" font-size="14" lengthAdjust="spacing" textLength="221" x="311" y="947.5959">gameBoardMatrix: TokenType[][]</text><rect fill="none" height="6" style="stroke:#C82930;stroke-width:1.0;" width="6" x="299" y="959.7319"/><text fill="#000000" font-family="sans-serif" font-size="14" lengthAdjust="spacing" textLength="175" x="311" y="966.6639">rowIndexUpperBound: int</text><rect fill="none" height="6" style="stroke:#C82930;stroke-width:1.0;" width="6" x="299" y="978.7998"/><text fill="#000000" font-family="sans-serif" font-size="14" lengthAdjust="spacing" textLength="169" x="311" y="985.7318">colIndexUpperBound: int</text><line style="stroke:#181818;stroke-width:0.5;" x1="292" x2="582" y1="993.8338" y2="993.8338"/><rect fill="#F24D5C" height="6" style="stroke:#C82930;stroke-width:1.0;" width="6" x="299" y="1005.8677"/><text fill="#000000" font-family="sans-serif" font-size="14" lengthAdjust="spacing" textLength="266" x="311" y="1012.7997">CompensateForZeroBasedIndex(int): int</text></g><!--class IOutputViewer--><g id="elem_IOutputViewer"><rect codeLine="40" fill="#F1F1F1" height="86.1358" id="IOutputViewer" rx="2.5" ry="2.5" style="stroke:#181818;stroke-width:0.5;" width="229" x="419.5" y="296.14"/><ellipse cx="484.25" cy="312.14" fill="#B4A7E5" rx="11" ry="11" style="stroke:#181818;stroke-width:1.0;"/><path d="M486.3438,318.64 L481.4375,318.64 L481.4375,317.265 L482.8594,316.9525 L482.8594,307.6713 L481.4375,307.3275 L481.4375,305.9681 L486.3438,305.9681 L486.3438,307.3275 L484.9219,307.6713 L484.9219,316.9525 L486.3438,317.265 L486.3438,318.64 Z " fill="#000000"/><text fill="#000000" font-family="sans-serif" font-size="14" font-style="italic" lengthAdjust="spacing" textLength="91" x="504.75" y="317.572">IOutputViewer</text><line style="stroke:#181818;stroke-width:0.5;" x1="420.5" x2="647.5" y1="328.14" y2="328.14"/><line style="stroke:#181818;stroke-width:0.5;" x1="420.5" x2="647.5" y1="336.14" y2="336.14"/><ellipse cx="430.5" cy="351.174" fill="#84BE84" rx="3" ry="3" style="stroke:#038048;stroke-width:1.0;"/><text fill="#000000" font-family="sans-serif" font-size="14" lengthAdjust="spacing" textLength="144" x="439.5" y="355.1059">ShowMessage(string)</text><ellipse cx="430.5" cy="370.2419" fill="#84BE84" rx="3" ry="3" style="stroke:#038048;stroke-width:1.0;"/><text fill="#000000" font-family="sans-serif" font-size="14" lengthAdjust="spacing" textLength="203" x="439.5" y="374.1739">PrintGameBoard(IGameBoard)</text></g><!--class OutputViewer--><g id="elem_OutputViewer"><rect codeLine="45" fill="#F1F1F1" height="67.0679" id="OutputViewer" rx="2.5" ry="2.5" style="stroke:#181818;stroke-width:0.5;" width="321" x="489.5" y="509.02"/><ellipse cx="599.25" cy="525.02" fill="#ADD1B2" rx="11" ry="11" style="stroke:#181818;stroke-width:1.0;"/><path d="M599.3594,520.5513 Q598.4375,520.5513 597.7031,520.8638 Q596.9844,521.1763 596.4844,521.77 Q595.9844,522.3481 595.7031,523.2231 Q595.4375,524.0981 595.4375,525.1919 Q595.4375,526.6294 595.875,527.6763 Q596.3281,528.7231 597.1719,529.27 Q598.0313,529.8169 599.3438,529.8169 Q600.125,529.8169 600.8125,529.6919 Q601.5156,529.5513 602.5156,529.2388 L602.5156,531.1138 Q601.6563,531.4419 600.8906,531.5669 Q600.1406,531.6919 599.125,531.6919 Q597.2031,531.6919 595.8906,530.895 Q594.5938,530.0825 593.9375,528.6138 Q593.2813,527.1294 593.2813,525.1606 Q593.2813,523.7388 593.6719,522.5669 Q594.0781,521.3794 594.8594,520.5044 Q595.6406,519.6294 596.7813,519.1606 Q597.9219,518.6763 599.3906,518.6763 Q600.3438,518.6763 601.2344,518.8794 Q602.1406,519.0669 603.0781,519.5356 L602.25,521.3169 Q601.4688,520.9419 600.8125,520.7544 Q600.1563,520.5513 599.3594,520.5513 Z " fill="#000000"/><text fill="#000000" font-family="sans-serif" font-size="14" lengthAdjust="spacing" textLength="93" x="619.75" y="530.452">OutputViewer</text><line style="stroke:#181818;stroke-width:0.5;" x1="490.5" x2="809.5" y1="541.02" y2="541.02"/><line style="stroke:#181818;stroke-width:0.5;" x1="490.5" x2="809.5" y1="549.02" y2="549.02"/><rect fill="#F24D5C" height="6" style="stroke:#C82930;stroke-width:1.0;" width="6" x="497.5" y="561.054"/><text fill="#000000" font-family="sans-serif" font-size="14" lengthAdjust="spacing" textLength="295" x="509.5" y="567.9859">GetStringRepresentation(TokenType): string</text></g><!--class IWinCondition--><g id="elem_IWinCondition"><rect codeLine="50" fill="#F1F1F1" height="67.0679" id="IWinCondition" rx="2.5" ry="2.5" style="stroke:#181818;stroke-width:0.5;" width="155" x="790.5" y="305.68"/><ellipse cx="820.35" cy="321.68" fill="#B4A7E5" rx="11" ry="11" style="stroke:#181818;stroke-width:1.0;"/><path d="M822.4438,328.18 L817.5375,328.18 L817.5375,326.805 L818.9594,326.4925 L818.9594,317.2112 L817.5375,316.8675 L817.5375,315.5081 L822.4438,315.5081 L822.4438,316.8675 L821.0219,317.2112 L821.0219,326.4925 L822.4438,326.805 L822.4438,328.18 Z " fill="#000000"/><text fill="#000000" font-family="sans-serif" font-size="14" font-style="italic" lengthAdjust="spacing" textLength="90" x="837.65" y="327.112">IWinCondition</text><line style="stroke:#181818;stroke-width:0.5;" x1="791.5" x2="944.5" y1="337.68" y2="337.68"/><line style="stroke:#181818;stroke-width:0.5;" x1="791.5" x2="944.5" y1="345.68" y2="345.68"/><ellipse cx="801.5" cy="360.714" fill="#84BE84" rx="3" ry="3" style="stroke:#038048;stroke-width:1.0;"/><text fill="#000000" font-family="sans-serif" font-size="14" lengthAdjust="spacing" textLength="129" x="810.5" y="364.6459">IsFulfilled(int): bool</text></g><!--class WinCondition--><g id="elem_WinCondition"><rect codeLine="54" fill="#F1F1F1" height="181.4754" id="WinCondition" rx="2.5" ry="2.5" style="stroke:#181818;stroke-width:0.5;" width="259" x="845.5" y="451.81"/><ellipse cx="928.25" cy="467.81" fill="#A9DCDF" rx="11" ry="11" style="stroke:#181818;stroke-width:1.0;"/><path d="M931.5938,473.06 L930.125,469.31 L925.6875,469.31 L924.25,473.06 L922.125,473.06 L927.0781,460.3412 L928.8281,460.3412 L933.75,473.06 L931.5938,473.06 Z M928.25,464.1069 Q928.2031,463.9506 928.0781,463.5912 Q927.9531,463.2319 927.8438,462.8569 Q927.7344,462.4662 927.9375,462.4037 Q928.0938,462.5912 928,462.9506 Q927.9063,463.2944 927.8125,463.5912 Q927.7188,463.8725 927.6406,464.1069 L926.4063,467.4194 L929.4844,467.4194 L928.25,464.1069 Z " fill="#000000"/><text fill="#000000" font-family="sans-serif" font-size="14" font-style="italic" lengthAdjust="spacing" textLength="85" x="948.75" y="473.242">WinCondition</text><line style="stroke:#181818;stroke-width:0.5;" x1="846.5" x2="1103.5" y1="483.81" y2="483.81"/><rect fill="none" height="6" style="stroke:#C82930;stroke-width:1.0;" width="6" x="853.5" y="495.844"/><text fill="#000000" font-family="sans-serif" font-size="14" lengthAdjust="spacing" textLength="170" x="865.5" y="502.7759">gameBoard: IGameBoard</text><rect fill="none" height="6" style="stroke:#C82930;stroke-width:1.0;" width="6" x="853.5" y="514.9119"/><text fill="#000000" font-family="sans-serif" font-size="14" lengthAdjust="spacing" textLength="168" x="865.5" y="521.8439">tokensInLineForAWin: int</text><polygon fill="none" points="856.5,531.9798,860.5,535.9798,856.5,539.9798,852.5,535.9798" style="stroke:#B38D22;stroke-width:1.0;"/><text fill="#000000" font-family="sans-serif" font-size="14" lengthAdjust="spacing" textLength="133" x="865.5" y="540.9118">NumberOfRows: int</text><polygon fill="none" points="856.5,551.0477,860.5,555.0477,856.5,559.0477,852.5,555.0477" style="stroke:#B38D22;stroke-width:1.0;"/><text fill="#000000" font-family="sans-serif" font-size="14" lengthAdjust="spacing" textLength="157" x="865.5" y="559.9797">NumberOfColumns: int</text><line style="stroke:#181818;stroke-width:0.5;" x1="846.5" x2="1103.5" y1="568.0817" y2="568.0817"/><polygon fill="#FFFF44" points="856.5,578.1156,860.5,582.1156,856.5,586.1156,852.5,582.1156" style="stroke:#B38D22;stroke-width:1.0;"/><text fill="#000000" font-family="sans-serif" font-size="14" lengthAdjust="spacing" textLength="233" x="865.5" y="587.0476">IsLineBigEnoughForAWin(int): bool</text><polygon fill="#FFFF44" points="856.5,597.1835,860.5,601.1835,856.5,605.1835,852.5,601.1835" style="stroke:#B38D22;stroke-width:1.0;"/><text fill="#000000" font-family="sans-serif" font-size="14" lengthAdjust="spacing" textLength="230" x="865.5" y="606.1155">GetRowOfLastPlayedToken(int): int</text><polygon fill="#FFFF44" points="856.5,616.2515,860.5,620.2515,856.5,624.2515,852.5,620.2515" style="stroke:#B38D22;stroke-width:1.0;"/><text fill="#000000" font-family="sans-serif" font-size="14" lengthAdjust="spacing" textLength="191" x="865.5" y="625.1834">GetToken(int,int): TokenType</text></g><!--class HorizontalWinCondition--><g id="elem_HorizontalWinCondition"><rect codeLine="64" fill="#F1F1F1" height="48" id="HorizontalWinCondition" rx="2.5" ry="2.5" style="stroke:#181818;stroke-width:0.5;" width="192" x="630" y="740.96"/><ellipse cx="645" cy="756.96" fill="#ADD1B2" rx="11" ry="11" style="stroke:#181818;stroke-width:1.0;"/><path d="M645.1094,752.4912 Q644.1875,752.4912 643.4531,752.8037 Q642.7344,753.1162 642.2344,753.71 Q641.7344,754.2881 641.4531,755.1631 Q641.1875,756.0381 641.1875,757.1319 Q641.1875,758.5694 641.625,759.6162 Q642.0781,760.6631 642.9219,761.21 Q643.7813,761.7569 645.0938,761.7569 Q645.875,761.7569 646.5625,761.6319 Q647.2656,761.4912 648.2656,761.1787 L648.2656,763.0537 Q647.4063,763.3819 646.6406,763.5069 Q645.8906,763.6319 644.875,763.6319 Q642.9531,763.6319 641.6406,762.835 Q640.3438,762.0225 639.6875,760.5537 Q639.0313,759.0694 639.0313,757.1006 Q639.0313,755.6787 639.4219,754.5069 Q639.8281,753.3194 640.6094,752.4444 Q641.3906,751.5694 642.5313,751.1006 Q643.6719,750.6162 645.1406,750.6162 Q646.0938,750.6162 646.9844,750.8194 Q647.8906,751.0069 648.8281,751.4756 L648,753.2569 Q647.2188,752.8819 646.5625,752.6944 Q645.9063,752.4912 645.1094,752.4912 Z " fill="#000000"/><text fill="#000000" font-family="sans-serif" font-size="14" lengthAdjust="spacing" textLength="160" x="659" y="762.392">HorizontalWinCondition</text><line style="stroke:#181818;stroke-width:0.5;" x1="631" x2="821" y1="772.96" y2="772.96"/><line style="stroke:#181818;stroke-width:0.5;" x1="631" x2="821" y1="780.96" y2="780.96"/></g><!--class VerticalWinCondition--><g id="elem_VerticalWinCondition"><rect codeLine="65" fill="#F1F1F1" height="48" id="VerticalWinCondition" rx="2.5" ry="2.5" style="stroke:#181818;stroke-width:0.5;" width="173" x="857.5" y="740.96"/><ellipse cx="872.5" cy="756.96" fill="#ADD1B2" rx="11" ry="11" style="stroke:#181818;stroke-width:1.0;"/><path d="M872.6094,752.4912 Q871.6875,752.4912 870.9531,752.8037 Q870.2344,753.1162 869.7344,753.71 Q869.2344,754.2881 868.9531,755.1631 Q868.6875,756.0381 868.6875,757.1319 Q868.6875,758.5694 869.125,759.6162 Q869.5781,760.6631 870.4219,761.21 Q871.2813,761.7569 872.5938,761.7569 Q873.375,761.7569 874.0625,761.6319 Q874.7656,761.4912 875.7656,761.1787 L875.7656,763.0537 Q874.9063,763.3819 874.1406,763.5069 Q873.3906,763.6319 872.375,763.6319 Q870.4531,763.6319 869.1406,762.835 Q867.8438,762.0225 867.1875,760.5537 Q866.5313,759.0694 866.5313,757.1006 Q866.5313,755.6787 866.9219,754.5069 Q867.3281,753.3194 868.1094,752.4444 Q868.8906,751.5694 870.0313,751.1006 Q871.1719,750.6162 872.6406,750.6162 Q873.5938,750.6162 874.4844,750.8194 Q875.3906,751.0069 876.3281,751.4756 L875.5,753.2569 Q874.7188,752.8819 874.0625,752.6944 Q873.4063,752.4912 872.6094,752.4912 Z " fill="#000000"/><text fill="#000000" font-family="sans-serif" font-size="14" lengthAdjust="spacing" textLength="141" x="886.5" y="762.392">VerticalWinCondition</text><line style="stroke:#181818;stroke-width:0.5;" x1="858.5" x2="1029.5" y1="772.96" y2="772.96"/><line style="stroke:#181818;stroke-width:0.5;" x1="858.5" x2="1029.5" y1="780.96" y2="780.96"/></g><!--class UpwardDiagonalWinCondition--><g id="elem_UpwardDiagonalWinCondition"><rect codeLine="66" fill="#F1F1F1" height="48" id="UpwardDiagonalWinCondition" rx="2.5" ry="2.5" style="stroke:#181818;stroke-width:0.5;" width="236" x="1066" y="740.96"/><ellipse cx="1081" cy="756.96" fill="#ADD1B2" rx="11" ry="11" style="stroke:#181818;stroke-width:1.0;"/><path d="M1081.1094,752.4912 Q1080.1875,752.4912 1079.4531,752.8037 Q1078.7344,753.1162 1078.2344,753.71 Q1077.7344,754.2881 1077.4531,755.1631 Q1077.1875,756.0381 1077.1875,757.1319 Q1077.1875,758.5694 1077.625,759.6162 Q1078.0781,760.6631 1078.9219,761.21 Q1079.7813,761.7569 1081.0938,761.7569 Q1081.875,761.7569 1082.5625,761.6319 Q1083.2656,761.4912 1084.2656,761.1787 L1084.2656,763.0537 Q1083.4063,763.3819 1082.6406,763.5069 Q1081.8906,763.6319 1080.875,763.6319 Q1078.9531,763.6319 1077.6406,762.835 Q1076.3438,762.0225 1075.6875,760.5537 Q1075.0313,759.0694 1075.0313,757.1006 Q1075.0313,755.6787 1075.4219,754.5069 Q1075.8281,753.3194 1076.6094,752.4444 Q1077.3906,751.5694 1078.5313,751.1006 Q1079.6719,750.6162 1081.1406,750.6162 Q1082.0938,750.6162 1082.9844,750.8194 Q1083.8906,751.0069 1084.8281,751.4756 L1084,753.2569 Q1083.2188,752.8819 1082.5625,752.6944 Q1081.9063,752.4912 1081.1094,752.4912 Z " fill="#000000"/><text fill="#000000" font-family="sans-serif" font-size="14" lengthAdjust="spacing" textLength="204" x="1095" y="762.392">UpwardDiagonalWinCondition</text><line style="stroke:#181818;stroke-width:0.5;" x1="1067" x2="1301" y1="772.96" y2="772.96"/><line style="stroke:#181818;stroke-width:0.5;" x1="1067" x2="1301" y1="780.96" y2="780.96"/></g><!--class DownwardDiagonalWinCondition--><g id="elem_DownwardDiagonalWinCondition"><rect codeLine="67" fill="#F1F1F1" height="48" id="DownwardDiagonalWinCondition" rx="2.5" ry="2.5" style="stroke:#181818;stroke-width:0.5;" width="255" x="1337.5" y="740.96"/><ellipse cx="1352.5" cy="756.96" fill="#ADD1B2" rx="11" ry="11" style="stroke:#181818;stroke-width:1.0;"/><path d="M1352.6094,752.4912 Q1351.6875,752.4912 1350.9531,752.8037 Q1350.2344,753.1162 1349.7344,753.71 Q1349.2344,754.2881 1348.9531,755.1631 Q1348.6875,756.0381 1348.6875,757.1319 Q1348.6875,758.5694 1349.125,759.6162 Q1349.5781,760.6631 1350.4219,761.21 Q1351.2813,761.7569 1352.5938,761.7569 Q1353.375,761.7569 1354.0625,761.6319 Q1354.7656,761.4912 1355.7656,761.1787 L1355.7656,763.0537 Q1354.9063,763.3819 1354.1406,763.5069 Q1353.3906,763.6319 1352.375,763.6319 Q1350.4531,763.6319 1349.1406,762.835 Q1347.8438,762.0225 1347.1875,760.5537 Q1346.5313,759.0694 1346.5313,757.1006 Q1346.5313,755.6787 1346.9219,754.5069 Q1347.3281,753.3194 1348.1094,752.4444 Q1348.8906,751.5694 1350.0313,751.1006 Q1351.1719,750.6162 1352.6406,750.6162 Q1353.5938,750.6162 1354.4844,750.8194 Q1355.3906,751.0069 1356.3281,751.4756 L1355.5,753.2569 Q1354.7188,752.8819 1354.0625,752.6944 Q1353.4063,752.4912 1352.6094,752.4912 Z " fill="#000000"/><text fill="#000000" font-family="sans-serif" font-size="14" lengthAdjust="spacing" textLength="223" x="1366.5" y="762.392">DownwardDiagonalWinCondition</text><line style="stroke:#181818;stroke-width:0.5;" x1="1338.5" x2="1591.5" y1="772.96" y2="772.96"/><line style="stroke:#181818;stroke-width:0.5;" x1="1338.5" x2="1591.5" y1="780.96" y2="780.96"/></g><!--reverse link GameEngine to IPlayer--><g id="link_GameEngine_IPlayer"><path codeLine="71" d="M329.398,235.4172 C308.198,256.0872 295.55,268.44 277.24,286.29 " fill="none" id="GameEngine-backto-IPlayer" style="stroke:#181818;stroke-width:1.0;"/><polygon fill="#181818" points="337.99,227.04,330.9016,228.3646,329.398,235.4172,336.4864,234.0926,337.99,227.04" style="stroke:#181818;stroke-width:1.0;"/><text fill="#000000" font-family="sans-serif" font-size="13" lengthAdjust="spacing" textLength="7" x="323.5901" y="248.566">1</text><text fill="#000000" font-family="sans-serif" font-size="13" lengthAdjust="spacing" textLength="7" x="276.9238" y="274.9809">*</text></g><!--reverse link GameEngine to IWinCondition--><g id="link_GameEngine_IWinCondition"><path codeLine="72" d="M578.9953,185.826 C656.1253,226.486 743.05,272.33 805.5,305.25 " fill="none" id="GameEngine-backto-IWinCondition" style="stroke:#181818;stroke-width:1.0;"/><polygon fill="#181818" points="568.38,180.23,571.8223,186.5664,578.9953,185.826,575.553,179.4896,568.38,180.23" style="stroke:#181818;stroke-width:1.0;"/><text fill="#000000" font-family="sans-serif" font-size="13" lengthAdjust="spacing" textLength="7" x="576.1879" y="180.6682">1</text><text fill="#000000" font-family="sans-serif" font-size="13" lengthAdjust="spacing" textLength="7" x="785.5063" y="293.8564">*</text></g><!--reverse link GameEngine to IOutputViewer--><g id="link_GameEngine_IOutputViewer"><path codeLine="73" d="M495.9027,238.2536 C505.2227,262.7136 510.3,276.03 517.84,295.8 " fill="none" id="GameEngine-backto-IOutputViewer" style="stroke:#181818;stroke-width:1.0;"/><polygon fill="#181818" points="491.63,227.04,490.0285,234.071,495.9027,238.2536,497.5042,231.2225,491.63,227.04" style="stroke:#181818;stroke-width:1.0;"/><text fill="#000000" font-family="sans-serif" font-size="13" lengthAdjust="spacing" textLength="7" x="487.0727" y="248.566">1</text><text fill="#000000" font-family="sans-serif" font-size="13" lengthAdjust="spacing" textLength="7" x="507.7067" y="284.4804">1</text></g><!--reverse link GameEngine to IGameBoard--><g id="link_GameEngine_IGameBoard"><path codeLine="75" d="M411.2713,238.3467 C406.1613,258.0767 404.73,266.99 402,286.61 C382.01,430.02 405.45,599.36 422.46,692.89 " fill="none" id="GameEngine-backto-IGameBoard" style="stroke:#181818;stroke-width:1.0;"/><polygon fill="#181818" points="414.28,226.73,408.9034,231.5355,411.2713,238.3467,416.6479,233.5412,414.28,226.73" style="stroke:#181818;stroke-width:1.0;"/><text fill="#000000" font-family="sans-serif" font-size="13" lengthAdjust="spacing" textLength="7" x="404.6449" y="248.6074">1</text><text fill="#000000" font-family="sans-serif" font-size="13" lengthAdjust="spacing" textLength="7" x="413.5996" y="681.5147">1</text></g><!--reverse link IGameBoard to GameBoard--><g id="link_IGameBoard_GameBoard"><path codeLine="76" d="M437,855.11 C437,874.51 437,877.37 437,896.19 " fill="none" id="IGameBoard-backto-GameBoard" style="stroke:#181818;stroke-width:1.0;stroke-dasharray:7.0,7.0;"/><polygon fill="none" points="437,837.11,431,855.11,443,855.11,437,837.11" style="stroke:#181818;stroke-width:1.0;"/></g><!--reverse link IWinCondition to WinCondition--><g id="link_IWinCondition_WinCondition"><path codeLine="78" d="M893.8786,388.9041 C905.2486,410.2941 912.24,423.45 927.09,451.41 " fill="none" id="IWinCondition-backto-WinCondition" style="stroke:#181818;stroke-width:1.0;stroke-dasharray:7.0,7.0;"/><polygon fill="none" points="885.43,373.01,888.5806,391.7203,899.1766,386.0879,885.43,373.01" style="stroke:#181818;stroke-width:1.0;"/></g><!--reverse link WinCondition to HorizontalWinCondition--><g id="link_WinCondition_HorizontalWinCondition"><path codeLine="79" d="M859.8824,645.4512 C815.7824,684.4912 781.18,715.11 752.33,740.65 " fill="none" id="WinCondition-backto-HorizontalWinCondition" style="stroke:#181818;stroke-width:1.0;"/><polygon fill="none" points="873.36,633.52,855.9053,640.9587,863.8594,649.9437,873.36,633.52" style="stroke:#181818;stroke-width:1.0;"/></g><!--reverse link WinCondition to VerticalWinCondition--><g id="link_WinCondition_VerticalWinCondition"><path codeLine="80" d="M959.8434,651.3446 C954.3534,690.3846 950.87,715.11 947.28,740.65 " fill="none" id="WinCondition-backto-VerticalWinCondition" style="stroke:#181818;stroke-width:1.0;"/><polygon fill="none" points="962.35,633.52,953.9019,650.5091,965.785,652.1801,962.35,633.52" style="stroke:#181818;stroke-width:1.0;"/></g><!--reverse link WinCondition to UpwardDiagonalWinCondition--><g id="link_WinCondition_UpwardDiagonalWinCondition"><path codeLine="81" d="M1072.6955,646.5813 C1109.7155,685.6213 1137.68,715.11 1161.9,740.65 " fill="none" id="WinCondition-backto-UpwardDiagonalWinCondition" style="stroke:#181818;stroke-width:1.0;"/><polygon fill="none" points="1060.31,633.52,1068.3417,650.7099,1077.0493,642.4528,1060.31,633.52" style="stroke:#181818;stroke-width:1.0;"/></g><!--reverse link WinCondition to DownwardDiagonalWinCondition--><g id="link_WinCondition_DownwardDiagonalWinCondition"><path codeLine="82" d="M1121.1683,605.2919 C1186.1283,633.0919 1249.27,660.72 1320,693.29 C1353.07,708.51 1389.94,726.5 1418.23,740.52 " fill="none" id="WinCondition-backto-DownwardDiagonalWinCondition" style="stroke:#181818;stroke-width:1.0;"/><polygon fill="none" points="1104.62,598.21,1118.8077,610.808,1123.5289,599.7758,1104.62,598.21" style="stroke:#181818;stroke-width:1.0;"/></g><!--link WinCondition to IGameBoard--><g id="link_WinCondition_IGameBoard"><path codeLine="84" d="M845.37,625.26 C839.56,628.09 833.76,630.79 828,633.29 C736.6,672.96 706.34,661.25 612,693.29 C596.8,698.45 581,704.23 565.4,710.19 " fill="none" id="WinCondition-IGameBoard" style="stroke:#181818;stroke-width:1.0;"/></g><!--reverse link IOutputViewer to OutputViewer--><g id="link_IOutputViewer_OutputViewer"><path codeLine="86" d="M567.3067,398.0161 C588.9667,435.6061 611.22,474.25 631.07,508.69 " fill="none" id="IOutputViewer-backto-OutputViewer" style="stroke:#181818;stroke-width:1.0;stroke-dasharray:7.0,7.0;"/><polygon fill="none" points="558.32,382.42,562.108,401.0117,572.5054,395.0205,558.32,382.42" style="stroke:#181818;stroke-width:1.0;"/></g><!--link IOutputViewer to IGameBoard--><g id="link_IOutputViewer_IGameBoard"><path codeLine="87" d="M505.2,382.65 C492.94,402.76 479.73,427.64 472,451.81 C446.43,531.8 438.96,628.51 437.06,692.88 " fill="none" id="IOutputViewer-IGameBoard" style="stroke:#181818;stroke-width:1.0;"/></g><!--reverse link IPlayer to HumanPlayer--><g id="link_IPlayer_HumanPlayer"><path codeLine="89" d="M172.8057,406.289 C141.2957,446.959 109.95,487.41 86.16,518.11 " fill="none" id="IPlayer-backto-HumanPlayer" style="stroke:#181818;stroke-width:1.0;stroke-dasharray:7.0,7.0;"/><polygon fill="none" points="183.83,392.06,168.0627,402.6143,177.5487,409.9638,183.83,392.06" style="stroke:#181818;stroke-width:1.0;"/></g><!--reverse link IPlayer to ComputerPlayer--><g id="link_IPlayer_ComputerPlayer"><path codeLine="90" d="M227.4685,410.0381 C229.4785,450.7081 231.31,487.41 232.84,518.11 " fill="none" id="IPlayer-backto-ComputerPlayer" style="stroke:#181818;stroke-width:1.0;stroke-dasharray:7.0,7.0;"/><polygon fill="none" points="226.58,392.06,221.4758,410.3342,233.4612,409.7419,226.58,392.06" style="stroke:#181818;stroke-width:1.0;"/></g><!--SRC=[ZLLDRzf04BtxLrXmg0abKgzHBu4aO2b0H4WYDSfXiGV7ghrhxQvhqZR_lREx_bY3ZSe5UzwROURDsoL8Y13kdAHmIwEOWll7SV4poHBo0LnSkVw3VdfzC_48cLD6U8Z8l7esK17J6QDXB6D6LUABzLwbf-ImojCTyFL-ctD5Ywaq4Cjbbild60hWcBssNZLXlCcfDpBSEKZJrXtZgeutSkjE3MD1X7bzOTJ3tnXTkJl64WFwOiQIFALtUPBOuAVZV75Dcd0m3dnF0gWAbzACLpZsbIiaZsba8bls4-Zs8yDm_MWGR7G51xbalw3y8JNlfnDesHTvIcZPjOdCM8fJ0o-3s8uIUQT5jXggbQzxobEbwOOLbgJZIcephOrW_G1qhrxTyLS5Z-g-iTPwVq-4KJeqv6Q6YgRZrr8Xfe2j0GeQr0Qp6svyj2GevC5AUdshpC9PuTCG3azP1dpASXfQTWbOqWyg6O4A8W4DyWCucn81eUQtre3w6f_PujhEg_HzV6V54eGW4NXcywLG3_Wiw-cyPZEZPlYEWih1ZxhE1Z8E0gWawfmqsnZL5jDjseV9RjQELytw0eszZvC4mYDtantM985qEzBE7MsfkX8-lSSR0XMznlH6xM5bixRxXhtk6_f25Ph6qIrbUVHULZm-fiF_C-6mCg6sOAy35up7lndAdBIaDE0pS1a7dT1JLg0CDp696EqatB22zb9mSnj8z6g5urZNxE3RmBsOJDp1nQ2-kFhWLiKk4dwtxyjULhDNwmxv_lVoiZcXZjCsbKPRBHp1MBj7t5DYfz2dj3EYdvBFBw35HxPl3zewcNhGbenj_3Yv_5VGQVPDtWAEBlH_]--></g></svg>