<?xml version="1.0" encoding="us-ascii" standalone="no"?><svg xmlns="http://www.w3.org/2000/svg" xmlns:xlink="http://www.w3.org/1999/xlink" contentStyleType="text/css" height="1154px" preserveAspectRatio="none" style="width:2110px;height:1154px;background:#FFFFFF;" version="1.1" viewBox="0 0 2110 1154" width="2110px" zoomAndPan="magnify"><defs/><g><!--class GameState--><g id="elem_GameState"><rect codeLine="2" fill="#F1F1F1" height="124.2717" id="GameState" rx="2.5" ry="2.5" style="stroke:#181818;stroke-width:0.5;" width="112" x="93" y="324.75"/><ellipse cx="111.15" cy="340.75" fill="#EB937F" rx="11" ry="11" style="stroke:#181818;stroke-width:1.0;"/><path d="M114.6188,347.25 L107.3063,347.25 L107.3063,334.5781 L114.6188,334.5781 L114.6188,336.4531 L109.3531,336.4531 L109.3531,339.7188 L114.3063,339.7188 L114.3063,341.5781 L109.3531,341.5781 L109.3531,345.375 L114.6188,345.375 L114.6188,347.25 Z " fill="#000000"/><text fill="#000000" font-family="sans-serif" font-size="14" lengthAdjust="spacing" textLength="73" x="125.85" y="346.182">GameState</text><line style="stroke:#181818;stroke-width:0.5;" x1="94" x2="204" y1="356.75" y2="356.75"/><text fill="#000000" font-family="sans-serif" font-size="14" lengthAdjust="spacing" textLength="40" x="99" y="375.7159">None,</text><text fill="#000000" font-family="sans-serif" font-size="14" lengthAdjust="spacing" textLength="77" x="99" y="394.7839">InProgress,</text><text fill="#000000" font-family="sans-serif" font-size="14" lengthAdjust="spacing" textLength="100" x="99" y="413.8518">PlayerHasWon,</text><text fill="#000000" font-family="sans-serif" font-size="14" lengthAdjust="spacing" textLength="35" x="99" y="432.9197">Draw</text><line style="stroke:#181818;stroke-width:0.5;" x1="94" x2="204" y1="441.0217" y2="441.0217"/></g><!--class GameEngine--><g id="elem_GameEngine"><rect codeLine="9" fill="#F1F1F1" height="257.7471" id="GameEngine" rx="2.5" ry="2.5" style="stroke:#181818;stroke-width:0.5;" width="313" x="429.5" y="7"/><ellipse cx="538.75" cy="23" fill="#ADD1B2" rx="11" ry="11" style="stroke:#181818;stroke-width:1.0;"/><path d="M538.8594,18.5313 Q537.9375,18.5313 537.2031,18.8438 Q536.4844,19.1563 535.9844,19.75 Q535.4844,20.3281 535.2031,21.2031 Q534.9375,22.0781 534.9375,23.1719 Q534.9375,24.6094 535.375,25.6563 Q535.8281,26.7031 536.6719,27.25 Q537.5313,27.7969 538.8438,27.7969 Q539.625,27.7969 540.3125,27.6719 Q541.0156,27.5313 542.0156,27.2188 L542.0156,29.0938 Q541.1563,29.4219 540.3906,29.5469 Q539.6406,29.6719 538.625,29.6719 Q536.7031,29.6719 535.3906,28.875 Q534.0938,28.0625 533.4375,26.5938 Q532.7813,25.1094 532.7813,23.1406 Q532.7813,21.7188 533.1719,20.5469 Q533.5781,19.3594 534.3594,18.4844 Q535.1406,17.6094 536.2813,17.1406 Q537.4219,16.6563 538.8906,16.6563 Q539.8438,16.6563 540.7344,16.8594 Q541.6406,17.0469 542.5781,17.5156 L541.75,19.2969 Q540.9688,18.9219 540.3125,18.7344 Q539.6563,18.5313 538.8594,18.5313 Z " fill="#000000"/><text fill="#000000" font-family="sans-serif" font-size="14" lengthAdjust="spacing" textLength="86" x="559.25" y="28.432">GameEngine</text><line style="stroke:#181818;stroke-width:0.5;" x1="430.5" x2="741.5" y1="39" y2="39"/><rect fill="none" height="6" style="stroke:#C82930;stroke-width:1.0;" width="6" x="437.5" y="51.034"/><text fill="#000000" font-family="sans-serif" font-size="14" lengthAdjust="spacing" textLength="113" x="449.5" y="57.9659">players: IPlayer[]</text><rect fill="none" height="6" style="stroke:#C82930;stroke-width:1.0;" width="6" x="437.5" y="70.1019"/><text fill="#000000" font-family="sans-serif" font-size="14" lengthAdjust="spacing" textLength="170" x="449.5" y="77.0339">gameBoard: IGameBoard</text><rect fill="none" height="6" style="stroke:#C82930;stroke-width:1.0;" width="6" x="437.5" y="89.1698"/><text fill="#000000" font-family="sans-serif" font-size="14" lengthAdjust="spacing" textLength="210" x="449.5" y="96.1018">winConditions: IWinCondition[]</text><rect fill="none" height="6" style="stroke:#C82930;stroke-width:1.0;" width="6" x="437.5" y="108.2377"/><text fill="#000000" font-family="sans-serif" font-size="14" lengthAdjust="spacing" textLength="165" x="449.5" y="115.1697">maxNumberOfTurns: int</text><rect fill="none" height="6" style="stroke:#C82930;stroke-width:1.0;" width="6" x="437.5" y="127.3056"/><text fill="#000000" font-family="sans-serif" font-size="14" lengthAdjust="spacing" textLength="196" x="449.5" y="134.2376">outputViewer: IOutputViewer</text><rect fill="none" height="6" style="stroke:#C82930;stroke-width:1.0;" width="6" x="437.5" y="146.3735"/><text fill="#008000" font-family="sans-serif" font-size="14" lengthAdjust="spacing" textLength="86" x="449.5" y="153.3055">turns: Turn[]</text><line style="stroke:#181818;stroke-width:0.5;" x1="430.5" x2="741.5" y1="161.4075" y2="161.4075"/><ellipse cx="440.5" cy="176.4415" fill="#84BE84" rx="3" ry="3" style="stroke:#038048;stroke-width:1.0;"/><text fill="#000000" font-family="sans-serif" font-size="14" lengthAdjust="spacing" textLength="35" x="449.5" y="180.3734">Run()</text><rect fill="#F24D5C" height="6" style="stroke:#C82930;stroke-width:1.0;" width="6" x="437.5" y="192.5094"/><text fill="#000000" font-family="sans-serif" font-size="14" lengthAdjust="spacing" textLength="183" x="449.5" y="199.4414">GetPlayerForTurn() : IPlayer</text><rect fill="#F24D5C" height="6" style="stroke:#C82930;stroke-width:1.0;" width="6" x="437.5" y="211.5773"/><text fill="#000000" font-family="sans-serif" font-size="14" lengthAdjust="spacing" textLength="159" x="449.5" y="218.5093">HasPlayerWon(int): bool</text><rect fill="#F24D5C" height="6" style="stroke:#C82930;stroke-width:1.0;" width="6" x="437.5" y="230.6452"/><text fill="#000000" font-family="sans-serif" font-size="14" lengthAdjust="spacing" textLength="151" x="449.5" y="237.5772">IsColumnFull(int): bool</text><rect fill="#F24D5C" height="6" style="stroke:#C82930;stroke-width:1.0;" width="6" x="437.5" y="249.7131"/><text fill="#000000" font-family="sans-serif" font-size="14" lengthAdjust="spacing" textLength="287" x="449.5" y="256.6451">GetUpdatedGameState(int, int): GameState</text></g><!--class Turn--><g id="elem_Turn"><rect codeLine="23" fill="#90EE90" height="124.2717" id="Turn" rx="2.5" ry="2.5" style="stroke:#181818;stroke-width:0.5;" width="305" x="310.5" y="324.75"/><ellipse cx="442.75" cy="340.75" fill="#ADD1B2" rx="11" ry="11" style="stroke:#181818;stroke-width:1.0;"/><path d="M442.8594,336.2813 Q441.9375,336.2813 441.2031,336.5938 Q440.4844,336.9063 439.9844,337.5 Q439.4844,338.0781 439.2031,338.9531 Q438.9375,339.8281 438.9375,340.9219 Q438.9375,342.3594 439.375,343.4063 Q439.8281,344.4531 440.6719,345 Q441.5313,345.5469 442.8438,345.5469 Q443.625,345.5469 444.3125,345.4219 Q445.0156,345.2813 446.0156,344.9688 L446.0156,346.8438 Q445.1563,347.1719 444.3906,347.2969 Q443.6406,347.4219 442.625,347.4219 Q440.7031,347.4219 439.3906,346.625 Q438.0938,345.8125 437.4375,344.3438 Q436.7813,342.8594 436.7813,340.8906 Q436.7813,339.4688 437.1719,338.2969 Q437.5781,337.1094 438.3594,336.2344 Q439.1406,335.3594 440.2813,334.8906 Q441.4219,334.4063 442.8906,334.4063 Q443.8438,334.4063 444.7344,334.6094 Q445.6406,334.7969 446.5781,335.2656 L445.75,337.0469 Q444.9688,336.6719 444.3125,336.4844 Q443.6563,336.2813 442.8594,336.2813 Z " fill="#000000"/><text fill="#000000" font-family="sans-serif" font-size="14" lengthAdjust="spacing" textLength="32" x="463.25" y="346.182">Turn</text><line style="stroke:#181818;stroke-width:0.5;" x1="311.5" x2="614.5" y1="356.75" y2="356.75"/><ellipse cx="321.5" cy="371.784" fill="none" rx="3" ry="3" style="stroke:#038048;stroke-width:1.0;"/><text fill="#000000" font-family="sans-serif" font-size="14" lengthAdjust="spacing" textLength="82" x="330.5" y="375.7159">Number: int</text><ellipse cx="321.5" cy="390.8519" fill="none" rx="3" ry="3" style="stroke:#038048;stroke-width:1.0;"/><text fill="#000000" font-family="sans-serif" font-size="14" lengthAdjust="spacing" textLength="132" x="330.5" y="394.7839">TokenPlayed: Token</text><ellipse cx="321.5" cy="409.9198" fill="none" rx="3" ry="3" style="stroke:#038048;stroke-width:1.0;"/><text fill="#000000" font-family="sans-serif" font-size="14" lengthAdjust="spacing" textLength="129" x="330.5" y="413.8518">PlayerName: string</text><line style="stroke:#181818;stroke-width:0.5;" x1="311.5" x2="614.5" y1="421.9538" y2="421.9538"/><ellipse cx="321.5" cy="436.9877" fill="#84BE84" rx="3" ry="3" style="stroke:#038048;stroke-width:1.0;"/><text fill="#000000" font-family="sans-serif" font-size="14" lengthAdjust="spacing" textLength="279" x="330.5" y="440.9197">Play(IPlayer, IGameBoard, IOutputViewer)</text></g><!--class Token--><g id="elem_Token"><rect codeLine="30" fill="#90EE90" height="105.2038" id="Token" rx="2.5" ry="2.5" style="stroke:#181818;stroke-width:0.5;" width="178" x="800" y="1042.77"/><ellipse cx="864.75" cy="1058.77" fill="#ADD1B2" rx="11" ry="11" style="stroke:#181818;stroke-width:1.0;"/><path d="M864.8594,1054.3013 Q863.9375,1054.3013 863.2031,1054.6138 Q862.4844,1054.9263 861.9844,1055.52 Q861.4844,1056.0981 861.2031,1056.9731 Q860.9375,1057.8481 860.9375,1058.9419 Q860.9375,1060.3794 861.375,1061.4263 Q861.8281,1062.4731 862.6719,1063.02 Q863.5313,1063.5669 864.8438,1063.5669 Q865.625,1063.5669 866.3125,1063.4419 Q867.0156,1063.3013 868.0156,1062.9888 L868.0156,1064.8638 Q867.1563,1065.1919 866.3906,1065.3169 Q865.6406,1065.4419 864.625,1065.4419 Q862.7031,1065.4419 861.3906,1064.645 Q860.0938,1063.8325 859.4375,1062.3638 Q858.7813,1060.8794 858.7813,1058.9106 Q858.7813,1057.4888 859.1719,1056.3169 Q859.5781,1055.1294 860.3594,1054.2544 Q861.1406,1053.3794 862.2813,1052.9106 Q863.4219,1052.4263 864.8906,1052.4263 Q865.8438,1052.4263 866.7344,1052.6294 Q867.6406,1052.8169 868.5781,1053.2856 L867.75,1055.0669 Q866.9688,1054.6919 866.3125,1054.5044 Q865.6563,1054.3013 864.8594,1054.3013 Z " fill="#000000"/><text fill="#000000" font-family="sans-serif" font-size="14" lengthAdjust="spacing" textLength="40" x="885.25" y="1064.202">Token</text><line style="stroke:#181818;stroke-width:0.5;" x1="801" x2="977" y1="1074.77" y2="1074.77"/><ellipse cx="811" cy="1089.804" fill="none" rx="3" ry="3" style="stroke:#038048;stroke-width:1.0;"/><text fill="#000000" font-family="sans-serif" font-size="14" lengthAdjust="spacing" textLength="152" x="820" y="1093.7359">TokenType: TokenType</text><ellipse cx="811" cy="1108.8719" fill="none" rx="3" ry="3" style="stroke:#038048;stroke-width:1.0;"/><text fill="#000000" font-family="sans-serif" font-size="14" lengthAdjust="spacing" textLength="54" x="820" y="1112.8039">Row: int</text><ellipse cx="811" cy="1127.9398" fill="none" rx="3" ry="3" style="stroke:#038048;stroke-width:1.0;"/><text fill="#000000" font-family="sans-serif" font-size="14" lengthAdjust="spacing" textLength="78" x="820" y="1131.8718">Column: int</text><line style="stroke:#181818;stroke-width:0.5;" x1="801" x2="977" y1="1139.9738" y2="1139.9738"/></g><!--class IPlayer--><g id="elem_IPlayer"><rect codeLine="37" fill="#F1F1F1" height="105.2038" id="IPlayer" rx="2.5" ry="2.5" style="stroke:#181818;stroke-width:0.5;" width="178" x="140" y="509.02"/><ellipse cx="202.25" cy="525.02" fill="#B4A7E5" rx="11" ry="11" style="stroke:#181818;stroke-width:1.0;"/><path d="M204.3438,531.52 L199.4375,531.52 L199.4375,530.145 L200.8594,529.8325 L200.8594,520.5513 L199.4375,520.2075 L199.4375,518.8481 L204.3438,518.8481 L204.3438,520.2075 L202.9219,520.5513 L202.9219,529.8325 L204.3438,530.145 L204.3438,531.52 Z " fill="#000000"/><text fill="#000000" font-family="sans-serif" font-size="14" font-style="italic" lengthAdjust="spacing" textLength="45" x="222.75" y="530.452">IPlayer</text><line style="stroke:#181818;stroke-width:0.5;" x1="141" x2="317" y1="541.02" y2="541.02"/><ellipse cx="151" cy="556.054" fill="none" rx="3" ry="3" style="stroke:#038048;stroke-width:1.0;"/><text fill="#000000" font-family="sans-serif" font-size="14" lengthAdjust="spacing" textLength="88" x="160" y="559.9859">Name: string</text><ellipse cx="151" cy="575.1219" fill="none" rx="3" ry="3" style="stroke:#038048;stroke-width:1.0;"/><text fill="#000000" font-family="sans-serif" font-size="14" lengthAdjust="spacing" textLength="152" x="160" y="579.0539">TokenType: TokenType</text><line style="stroke:#181818;stroke-width:0.5;" x1="141" x2="317" y1="587.1558" y2="587.1558"/><ellipse cx="151" cy="602.1898" fill="#84BE84" rx="3" ry="3" style="stroke:#038048;stroke-width:1.0;"/><text fill="#000000" font-family="sans-serif" font-size="14" lengthAdjust="spacing" textLength="142" x="160" y="606.1218">GetNextMove(int): int</text></g><!--class HumanPlayer--><g id="elem_HumanPlayer"><rect codeLine="42" fill="#F1F1F1" height="48" id="HumanPlayer" rx="2.5" ry="2.5" style="stroke:#181818;stroke-width:0.5;" width="122" x="182" y="712.36"/><ellipse cx="197" cy="728.36" fill="#ADD1B2" rx="11" ry="11" style="stroke:#181818;stroke-width:1.0;"/><path d="M197.1094,723.8913 Q196.1875,723.8913 195.4531,724.2038 Q194.7344,724.5163 194.2344,725.11 Q193.7344,725.6881 193.4531,726.5631 Q193.1875,727.4381 193.1875,728.5319 Q193.1875,729.9694 193.625,731.0163 Q194.0781,732.0631 194.9219,732.61 Q195.7813,733.1569 197.0938,733.1569 Q197.875,733.1569 198.5625,733.0319 Q199.2656,732.8913 200.2656,732.5788 L200.2656,734.4538 Q199.4063,734.7819 198.6406,734.9069 Q197.8906,735.0319 196.875,735.0319 Q194.9531,735.0319 193.6406,734.235 Q192.3438,733.4225 191.6875,731.9538 Q191.0313,730.4694 191.0313,728.5006 Q191.0313,727.0788 191.4219,725.9069 Q191.8281,724.7194 192.6094,723.8444 Q193.3906,722.9694 194.5313,722.5006 Q195.6719,722.0163 197.1406,722.0163 Q198.0938,722.0163 198.9844,722.2194 Q199.8906,722.4069 200.8281,722.8756 L200,724.6569 Q199.2188,724.2819 198.5625,724.0944 Q197.9063,723.8913 197.1094,723.8913 Z " fill="#000000"/><text fill="#000000" font-family="sans-serif" font-size="14" lengthAdjust="spacing" textLength="90" x="211" y="733.792">HumanPlayer</text><line style="stroke:#181818;stroke-width:0.5;" x1="183" x2="303" y1="744.36" y2="744.36"/><line style="stroke:#181818;stroke-width:0.5;" x1="183" x2="303" y1="752.36" y2="752.36"/></g><!--class ComputerPlayer--><g id="elem_ComputerPlayer"><rect codeLine="43" fill="#F1F1F1" height="48" id="ComputerPlayer" rx="2.5" ry="2.5" style="stroke:#181818;stroke-width:0.5;" width="140" x="7" y="712.36"/><ellipse cx="22" cy="728.36" fill="#ADD1B2" rx="11" ry="11" style="stroke:#181818;stroke-width:1.0;"/><path d="M22.1094,723.8913 Q21.1875,723.8913 20.4531,724.2038 Q19.7344,724.5163 19.2344,725.11 Q18.7344,725.6881 18.4531,726.5631 Q18.1875,727.4381 18.1875,728.5319 Q18.1875,729.9694 18.625,731.0163 Q19.0781,732.0631 19.9219,732.61 Q20.7813,733.1569 22.0938,733.1569 Q22.875,733.1569 23.5625,733.0319 Q24.2656,732.8913 25.2656,732.5788 L25.2656,734.4538 Q24.4063,734.7819 23.6406,734.9069 Q22.8906,735.0319 21.875,735.0319 Q19.9531,735.0319 18.6406,734.235 Q17.3438,733.4225 16.6875,731.9538 Q16.0313,730.4694 16.0313,728.5006 Q16.0313,727.0788 16.4219,725.9069 Q16.8281,724.7194 17.6094,723.8444 Q18.3906,722.9694 19.5313,722.5006 Q20.6719,722.0163 22.1406,722.0163 Q23.0938,722.0163 23.9844,722.2194 Q24.8906,722.4069 25.8281,722.8756 L25,724.6569 Q24.2188,724.2819 23.5625,724.0944 Q22.9063,723.8913 22.1094,723.8913 Z " fill="#000000"/><text fill="#000000" font-family="sans-serif" font-size="14" lengthAdjust="spacing" textLength="108" x="36" y="733.792">ComputerPlayer</text><line style="stroke:#181818;stroke-width:0.5;" x1="8" x2="146" y1="744.36" y2="744.36"/><line style="stroke:#181818;stroke-width:0.5;" x1="8" x2="146" y1="752.36" y2="752.36"/></g><!--class IGameBoard--><g id="elem_IGameBoard"><rect codeLine="46" fill="#F1F1F1" height="124.2717" id="IGameBoard" rx="2.5" ry="2.5" style="stroke:#181818;stroke-width:0.5;" width="255" x="779.5" y="674.22"/><ellipse cx="863.25" cy="690.22" fill="#B4A7E5" rx="11" ry="11" style="stroke:#181818;stroke-width:1.0;"/><path d="M865.3438,696.72 L860.4375,696.72 L860.4375,695.345 L861.8594,695.0325 L861.8594,685.7513 L860.4375,685.4075 L860.4375,684.0481 L865.3438,684.0481 L865.3438,685.4075 L863.9219,685.7513 L863.9219,695.0325 L865.3438,695.345 L865.3438,696.72 Z " fill="#000000"/><text fill="#000000" font-family="sans-serif" font-size="14" font-style="italic" lengthAdjust="spacing" textLength="79" x="883.75" y="695.652">IGameBoard</text><line style="stroke:#181818;stroke-width:0.5;" x1="780.5" x2="1033.5" y1="706.22" y2="706.22"/><ellipse cx="790.5" cy="721.254" fill="none" rx="3" ry="3" style="stroke:#038048;stroke-width:1.0;"/><text fill="#000000" font-family="sans-serif" font-size="14" lengthAdjust="spacing" textLength="124" x="799.5" y="725.1859">NumerOfRows: int</text><ellipse cx="790.5" cy="740.3219" fill="none" rx="3" ry="3" style="stroke:#038048;stroke-width:1.0;"/><text fill="#000000" font-family="sans-serif" font-size="14" lengthAdjust="spacing" textLength="157" x="799.5" y="744.2539">NumberOfColumns: int</text><line style="stroke:#181818;stroke-width:0.5;" x1="780.5" x2="1033.5" y1="752.3558" y2="752.3558"/><ellipse cx="790.5" cy="767.3898" fill="#84BE84" rx="3" ry="3" style="stroke:#038048;stroke-width:1.0;"/><text fill="#000000" font-family="sans-serif" font-size="14" lengthAdjust="spacing" textLength="229" x="799.5" y="771.3218">PlaceToken(TokenType, int): Token</text><ellipse cx="790.5" cy="786.4577" fill="#84BE84" rx="3" ry="3" style="stroke:#038048;stroke-width:1.0;"/><text fill="#000000" font-family="sans-serif" font-size="14" lengthAdjust="spacing" textLength="177" x="799.5" y="790.3897">GetTokenAt(int, int): Token</text></g><!--class GameBoard--><g id="elem_GameBoard"><rect codeLine="53" fill="#F1F1F1" height="124.2717" id="GameBoard" rx="2.5" ry="2.5" style="stroke:#181818;stroke-width:0.5;" width="292" x="743" y="858.49"/><ellipse cx="845.25" cy="874.49" fill="#ADD1B2" rx="11" ry="11" style="stroke:#181818;stroke-width:1.0;"/><path d="M845.3594,870.0213 Q844.4375,870.0213 843.7031,870.3338 Q842.9844,870.6463 842.4844,871.24 Q841.9844,871.8181 841.7031,872.6931 Q841.4375,873.5681 841.4375,874.6619 Q841.4375,876.0994 841.875,877.1463 Q842.3281,878.1931 843.1719,878.74 Q844.0313,879.2869 845.3438,879.2869 Q846.125,879.2869 846.8125,879.1619 Q847.5156,879.0213 848.5156,878.7088 L848.5156,880.5838 Q847.6563,880.9119 846.8906,881.0369 Q846.1406,881.1619 845.125,881.1619 Q843.2031,881.1619 841.8906,880.365 Q840.5938,879.5525 839.9375,878.0838 Q839.2813,876.5994 839.2813,874.6306 Q839.2813,873.2088 839.6719,872.0369 Q840.0781,870.8494 840.8594,869.9744 Q841.6406,869.0994 842.7813,868.6306 Q843.9219,868.1463 845.3906,868.1463 Q846.3438,868.1463 847.2344,868.3494 Q848.1406,868.5369 849.0781,869.0056 L848.25,870.7869 Q847.4688,870.4119 846.8125,870.2244 Q846.1563,870.0213 845.3594,870.0213 Z " fill="#000000"/><text fill="#000000" font-family="sans-serif" font-size="14" lengthAdjust="spacing" textLength="79" x="865.75" y="879.922">GameBoard</text><line style="stroke:#181818;stroke-width:0.5;" x1="744" x2="1034" y1="890.49" y2="890.49"/><rect fill="none" height="6" style="stroke:#C82930;stroke-width:1.0;" width="6" x="751" y="902.524"/><text fill="#000000" font-family="sans-serif" font-size="14" lengthAdjust="spacing" textLength="189" x="763" y="909.4559">gameBoardMatrix: Token[][]</text><rect fill="none" height="6" style="stroke:#C82930;stroke-width:1.0;" width="6" x="751" y="921.5919"/><text fill="#000000" font-family="sans-serif" font-size="14" lengthAdjust="spacing" textLength="175" x="763" y="928.5239">rowIndexUpperBound: int</text><rect fill="none" height="6" style="stroke:#C82930;stroke-width:1.0;" width="6" x="751" y="940.6598"/><text fill="#000000" font-family="sans-serif" font-size="14" lengthAdjust="spacing" textLength="169" x="763" y="947.5918">colIndexUpperBound: int</text><line style="stroke:#181818;stroke-width:0.5;" x1="744" x2="1034" y1="955.6938" y2="955.6938"/><rect fill="#F24D5C" height="6" style="stroke:#C82930;stroke-width:1.0;" width="6" x="751" y="967.7277"/><text fill="#000000" font-family="sans-serif" font-size="14" lengthAdjust="spacing" textLength="266" x="763" y="974.6597">CompensateForZeroBasedIndex(int): int</text></g><!--class IOutputViewer--><g id="elem_IOutputViewer"><rect codeLine="61" fill="#F1F1F1" height="86.1358" id="IOutputViewer" rx="2.5" ry="2.5" style="stroke:#181818;stroke-width:0.5;" width="473" x="494.5" y="518.55"/><ellipse cx="681.25" cy="534.55" fill="#B4A7E5" rx="11" ry="11" style="stroke:#181818;stroke-width:1.0;"/><path d="M683.3438,541.05 L678.4375,541.05 L678.4375,539.675 L679.8594,539.3625 L679.8594,530.0813 L678.4375,529.7375 L678.4375,528.3781 L683.3438,528.3781 L683.3438,529.7375 L681.9219,530.0813 L681.9219,539.3625 L683.3438,539.675 L683.3438,541.05 Z " fill="#000000"/><text fill="#000000" font-family="sans-serif" font-size="14" font-style="italic" lengthAdjust="spacing" textLength="91" x="701.75" y="539.982">IOutputViewer</text><line style="stroke:#181818;stroke-width:0.5;" x1="495.5" x2="966.5" y1="550.55" y2="550.55"/><line style="stroke:#181818;stroke-width:0.5;" x1="495.5" x2="966.5" y1="558.55" y2="558.55"/><ellipse cx="505.5" cy="573.584" fill="#84BE84" rx="3" ry="3" style="stroke:#038048;stroke-width:1.0;"/><text fill="#008000" font-family="sans-serif" font-size="14" lengthAdjust="spacing" textLength="447" x="514.5" y="577.5159">ShowMessage(GameState, string playerName, int columnNumber)</text><ellipse cx="505.5" cy="592.6519" fill="#84BE84" rx="3" ry="3" style="stroke:#038048;stroke-width:1.0;"/><text fill="#000000" font-family="sans-serif" font-size="14" lengthAdjust="spacing" textLength="207" x="514.5" y="596.5839">ShowGameBoard(IGameBoard)</text></g><!--class OutputViewer--><g id="elem_OutputViewer"><rect codeLine="66" fill="#F1F1F1" height="67.0679" id="OutputViewer" rx="2.5" ry="2.5" style="stroke:#181818;stroke-width:0.5;" width="321" x="423.5" y="702.82"/><ellipse cx="533.25" cy="718.82" fill="#ADD1B2" rx="11" ry="11" style="stroke:#181818;stroke-width:1.0;"/><path d="M533.3594,714.3513 Q532.4375,714.3513 531.7031,714.6638 Q530.9844,714.9763 530.4844,715.57 Q529.9844,716.1481 529.7031,717.0231 Q529.4375,717.8981 529.4375,718.9919 Q529.4375,720.4294 529.875,721.4763 Q530.3281,722.5231 531.1719,723.07 Q532.0313,723.6169 533.3438,723.6169 Q534.125,723.6169 534.8125,723.4919 Q535.5156,723.3513 536.5156,723.0388 L536.5156,724.9138 Q535.6563,725.2419 534.8906,725.3669 Q534.1406,725.4919 533.125,725.4919 Q531.2031,725.4919 529.8906,724.695 Q528.5938,723.8825 527.9375,722.4138 Q527.2813,720.9294 527.2813,718.9606 Q527.2813,717.5388 527.6719,716.3669 Q528.0781,715.1794 528.8594,714.3044 Q529.6406,713.4294 530.7813,712.9606 Q531.9219,712.4763 533.3906,712.4763 Q534.3438,712.4763 535.2344,712.6794 Q536.1406,712.8669 537.0781,713.3356 L536.25,715.1169 Q535.4688,714.7419 534.8125,714.5544 Q534.1563,714.3513 533.3594,714.3513 Z " fill="#000000"/><text fill="#000000" font-family="sans-serif" font-size="14" lengthAdjust="spacing" textLength="93" x="553.75" y="724.252">OutputViewer</text><line style="stroke:#181818;stroke-width:0.5;" x1="424.5" x2="743.5" y1="734.82" y2="734.82"/><line style="stroke:#181818;stroke-width:0.5;" x1="424.5" x2="743.5" y1="742.82" y2="742.82"/><rect fill="#F24D5C" height="6" style="stroke:#C82930;stroke-width:1.0;" width="6" x="431.5" y="754.854"/><text fill="#000000" font-family="sans-serif" font-size="14" lengthAdjust="spacing" textLength="295" x="443.5" y="761.7859">GetStringRepresentation(TokenType): string</text></g><!--class IWinCondition--><g id="elem_IWinCondition"><rect codeLine="71" fill="#F1F1F1" height="67.0679" id="IWinCondition" rx="2.5" ry="2.5" style="stroke:#181818;stroke-width:0.5;" width="269" x="1102.5" y="528.09"/><ellipse cx="1187.75" cy="544.09" fill="#B4A7E5" rx="11" ry="11" style="stroke:#181818;stroke-width:1.0;"/><path d="M1189.8438,550.59 L1184.9375,550.59 L1184.9375,549.215 L1186.3594,548.9025 L1186.3594,539.6213 L1184.9375,539.2775 L1184.9375,537.9181 L1189.8438,537.9181 L1189.8438,539.2775 L1188.4219,539.6213 L1188.4219,548.9025 L1189.8438,549.215 L1189.8438,550.59 Z " fill="#000000"/><text fill="#000000" font-family="sans-serif" font-size="14" font-style="italic" lengthAdjust="spacing" textLength="90" x="1208.25" y="549.522">IWinCondition</text><line style="stroke:#181818;stroke-width:0.5;" x1="1103.5" x2="1370.5" y1="560.09" y2="560.09"/><line style="stroke:#181818;stroke-width:0.5;" x1="1103.5" x2="1370.5" y1="568.09" y2="568.09"/><ellipse cx="1113.5" cy="583.124" fill="#84BE84" rx="3" ry="3" style="stroke:#038048;stroke-width:1.0;"/><text fill="#000000" font-family="sans-serif" font-size="14" lengthAdjust="spacing" textLength="243" x="1122.5" y="587.0559">IsFulfilled(IGameBoard, Token): bool</text></g><!--class HorizontalWinCondition--><g id="elem_HorizontalWinCondition"><rect codeLine="75" fill="#F1F1F1" height="48" id="HorizontalWinCondition" rx="2.5" ry="2.5" style="stroke:#181818;stroke-width:0.5;" width="192" x="1141" y="712.36"/><ellipse cx="1156" cy="728.36" fill="#ADD1B2" rx="11" ry="11" style="stroke:#181818;stroke-width:1.0;"/><path d="M1156.1094,723.8913 Q1155.1875,723.8913 1154.4531,724.2038 Q1153.7344,724.5163 1153.2344,725.11 Q1152.7344,725.6881 1152.4531,726.5631 Q1152.1875,727.4381 1152.1875,728.5319 Q1152.1875,729.9694 1152.625,731.0163 Q1153.0781,732.0631 1153.9219,732.61 Q1154.7813,733.1569 1156.0938,733.1569 Q1156.875,733.1569 1157.5625,733.0319 Q1158.2656,732.8913 1159.2656,732.5788 L1159.2656,734.4538 Q1158.4063,734.7819 1157.6406,734.9069 Q1156.8906,735.0319 1155.875,735.0319 Q1153.9531,735.0319 1152.6406,734.235 Q1151.3438,733.4225 1150.6875,731.9538 Q1150.0313,730.4694 1150.0313,728.5006 Q1150.0313,727.0788 1150.4219,725.9069 Q1150.8281,724.7194 1151.6094,723.8444 Q1152.3906,722.9694 1153.5313,722.5006 Q1154.6719,722.0163 1156.1406,722.0163 Q1157.0938,722.0163 1157.9844,722.2194 Q1158.8906,722.4069 1159.8281,722.8756 L1159,724.6569 Q1158.2188,724.2819 1157.5625,724.0944 Q1156.9063,723.8913 1156.1094,723.8913 Z " fill="#000000"/><text fill="#000000" font-family="sans-serif" font-size="14" lengthAdjust="spacing" textLength="160" x="1170" y="733.792">HorizontalWinCondition</text><line style="stroke:#181818;stroke-width:0.5;" x1="1142" x2="1332" y1="744.36" y2="744.36"/><line style="stroke:#181818;stroke-width:0.5;" x1="1142" x2="1332" y1="752.36" y2="752.36"/></g><!--class VerticalWinCondition--><g id="elem_VerticalWinCondition"><rect codeLine="76" fill="#F1F1F1" height="48" id="VerticalWinCondition" rx="2.5" ry="2.5" style="stroke:#181818;stroke-width:0.5;" width="173" x="1368.5" y="712.36"/><ellipse cx="1383.5" cy="728.36" fill="#ADD1B2" rx="11" ry="11" style="stroke:#181818;stroke-width:1.0;"/><path d="M1383.6094,723.8913 Q1382.6875,723.8913 1381.9531,724.2038 Q1381.2344,724.5163 1380.7344,725.11 Q1380.2344,725.6881 1379.9531,726.5631 Q1379.6875,727.4381 1379.6875,728.5319 Q1379.6875,729.9694 1380.125,731.0163 Q1380.5781,732.0631 1381.4219,732.61 Q1382.2813,733.1569 1383.5938,733.1569 Q1384.375,733.1569 1385.0625,733.0319 Q1385.7656,732.8913 1386.7656,732.5788 L1386.7656,734.4538 Q1385.9063,734.7819 1385.1406,734.9069 Q1384.3906,735.0319 1383.375,735.0319 Q1381.4531,735.0319 1380.1406,734.235 Q1378.8438,733.4225 1378.1875,731.9538 Q1377.5313,730.4694 1377.5313,728.5006 Q1377.5313,727.0788 1377.9219,725.9069 Q1378.3281,724.7194 1379.1094,723.8444 Q1379.8906,722.9694 1381.0313,722.5006 Q1382.1719,722.0163 1383.6406,722.0163 Q1384.5938,722.0163 1385.4844,722.2194 Q1386.3906,722.4069 1387.3281,722.8756 L1386.5,724.6569 Q1385.7188,724.2819 1385.0625,724.0944 Q1384.4063,723.8913 1383.6094,723.8913 Z " fill="#000000"/><text fill="#000000" font-family="sans-serif" font-size="14" lengthAdjust="spacing" textLength="141" x="1397.5" y="733.792">VerticalWinCondition</text><line style="stroke:#181818;stroke-width:0.5;" x1="1369.5" x2="1540.5" y1="744.36" y2="744.36"/><line style="stroke:#181818;stroke-width:0.5;" x1="1369.5" x2="1540.5" y1="752.36" y2="752.36"/></g><!--class UpwardDiagonalWinCondition--><g id="elem_UpwardDiagonalWinCondition"><rect codeLine="77" fill="#F1F1F1" height="48" id="UpwardDiagonalWinCondition" rx="2.5" ry="2.5" style="stroke:#181818;stroke-width:0.5;" width="236" x="1577" y="712.36"/><ellipse cx="1592" cy="728.36" fill="#ADD1B2" rx="11" ry="11" style="stroke:#181818;stroke-width:1.0;"/><path d="M1592.1094,723.8913 Q1591.1875,723.8913 1590.4531,724.2038 Q1589.7344,724.5163 1589.2344,725.11 Q1588.7344,725.6881 1588.4531,726.5631 Q1588.1875,727.4381 1588.1875,728.5319 Q1588.1875,729.9694 1588.625,731.0163 Q1589.0781,732.0631 1589.9219,732.61 Q1590.7813,733.1569 1592.0938,733.1569 Q1592.875,733.1569 1593.5625,733.0319 Q1594.2656,732.8913 1595.2656,732.5788 L1595.2656,734.4538 Q1594.4063,734.7819 1593.6406,734.9069 Q1592.8906,735.0319 1591.875,735.0319 Q1589.9531,735.0319 1588.6406,734.235 Q1587.3438,733.4225 1586.6875,731.9538 Q1586.0313,730.4694 1586.0313,728.5006 Q1586.0313,727.0788 1586.4219,725.9069 Q1586.8281,724.7194 1587.6094,723.8444 Q1588.3906,722.9694 1589.5313,722.5006 Q1590.6719,722.0163 1592.1406,722.0163 Q1593.0938,722.0163 1593.9844,722.2194 Q1594.8906,722.4069 1595.8281,722.8756 L1595,724.6569 Q1594.2188,724.2819 1593.5625,724.0944 Q1592.9063,723.8913 1592.1094,723.8913 Z " fill="#000000"/><text fill="#000000" font-family="sans-serif" font-size="14" lengthAdjust="spacing" textLength="204" x="1606" y="733.792">UpwardDiagonalWinCondition</text><line style="stroke:#181818;stroke-width:0.5;" x1="1578" x2="1812" y1="744.36" y2="744.36"/><line style="stroke:#181818;stroke-width:0.5;" x1="1578" x2="1812" y1="752.36" y2="752.36"/></g><!--class DownwardDiagonalWinCondition--><g id="elem_DownwardDiagonalWinCondition"><rect codeLine="78" fill="#F1F1F1" height="48" id="DownwardDiagonalWinCondition" rx="2.5" ry="2.5" style="stroke:#181818;stroke-width:0.5;" width="255" x="1848.5" y="712.36"/><ellipse cx="1863.5" cy="728.36" fill="#ADD1B2" rx="11" ry="11" style="stroke:#181818;stroke-width:1.0;"/><path d="M1863.6094,723.8913 Q1862.6875,723.8913 1861.9531,724.2038 Q1861.2344,724.5163 1860.7344,725.11 Q1860.2344,725.6881 1859.9531,726.5631 Q1859.6875,727.4381 1859.6875,728.5319 Q1859.6875,729.9694 1860.125,731.0163 Q1860.5781,732.0631 1861.4219,732.61 Q1862.2813,733.1569 1863.5938,733.1569 Q1864.375,733.1569 1865.0625,733.0319 Q1865.7656,732.8913 1866.7656,732.5788 L1866.7656,734.4538 Q1865.9063,734.7819 1865.1406,734.9069 Q1864.3906,735.0319 1863.375,735.0319 Q1861.4531,735.0319 1860.1406,734.235 Q1858.8438,733.4225 1858.1875,731.9538 Q1857.5313,730.4694 1857.5313,728.5006 Q1857.5313,727.0788 1857.9219,725.9069 Q1858.3281,724.7194 1859.1094,723.8444 Q1859.8906,722.9694 1861.0313,722.5006 Q1862.1719,722.0163 1863.6406,722.0163 Q1864.5938,722.0163 1865.4844,722.2194 Q1866.3906,722.4069 1867.3281,722.8756 L1866.5,724.6569 Q1865.7188,724.2819 1865.0625,724.0944 Q1864.4063,723.8913 1863.6094,723.8913 Z " fill="#000000"/><text fill="#000000" font-family="sans-serif" font-size="14" lengthAdjust="spacing" textLength="223" x="1877.5" y="733.792">DownwardDiagonalWinCondition</text><line style="stroke:#181818;stroke-width:0.5;" x1="1849.5" x2="2102.5" y1="744.36" y2="744.36"/><line style="stroke:#181818;stroke-width:0.5;" x1="1849.5" x2="2102.5" y1="752.36" y2="752.36"/></g><!--reverse link GameEngine to Turn--><g id="link_GameEngine_Turn"><path codeLine="82" d="M517.3854,275.789 C507.1454,296.519 502.28,306.36 493.31,324.52 " fill="none" id="GameEngine-backto-Turn" style="stroke:#181818;stroke-width:1.0;"/><polygon fill="#181818" points="522.7,265.03,516.4564,268.6379,517.3854,275.789,523.629,272.181,522.7,265.03" style="stroke:#181818;stroke-width:1.0;"/><text fill="#000000" font-family="sans-serif" font-size="13" lengthAdjust="spacing" textLength="7" x="512.0469" y="286.4744">1</text><text fill="#000000" font-family="sans-serif" font-size="13" lengthAdjust="spacing" textLength="7" x="489.5775" y="312.8233">*</text></g><!--link Turn to IPlayer--><g id="link_Turn_IPlayer"><path codeLine="83" d="M379.51,449.51 C353.26,468.89 324.55,490.08 299.31,508.72 " fill="none" id="Turn-IPlayer" style="stroke:#181818;stroke-width:1.0;"/></g><!--link Turn to IGameBoard--><g id="link_Turn_IGameBoard"><path codeLine="84" d="M448.31,449.43 C440.22,499.74 438.46,569.61 477,614.22 C561.62,712.17 638.46,635.57 762,674.22 C767.61,675.98 773.29,677.87 779.01,679.86 " fill="none" id="Turn-IGameBoard" style="stroke:#181818;stroke-width:1.0;"/></g><!--link GameEngine to GameState--><g id="link_GameEngine_GameState"><path codeLine="85" d="M429,213.9 C366.53,246.16 294.73,285.3 232,324.75 C223.21,330.27 214.15,336.43 205.38,342.66 " fill="none" id="GameEngine-GameState" style="stroke:#181818;stroke-width:1.0;"/></g><!--reverse link GameEngine to IPlayer--><g id="link_GameEngine_IPlayer"><path codeLine="86" d="M419.0223,214.5574 C369.1123,244.1974 328.11,276.87 293,324.75 C252.98,379.32 237.98,457.45 232.36,508.6 " fill="none" id="GameEngine-backto-IPlayer" style="stroke:#181818;stroke-width:1.0;"/><polygon fill="#181818" points="429.34,208.43,422.1387,208.0544,419.0223,214.5574,426.2236,214.9329,429.34,208.43" style="stroke:#181818;stroke-width:1.0;"/><text fill="#000000" font-family="sans-serif" font-size="13" lengthAdjust="spacing" textLength="7" x="414.5823" y="208.4468">1</text><text fill="#000000" font-family="sans-serif" font-size="13" lengthAdjust="spacing" textLength="7" x="225.3412" y="497.2774">*</text></g><!--reverse link GameEngine to IWinCondition--><g id="link_GameEngine_IWinCondition"><path codeLine="87" d="M754.1763,182.9169 C848.1463,213.3469 955.2,257.29 1046,324.75 C1123.19,382.09 1187.39,477.55 1217.9,527.64 " fill="none" id="GameEngine-backto-IWinCondition" style="stroke:#181818;stroke-width:1.0;"/><polygon fill="#181818" points="742.76,179.22,747.2359,184.8739,754.1763,182.9169,749.7005,177.263,742.76,179.22" style="stroke:#181818;stroke-width:1.0;"/><text fill="#000000" font-family="sans-serif" font-size="13" lengthAdjust="spacing" textLength="7" x="750.5226" y="177.822">1</text><text fill="#000000" font-family="sans-serif" font-size="13" lengthAdjust="spacing" textLength="7" x="1206.4506" y="516.2425">*</text></g><!--reverse link GameEngine to IOutputViewer--><g id="link_GameEngine_IOutputViewer"><path codeLine="88" d="M633.7855,276.5136 C663.2955,362.7436 696.44,459.63 716.49,518.21 " fill="none" id="GameEngine-backto-IOutputViewer" style="stroke:#181818;stroke-width:1.0;"/><polygon fill="#181818" points="629.9,265.16,628.0582,272.1319,633.7855,276.5136,635.6272,269.5416,629.9,265.16" style="stroke:#181818;stroke-width:1.0;"/><text fill="#000000" font-family="sans-serif" font-size="13" lengthAdjust="spacing" textLength="7" x="625.1094" y="286.6115">1</text><text fill="#000000" font-family="sans-serif" font-size="13" lengthAdjust="spacing" textLength="7" x="706.6197" y="506.8904">1</text></g><!--link Turn to Token--><g id="link_Turn_Token"><path codeLine="90" d="M432.28,449.31 C394.83,533.61 343.75,687.35 406,798.49 C490.1,948.63 684.92,1031.77 799.79,1069.34 " fill="none" id="Turn-Token" style="stroke:#181818;stroke-width:1.0;"/><text fill="#000000" font-family="sans-serif" font-size="13" lengthAdjust="spacing" textLength="7" x="421.5372" y="471.003">1</text><text fill="#000000" font-family="sans-serif" font-size="13" lengthAdjust="spacing" textLength="7" x="785.1125" y="1063.4066">1</text></g><!--link GameBoard to Token--><g id="link_GameBoard_Token"><path codeLine="91" d="M889,983.02 C889,1002.41 889,1023.65 889,1042.32 " fill="none" id="GameBoard-Token" style="stroke:#181818;stroke-width:1.0;"/></g><!--link Turn to IOutputViewer--><g id="link_Turn_IOutputViewer"><path codeLine="92" d="M558.62,449.51 C593.95,472.28 633.16,497.56 665.25,518.24 " fill="none" id="Turn-IOutputViewer" style="stroke:#181818;stroke-width:1.0;"/></g><!--reverse link GameEngine to IGameBoard--><g id="link_GameEngine_IGameBoard"><path codeLine="94" d="M752.524,241.9203 C841.684,307.3603 935.48,395.11 985,509.02 C1003.64,551.9 998.19,569.37 985,614.22 C978.86,635.1 967.88,655.78 956.07,673.98 " fill="none" id="GameEngine-backto-IGameBoard" style="stroke:#181818;stroke-width:1.0;"/><polygon fill="#181818" points="742.85,234.82,745.3202,241.5948,752.524,241.9203,750.0538,235.1455,742.85,234.82" style="stroke:#181818;stroke-width:1.0;"/><text fill="#000000" font-family="sans-serif" font-size="13" lengthAdjust="spacing" textLength="7" x="750.617" y="236.1151">1</text><text fill="#000000" font-family="sans-serif" font-size="13" lengthAdjust="spacing" textLength="7" x="954.6238" y="662.282">1</text></g><!--reverse link IGameBoard to GameBoard--><g id="link_IGameBoard_GameBoard"><path codeLine="95" d="M899.1593,816.7227 C897.2693,835.8427 896.96,839.01 895.07,858.13 " fill="none" id="IGameBoard-backto-GameBoard" style="stroke:#181818;stroke-width:1.0;stroke-dasharray:7.0,7.0;"/><polygon fill="none" points="900.93,798.81,893.1884,816.1325,905.1302,817.3129,900.93,798.81" style="stroke:#181818;stroke-width:1.0;"/></g><!--reverse link IWinCondition to HorizontalWinCondition--><g id="link_IWinCondition_HorizontalWinCondition"><path codeLine="97" d="M1237,613.52 C1237,647.58 1237,681.94 1237,711.99 " fill="none" id="IWinCondition-backto-HorizontalWinCondition" style="stroke:#181818;stroke-width:1.0;"/><polygon fill="none" points="1237,595.52,1231,613.52,1243,613.52,1237,595.52" style="stroke:#181818;stroke-width:1.0;"/></g><!--reverse link IWinCondition to VerticalWinCondition--><g id="link_IWinCondition_VerticalWinCondition"><path codeLine="98" d="M1292.6286,606.6979 C1335.6186,640.7579 1387.59,681.94 1425.51,711.99 " fill="none" id="IWinCondition-backto-VerticalWinCondition" style="stroke:#181818;stroke-width:1.0;"/><polygon fill="none" points="1278.52,595.52,1288.9026,611.4008,1296.3546,601.9951,1278.52,595.52" style="stroke:#181818;stroke-width:1.0;"/></g><!--reverse link IWinCondition to UpwardDiagonalWinCondition--><g id="link_IWinCondition_UpwardDiagonalWinCondition"><path codeLine="99" d="M1356.8167,601.3007 C1420.4767,622.3907 1486.55,645.45 1559,674.22 C1588.11,685.78 1620.09,700.07 1645.71,711.93 " fill="none" id="IWinCondition-backto-UpwardDiagonalWinCondition" style="stroke:#181818;stroke-width:1.0;"/><polygon fill="none" points="1339.73,595.64,1354.9298,606.9963,1358.7036,595.6051,1339.73,595.64" style="stroke:#181818;stroke-width:1.0;"/></g><!--reverse link IWinCondition to DownwardDiagonalWinCondition--><g id="link_IWinCondition_DownwardDiagonalWinCondition"><path codeLine="100" d="M1389.7714,582.1294 C1511.4514,599.3994 1676.64,627.76 1831,674.22 C1864.09,684.18 1899.89,699.23 1927.63,711.9 " fill="none" id="IWinCondition-backto-DownwardDiagonalWinCondition" style="stroke:#181818;stroke-width:1.0;"/><polygon fill="none" points="1371.95,579.6,1388.9283,588.0699,1390.6145,576.1889,1371.95,579.6" style="stroke:#181818;stroke-width:1.0;"/></g><!--link IWinCondition to IGameBoard--><g id="link_IWinCondition_IGameBoard"><path codeLine="102" d="M1174.15,595.52 C1131.98,617.59 1075.14,647.35 1024.72,673.74 " fill="none" id="IWinCondition-IGameBoard" style="stroke:#181818;stroke-width:1.0;"/></g><!--link IWinCondition to Token--><g id="link_IWinCondition_Token"><path codeLine="103" d="M1192.69,595.45 C1168.57,615.59 1140.23,643.4 1123,674.22 C1054.41,796.97 1132.19,866.57 1053,982.77 C1034.19,1010.37 1006.09,1033.08 978.44,1050.64 " fill="none" id="IWinCondition-Token" style="stroke:#181818;stroke-width:1.0;"/></g><!--reverse link IOutputViewer to OutputViewer--><g id="link_IOutputViewer_OutputViewer"><path codeLine="105" d="M683.3747,618.5884 C657.7947,648.6484 635.58,674.75 612,702.46 " fill="none" id="IOutputViewer-backto-OutputViewer" style="stroke:#181818;stroke-width:1.0;stroke-dasharray:7.0,7.0;"/><polygon fill="none" points="695.04,604.88,678.8052,614.6999,687.9441,622.4768,695.04,604.88" style="stroke:#181818;stroke-width:1.0;"/></g><!--link IOutputViewer to IGameBoard--><g id="link_IOutputViewer_IGameBoard"><path codeLine="106" d="M774.05,604.88 C795.22,625.65 821.13,651.08 844.44,673.96 " fill="none" id="IOutputViewer-IGameBoard" style="stroke:#181818;stroke-width:1.0;"/></g><!--reverse link IPlayer to HumanPlayer--><g id="link_IPlayer_HumanPlayer"><path codeLine="108" d="M234.6568,632.391 C237.2868,664.781 239.08,687 241.1,711.91 " fill="none" id="IPlayer-backto-HumanPlayer" style="stroke:#181818;stroke-width:1.0;stroke-dasharray:7.0,7.0;"/><polygon fill="none" points="233.2,614.45,228.6764,632.8765,240.6371,631.9054,233.2,614.45" style="stroke:#181818;stroke-width:1.0;"/></g><!--reverse link IPlayer to ComputerPlayer--><g id="link_IPlayer_ComputerPlayer"><path codeLine="109" d="M171.4995,627.9635 C142.9995,660.3535 119.55,687 97.64,711.91 " fill="none" id="IPlayer-backto-ComputerPlayer" style="stroke:#181818;stroke-width:1.0;stroke-dasharray:7.0,7.0;"/><polygon fill="none" points="183.39,614.45,166.9949,624,176.004,631.927,183.39,614.45" style="stroke:#181818;stroke-width:1.0;"/></g><!--SRC=[VLHBKzim4BxxLtZIGnqIcEcLePqfK48E18Rmc2d3GSGRuwajUIIv3eN-zwwqjYmLcrnYxVFRRn_0wp9Ui1BMccc8NwCOVol1OMw_blnAYao2KlI-AjWBo7EcxWKdoQbaJVGtYZO5Kyf6-i6pd7UXzYlheGxZ9Va-F98yGyjZmMIAcaNtJQecvoU2fxdE1JUEzzwxSo_PRbMNJo0ljpUrD6OvrwGIjQvgVPT30nAzBxqd6Hnj1TVnHXH2Vfqi902VVDCKnCHgKyokQvvCoMC1cj2V2MbCacdi2Y8Bf8IUI4o2KAQ7yPCG1IcNwaGKTSdFwg9ufyJOjrMAvAUk3SPc7fEX4_Oa6mJnfoBFddLcqBTKpuYGdedPZVW5tC92bks3v8HqXP4FOwLbphDUdhHbpRssp4CMfnuK4tG8YrNSl5JG9ZQVBQsYyI0ICIJ0g9_R2LCH2a1ksGOwdbsLxs2Fvq9kLx3J5-8tjBnJ7W9_NfUCjqqaoOaeiKgGhH3X60wUx6XwW1mn7lDc4h4qRn1dtO1IZRu6us_0OaqSugxXNfyGldrzr_v4a46mSZwOVhCk69AqQnqU7hlLaQ9PyXHsjrK5ybZKFFMM1xTYN6de0Qvm674FVe8Knqn1Qkq3Uf4tcXUVD7-2Ejw6Dd7zB9eBF3WiWyGD_xnjU5ovqRLq65_abfYcPPsP08wKf6-MDxO3MCmUhcsEQwZmu077l7Xm-WPDtTJP2lshvDVfoxiwbmfNVviN1VY0vjIPxXeuTET2vd-G65O4EKXv1rBdcq7LRTLWrDESPO8F6foAXe-QO4dNKDYQLHHvXtpoPHBlxU_7axs9FJsHlJyew0wWU_Ttt7D7HN_3Hi9saSRK0T0X8_mF3ps1Cl9MJLlJBmkAIUJGX_vZMVeQlJDmz7Pmq2zY58L3SFI6pYDD7R0SxF20tGVj7h3-kFUXGzZBTphYBGetsb8GK1ZgmvXHTzIjct-80yL_z_WV]--></g></svg>